<svg id="Layer_1" data-name="Layer 1" xmlns="http://www.w3.org/2000/svg" viewBox="0 0 792.84 126.91"><path d="M771.51,125.14h21.33V1.76H771.51Zm-32.26,0H762V1.76H741.51V77.55h-.35L711.37,1.76H690.94Zm-48.29,0H711.4V64.86H690.94Zm-39.31,1.77c19.21,0,31.55-12.17,31.55-31.91V31.9C683.2,12.16,671,0,651.65,0V19.56c6.35,0,10.22,3.88,10.22,12.52V94.83c0,8.63-3.87,12.51-10.22,12.51Zm-7,0V107.34c-6.34,0-10-3.88-10-12.51V32.08c0-8.64,3.71-12.52,10-12.52V0c-19.39,0-31.37,12.16-31.37,31.9V95c-.07,19.74,11.91,31.91,31.3,31.91Zm-62-1.77H604V1.76H582.51Zm-29.26,0h22.38L558.68,69.45c8.28-5.29,12.86-14.63,12.86-27.15V33.66c0-20.62-11.45-31.9-32.25-31.9h-7V21.33h6.22c7.93,0,11.64,3.87,11.64,13.39v6.35c0,9.69-3.71,13.57-11.64,13.57h-6.34V74h6.52Zm-49.53,0h21.33V1.76H503.75Zm-46.71,0h6.35c20.79,0,32.43-11.28,32.43-31.9v-4c0-14.81-6-24.33-16.4-28.38v-.35c8.64-3.88,13.75-12,13.75-24.68V33.71c0-20.62-11.1-31.9-31.2-31.9h-4.93V21.38h4.23c7.05,0,10.58,3.52,10.58,13v3.83c0,9.69-3.35,13.39-11.46,13.39h-3.35V71.21h4.76c9,0,12.69,4.05,12.69,14.1v6.9c0,9.52-3.7,13.4-11.81,13.4h-5.64Zm-28.38,0H450.1V1.76H428.66Zm-40.71,1.77c19.21,0,31.55-12.17,31.55-31.91V31.9c0-19.74-12.17-31.9-31.55-31.9V19.56c6.34,0,10.22,3.88,10.22,12.52V94.83c0,8.63-3.88,12.51-10.22,12.51ZM312.33,21.33h30.32V1.76H312.33ZM380.9,126.91V107.34c-6.35,0-10-3.88-10-12.51V32.08c0-8.64,3.7-12.52,10-12.52V0c-19.39,0-31.39,12.21-31.39,31.9V95C349.51,114.74,361.51,126.91,380.9,126.91ZM312.33,70.5h25V51.11h-25ZM223,21.68h54.11V1.76H223Zm61,103.46H305.3V1.76H284Zm28.38,0h30.32V105.58H312.33ZM163.21,21.68h54.12V1.76H163.21Zm76.15,103.46h21.33V28.73H239.36Zm-59.75,0h21.32V28.73H179.61Zm-31.91,0h20.45L146.29,1.76H125.85L139.42,79H128.67V98.35h14.27Zm-52.35,0H115.8l13.92-78.26H109.28ZM0,125.14H20.44V77.21H0Zm69.8,0H90.24V1.76H69.8L45.51,80.21H45L20.48,1.77H0L37.72,120.21H53.05L69.44,65h.36Z" transform="translate(0 0)"/></svg>