<svg width="99" height="99" viewBox="0 0 99 99" fill="none" xmlns="http://www.w3.org/2000/svg">
<g clip-path="url(#clip0_1892_21787)">
<path d="M84.3446 14.2122L77.2386 19.1158L76.6014 18.631L79.3718 11.6357L73.2353 15.9437L72.5981 15.4589L75.701 7.35547L76.3105 7.8403L73.457 15.0018L79.8012 10.5553L80.3137 10.957L77.5433 18.1877L83.8044 13.672L84.3446 14.2122Z" fill="white"/>
<path d="M83.5967 25.4184L83.1396 25.7924L79.7458 21.7061L86.1178 16.4008L89.4561 20.4178L88.999 20.7918L86.1316 17.3427L83.846 19.2543L86.4364 22.3571L86.0069 22.7173L83.4166 19.6006L80.6462 21.8861L83.5967 25.4184Z" fill="white"/>
<path d="M89.6775 32.7737L87.9876 29.2692L85.4942 29.4769L85.1479 28.7567L94.0409 28.1333L94.3457 28.7705L88.2785 35.3086L87.9322 34.5883L89.6775 32.7737ZM90.0654 32.3443L93.4868 28.7982L88.5694 29.2138L90.0654 32.3443Z" fill="white"/>
<path d="M93.9859 39.4089C93.4732 39.1481 93.0847 38.6949 92.9055 38.1483L89.8719 40.9187L89.6503 40.1984L92.6838 37.428L92.1851 35.7104L88.6668 36.7216L88.459 36.0151L96.4239 33.7157L97.1719 36.306C97.4195 36.9479 97.4195 37.6589 97.1719 38.3007C97.0134 38.5807 96.7965 38.8233 96.536 39.0121C96.2755 39.2009 95.9774 39.3315 95.662 39.395C95.123 39.6 94.5283 39.6049 93.9859 39.4089ZM92.7115 35.5996L93.2102 37.3172C93.2977 37.869 93.5956 38.3655 94.0413 38.7024C94.2527 38.8141 94.4851 38.8804 94.7237 38.8971C94.9622 38.9138 95.2016 38.8805 95.4265 38.7994C95.662 38.7488 95.8839 38.6485 96.0774 38.5051C96.2709 38.3618 96.4315 38.1787 96.5485 37.9683C96.7389 37.4639 96.7389 36.9074 96.5485 36.403L96.0499 34.6854L92.7115 35.5996Z" fill="white"/>
<path d="M91.3676 47.6923L90.7859 47.7616L90.1487 42.484L98.3767 41.5005L99.0001 46.6811H98.4183L97.8781 42.2208L94.9276 42.5809L95.4124 46.598L94.8583 46.6673L94.3735 42.6502L90.8274 43.0657L91.3676 47.6923Z" fill="white"/>
<path d="M98.1273 59.6465L89.9131 58.5106L90.0101 57.7903L93.9717 58.3305L94.6228 53.6347L90.6611 53.0945L90.7581 52.3604L98.9723 53.4962L98.8753 54.2304L95.2184 53.7178L94.5673 58.4137L98.2243 58.9123L98.1273 59.6465Z" fill="white"/>
<path d="M88.3062 65.6306L87.7383 65.4505L89.4005 60.3945L97.2823 62.9987L95.6339 67.9577L95.0798 67.7638L96.465 63.5112L93.6946 62.5831L92.4203 66.4201L91.8939 66.2539L93.1544 62.4031L89.7607 61.2811L88.3062 65.6306Z" fill="white"/>
<path d="M88.9297 72.792C88.7374 72.2486 88.7673 71.6513 89.0128 71.1298L84.8572 71.0605L85.2035 70.3818L89.2898 70.4926L90.1209 68.8996L86.8519 67.1958L87.1982 66.5448L94.5536 70.3679L93.3069 72.7643C93.0293 73.3793 92.5367 73.8719 91.9217 74.1495C91.6168 74.2408 91.2958 74.2658 90.9804 74.2228C90.6651 74.1798 90.3625 74.0698 90.0932 73.9002C89.5907 73.6738 89.1802 73.283 88.9297 72.792ZM90.6334 69.149L89.8023 70.7281C89.5132 71.1849 89.4045 71.7331 89.4976 72.2656C89.5718 72.4979 89.6957 72.7112 89.8608 72.8906C90.0258 73.0701 90.2281 73.2113 90.4534 73.3045C90.6591 73.4293 90.8891 73.5086 91.128 73.5373C91.3669 73.5659 91.6091 73.5433 91.8386 73.4708C92.3273 73.2463 92.7132 72.8456 92.919 72.3488L93.7501 70.7696L90.6334 69.149Z" fill="white"/>
<path d="M81.3112 77.0168L80.8264 76.6566L84.0124 72.3903L90.6475 77.3492L87.5308 81.5048L87.0598 81.1585L89.7332 77.557L87.3507 75.784L84.9405 79.0253L84.4833 78.6929L86.9074 75.4515L84.0401 73.3183L81.3112 77.0168Z" fill="white"/>
<path d="M63.0817 97.5872L62.3337 88.9435L63.0679 88.6526L67.7914 94.4843L67.1265 87.0043L67.8607 86.7134L73.4014 93.4316L72.6812 93.7225L67.9022 87.683L68.581 95.3847L67.9853 95.634L63.0956 89.6223L63.8713 97.2963L63.0817 97.5872Z" fill="white"/>
<path d="M53.7456 91.3261L53.6487 90.7443L58.8847 89.8578L60.2699 98.0304L55.117 98.9031L55.02 98.3213L59.4388 97.5733L58.9401 94.6367L54.9508 95.3155L54.8538 94.7614L58.857 94.0826L58.2475 90.5642L53.7456 91.3261Z" fill="white"/>
<path d="M44.34 92.8913L48.2186 93.1961L49.2852 90.9243H50.0747L46.1823 98.9446H45.4759L42.844 90.4257L43.6474 90.4949L44.34 92.8913ZM44.5062 93.4592L45.8914 98.1966L47.9969 93.7224L44.5062 93.4592Z" fill="white"/>
<path d="M36.3752 93.3208C36.8587 93.0081 37.446 92.8986 38.0097 93.016L37.1094 88.9851L37.8435 89.1652L38.7023 93.1545L40.4477 93.5978L41.3342 90.024L42.0407 90.2041L40.0598 98.2521L37.4418 97.601C36.7603 97.498 36.145 97.1357 35.7242 96.5898C35.5591 96.3156 35.4562 96.0085 35.4227 95.6902C35.3892 95.3719 35.4259 95.0501 35.5302 94.7475C35.6354 94.1874 35.9346 93.6822 36.3752 93.3208ZM40.323 94.1242L38.5777 93.6948C38.0789 93.5001 37.5251 93.5001 37.0262 93.6948C36.8202 93.8255 36.6436 93.9977 36.5076 94.2004C36.3717 94.4031 36.2794 94.6319 36.2367 94.8722C36.1647 95.101 36.1411 95.3424 36.1674 95.5808C36.1936 95.8193 36.2691 96.0497 36.389 96.2574C36.7347 96.6834 37.2304 96.961 37.7742 97.0331L39.5196 97.4625L40.323 94.1242Z" fill="white"/>
<path d="M30.5575 86.9903L30.793 86.4501L35.6827 88.5279L32.4275 96.1603L27.6208 94.1102L27.8564 93.5561L32.0119 95.3292L33.1755 92.5588L29.4493 90.9658L29.671 90.4533L33.3971 92.0463L34.7823 88.7633L30.5575 86.9903Z" fill="white"/>
<path d="M16.8162 86.741L21.9275 80.2167L22.4955 80.6738L20.0298 83.8182L23.7698 86.741L26.2355 83.5827L26.8173 84.0398L21.7059 90.5641L21.1241 90.1208L23.3958 87.2119L19.6697 84.2892L17.3979 87.1981L16.8162 86.741Z" fill="white"/>
<path d="M16.5809 75.2855L17.0242 74.8838L20.5703 78.8593L14.3784 84.4001L10.9016 80.5077L11.3449 80.106L14.3369 83.4582L16.5532 81.4773L13.8521 78.4576L14.2676 78.0836L17.038 81.1033L19.7115 78.7208L16.5809 75.2855Z" fill="white"/>
<path d="M10.0567 72.2242C10.3356 72.2754 10.6016 72.3813 10.8393 72.5359C11.0771 72.6904 11.2819 72.8905 11.4419 73.1246L13.5751 69.5785L13.9768 70.2157L11.8436 73.7064L12.8132 75.2163L15.9161 73.2493L16.3039 73.8588L9.37792 78.3329L7.99273 76.0612C7.57429 75.511 7.37667 74.8243 7.43866 74.1358C7.51071 73.8254 7.64803 73.534 7.84149 73.2808C8.03496 73.0276 8.28012 72.8186 8.56066 72.6675C8.99592 72.357 9.52252 72.2009 10.0567 72.2242ZM12.3561 75.521L11.4003 74.0111C11.1448 73.5351 10.727 73.1665 10.2229 72.9722C9.98264 72.9234 9.73473 72.9266 9.4958 72.9815C9.25687 73.0365 9.03247 73.1419 8.8377 73.2908C8.62407 73.4056 8.4379 73.5653 8.29202 73.759C8.14614 73.9528 8.04402 74.1758 7.99273 74.4128C7.94095 74.9479 8.09446 75.4827 8.42215 75.9088L9.37792 77.4049L12.3561 75.521Z" fill="white"/>
<path d="M10.209 63.539L10.7492 63.3035L12.8686 68.1932L5.24999 71.4761L3.18604 66.6833L3.72626 66.4479L5.49933 70.6035L8.26973 69.4261L6.66289 65.7137L7.17541 65.4921L8.78224 69.2044L12.0652 67.8192L10.209 63.539Z" fill="white"/>
<path d="M1.50986 37.4695L9.37777 41.1264L9.26695 41.916L1.85616 43.0934L8.67132 46.2516L8.5605 47.0273L0 48.4125L0.110818 47.6507L7.7294 46.5287L0.720287 43.2596L0.803417 42.6224L8.44969 41.3896L1.41289 38.2313L1.50986 37.4695Z" fill="white"/>
<path d="M11.594 32.5244L12.1481 32.7322L10.3058 37.7189L2.521 34.8516L4.3356 29.948L4.88969 30.1558L3.33826 34.3114L6.10865 35.3364L7.49385 31.541L8.02023 31.7349L6.63503 35.5303L9.9872 36.777L11.594 32.5244Z" fill="white"/>
<path d="M14.9603 23.576L12.744 26.7896L14.1292 28.8536L13.6721 29.5046L8.69922 22.1077L9.10092 21.5259L17.7861 23.5205L17.329 24.1855L14.9603 23.576ZM14.3924 23.4513L9.59959 22.26L12.37 26.3186L14.3924 23.4513Z" fill="white"/>
<path d="M18.5479 16.5254C18.5633 16.81 18.5223 17.0948 18.4272 17.3634C18.3321 17.632 18.1848 17.8792 17.9938 18.0907L21.9278 19.3374L21.4014 19.8776L17.5229 18.6171L16.2762 19.9192L18.9219 22.4679L18.4094 22.9943L12.4392 17.2457L14.2954 15.3065C14.7341 14.7724 15.3566 14.4216 16.0407 14.323C16.3596 14.3187 16.6757 14.3833 16.9674 14.5124C17.259 14.6415 17.5194 14.832 17.7306 15.071C18.1647 15.4453 18.4539 15.96 18.5479 16.5254ZM15.8745 19.5313L17.1212 18.2431C17.5296 17.8887 17.7913 17.3948 17.8553 16.8579C17.8447 16.6126 17.7825 16.3723 17.6727 16.1527C17.5629 15.9331 17.408 15.7391 17.2181 15.5835C17.0595 15.4032 16.863 15.2601 16.6428 15.1643C16.4225 15.0685 16.1838 15.0225 15.9438 15.0294C15.4019 15.098 14.9066 15.3704 14.5586 15.7913L13.3257 17.0795L15.8745 19.5313Z" fill="white"/>
<path d="M27.0532 14.6276L27.3995 15.0986L23.1469 18.2845L18.1741 11.6633L22.3297 8.51892L22.676 9.00373L19.0883 11.691L20.8752 14.0736L24.1166 11.6356L24.449 12.0789L21.2077 14.5168L23.3547 17.3703L27.0532 14.6276Z" fill="white"/>
<path d="M34.048 2.81189L37.1508 10.4997L36.4721 10.7768L34.9899 7.06445L30.5988 8.8375L32.1087 12.5498L31.4299 12.8269L28.3132 5.13903L28.992 4.862L30.3772 8.28341L34.7683 6.51036L33.3831 3.08892L34.048 2.81189Z" fill="white"/>
<path d="M44.0906 8.35278L44.2152 8.93456L39.0069 10.0012L37.3308 1.88392L42.456 0.831177L42.5669 1.41296L38.1758 2.31333L38.7714 5.23609L42.7469 4.41883L42.8577 4.95906L38.8822 5.77632L39.6025 9.28086L44.0906 8.35278Z" fill="white"/>
<path d="M49.9917 4.23867C49.8095 4.45644 49.5859 4.6359 49.3338 4.76668C49.0818 4.89745 48.8063 4.97694 48.5234 5.00053L50.5181 8.60205H49.7562L47.8169 5.0144L46.0162 5.08364L46.1685 8.75442H45.4344L45.0742 0.443243L47.7615 0.31856C48.4457 0.233196 49.1372 0.406073 49.7008 0.803387C49.9373 1.02038 50.1232 1.28672 50.2452 1.58355C50.3673 1.88039 50.4226 2.20045 50.4072 2.52104C50.4912 3.12555 50.3427 3.73938 49.9917 4.23867ZM45.9885 4.58497L47.7753 4.50186C48.3115 4.52264 48.8373 4.35065 49.2575 4.01705C49.4225 3.82976 49.5451 3.60901 49.6168 3.36992C49.6886 3.13083 49.7078 2.87905 49.6731 2.63186C49.6801 2.39103 49.6355 2.15149 49.5423 1.9293C49.4491 1.70712 49.3095 1.50742 49.1329 1.34361C48.6923 1.03827 48.1551 0.905182 47.623 0.969604L45.8361 1.03887L45.9885 4.58497Z" fill="white"/>
<path d="M57.4443 8.71293L57.375 9.30856L52.0974 8.68522L53.0532 0.457153L58.2477 1.0528V1.64842L53.7874 1.12204L53.4411 4.08636L57.4581 4.54348V5.09757L53.4272 4.62659L53.0255 8.18655L57.4443 8.71293Z" fill="white"/>
<path d="M4.76512 53.1638L7.17537 54.8538L6.80136 55.3801L5.27765 54.2858L6.24729 59.8266L5.6378 59.9374L4.66816 54.3966L3.60156 55.9481L3.0752 55.5741L4.76512 53.1638Z" fill="white"/>
<path d="M70.0219 9.01765L67.2515 9.91802L67.0576 9.30853L68.8445 8.74059L63.8855 6.19184L64.1625 5.65161L69.1354 8.20037L68.5536 6.41347L69.1631 6.21955L70.0219 9.01765Z" fill="white"/>
<path d="M76.0334 87.5306L76.1304 84.594H76.7676V86.464L80.8262 82.6547L81.2556 83.0979L77.1 86.9903H78.9839V87.6414L76.0334 87.5306Z" fill="white"/>
</g>
<defs>
<clipPath id="clip0_1892_21787">
<rect width="99" height="98.5706" fill="white" transform="translate(0 0.429443)"/>
</clipPath>
</defs>
</svg>
