<?xml version="1.0" standalone="no"?>
<!DOCTYPE svg PUBLIC "-//W3C//DTD SVG 1.1//EN" "http://www.w3.org/Graphics/SVG/1.1/DTD/svg11.dtd" >
<svg xmlns="http://www.w3.org/2000/svg" xmlns:xlink="http://www.w3.org/1999/xlink" version="1.1">
<metadata>
Created by FontForge 20170731 at Thu Nov 13 08:54:23 2014
 By Aleksey,,,
Copyright (c) 2014 Monotype Imaging Inc. All rights reserved.
</metadata>
<defs>
<font id="HelveticaLTPro-Light" horiz-adv-x="556" >
  <font-face 
    font-family="Helvetica LT Pro Light"
    font-weight="300"
    font-stretch="normal"
    units-per-em="1000"
    panose-1="2 11 3 3 2 2 2 2 2 4"
    ascent="718"
    descent="-282"
    x-height="518"
    cap-height="720"
    bbox="-164 -250 1000 979"
    underline-thickness="50"
    underline-position="-175"
    unicode-range="U+000D-FB04"
  />
<missing-glyph horiz-adv-x="485" 
d="M0 0v680h485v-680h-485zM47 632v-585h391v585h-391zM302 339q-22 -21 -30.5 -32t-11.5 -24t-3 -39v-22h-46v23q0 42 10 64.5t36 48.5q32 31 44.5 49t12.5 42q0 33 -21 56.5t-51 23.5q-33 0 -53 -24t-24 -66l-48 8q7 64 40 97t88 33q52 0 85 -34t33 -90q0 -33 -13.5 -58
t-47.5 -56zM263 111h-53v63h53v-63z" />
    <glyph glyph-name="IJ" unicode="IJ" horiz-adv-x="752" 
d="M105 0v720h68v-720h-68zM464 -19q-97 0 -143.5 58t-46.5 184v5h68v-27q0 -85 32 -121.5t98 -36.5q65 0 96 37.5t31 114.5v525h68v-528q0 -100 -50 -155.5t-153 -55.5z" />
    <glyph glyph-name="ij" unicode="ij" horiz-adv-x="422" 
d="M78 631v89h66v-89h-66zM141 0h-60v518h60v-518zM285 631v89h66v-89h-66zM348 -84q0 -49 -11 -75t-33 -35.5t-60 -9.5q-23 0 -39 4v53q16 -2 25 -2q32 0 45 16t13 52v599h60v-602z" />
    <glyph glyph-name="napostrophe" unicode="&#x22;n" 
d="M0 581v27q36 0 36 54h-36v58h68v-50q0 -44 -17.5 -66.5t-50.5 -22.5zM423 341q0 68 -31.5 102.5t-101.5 34.5q-68 0 -113 -48.5t-45 -133.5v-296h-60v518h60v-72q44 47 82.5 66.5t84.5 19.5q81 0 132.5 -44t51.5 -127v-361h-60v341z" />
    <glyph glyph-name="f_f" unicode="ff" horiz-adv-x="533" 
d="M257 730v-55q-16 5 -36 5q-33 0 -48.5 -20t-15.5 -67v-75h195v85q0 131 111 131q28 0 49 -4v-55q-16 5 -36 5q-33 0 -48.5 -20.5t-15.5 -64.5v-77h98v-50h-98v-468h-60v468h-195v-468h-60v468h-77v50h77v85q0 131 111 131q32 0 49 -4z" />
    <glyph glyph-name="fi" unicode="fi" horiz-adv-x="493" 
d="M257 730v-55q-16 5 -36 5q-33 0 -48.5 -20t-15.5 -68v-74h100v-50h-100v-468h-60v468h-77v50h77v86q0 130 111 130q26 0 49 -4zM349 631v89h66v-89h-66zM412 0h-60v518h60v-518z" />
    <glyph glyph-name="fl" unicode="fl" horiz-adv-x="493" 
d="M257 730v-55q-16 5 -36 5q-33 0 -48.5 -20t-15.5 -68v-74h100v-50h-100v-468h-60v468h-77v50h77v86q0 130 111 130q26 0 49 -4zM412 0h-60v720h60v-720z" />
    <glyph glyph-name="f_f_i" unicode="ffi" horiz-adv-x="746" 
d="M257 730v-55q-16 5 -36 5q-33 0 -48.5 -20t-15.5 -67v-75h195v85q0 131 111 131q28 0 49 -4v-55q-16 5 -36 5q-33 0 -48.5 -20.5t-15.5 -64.5v-77h98v-50h-98v-468h-60v468h-195v-468h-60v468h-77v50h77v85q0 131 111 131q32 0 49 -4zM602 631v89h66v-89h-66zM665 0h-60
v518h60v-518z" />
    <glyph glyph-name="f_f_l" unicode="ffl" horiz-adv-x="745" 
d="M257 730v-55q-16 5 -36 5q-33 0 -48.5 -20t-15.5 -67v-75h195v85q0 131 111 131q28 0 49 -4v-55q-16 5 -36 5q-33 0 -48.5 -20.5t-15.5 -64.5v-77h98v-50h-98v-468h-60v468h-195v-468h-60v468h-77v50h77v85q0 131 111 131q32 0 49 -4zM664 0h-60v720h60v-720z" />
    <glyph glyph-name=".notdef" horiz-adv-x="485" 
d="M0 0v680h485v-680h-485zM47 632v-585h391v585h-391zM302 339q-22 -21 -30.5 -32t-11.5 -24t-3 -39v-22h-46v23q0 42 10 64.5t36 48.5q32 31 44.5 49t12.5 42q0 33 -21 56.5t-51 23.5q-33 0 -53 -24t-24 -66l-48 8q7 64 40 97t88 33q52 0 85 -34t33 -90q0 -33 -13.5 -58
t-47.5 -56zM263 111h-53v63h53v-63z" />
    <glyph glyph-name=".null" horiz-adv-x="0" 
 />
    <glyph glyph-name="nonmarkingreturn" unicode="&#xd;" horiz-adv-x="278" 
 />
    <glyph glyph-name="space" unicode=" " horiz-adv-x="278" 
 />
    <glyph glyph-name="exclam" unicode="!" horiz-adv-x="333" 
d="M189 181h-45l-14 315v224h73v-224zM130 0v88h73v-88h-73z" />
    <glyph glyph-name="quotedbl" unicode="&#x22;" horiz-adv-x="278" 
d="M109 494h-52v226h52v-226zM220 494h-52v226h52v-226z" />
    <glyph glyph-name="numbersign" unicode="#" 
d="M235 486h136l31 212h59l-31 -212h100v-59h-108l-20 -140h102v-59h-111l-32 -228h-59l31 228h-137l-34 -228h-59l34 228h-110v59h119l21 140h-112v59h120l32 212h60zM343 287l20 140h-136l-22 -140h138z" />
    <glyph glyph-name="dollar" unicode="$" 
d="M302 705q87 0 139.5 -47t55.5 -129h-65q-1 54 -37 87.5t-93 34.5v-266l21 -5q79 -19 121.5 -48t58 -68t15.5 -95q0 -52 -28 -94t-77 -66.5t-111 -27.5v-76h-46v76q-103 6 -159 64t-60 158h65q2 -71 43.5 -117.5t109.5 -50.5v297l-12 3q-103 26 -145 70t-42 118
q0 51 25 92.5t70.5 65.5t104.5 24v61h46v-61zM120 526q0 -50 28 -80.5t107 -51.5v257q-56 0 -95.5 -35t-39.5 -90zM454 181q0 55 -30 87.5t-105 49.5l-17 4v-287q45 1 79.5 20.5t53.5 52.5t19 73z" />
    <glyph glyph-name="percent" unicode="%" horiz-adv-x="889" 
d="M219 -14l397 719h52l-397 -719h-52zM398 532q0 -44 -22.5 -82t-60.5 -60.5t-83 -22.5t-82.5 22.5t-60 60.5t-22.5 82q0 45 23 83t61 60.5t81 22.5q44 0 82.5 -22.5t61 -60.5t22.5 -83zM232 424q28 0 53.5 15t40.5 40t15 53q0 29 -15.5 54t-41 40t-53.5 15
q-43 0 -75 -32.5t-32 -76.5q0 -43 31.5 -75.5t76.5 -32.5zM822 165q0 -44 -22.5 -82t-60.5 -60.5t-83 -22.5t-82.5 22.5t-60 60.5t-22.5 82q0 45 23 83t61 60.5t81 22.5q44 0 82.5 -22.5t61 -60.5t22.5 -83zM656 57q28 0 53.5 15t40.5 40t15 53q0 29 -15.5 54t-41 40
t-53.5 15q-43 0 -75 -32.5t-32 -76.5q0 -43 31.5 -75.5t76.5 -32.5z" />
    <glyph glyph-name="ampersand" unicode="&#x26;" horiz-adv-x="667" 
d="M449 581q0 -55 -29 -95t-113 -86l181 -214q17 29 23.5 63t6.5 77h59q-4 -119 -50 -188l117 -138h-81l-70 85q-45 -54 -98 -79t-128 -25q-64 0 -115.5 27.5t-81 76t-29.5 110.5q0 70 44 126.5t128 96.5q-77 86 -77 161q0 63 45 102t117 39q43 0 77.5 -18.5t54 -50.5
t19.5 -70zM272 445q63 35 88.5 67t25.5 64q0 38 -26.5 64t-67.5 26q-39 0 -67 -24.5t-28 -61.5q0 -45 75 -135zM271 35q104 0 183 96l-205 244q-66 -33 -103 -82t-37 -103q0 -68 45 -111.5t117 -43.5z" />
    <glyph glyph-name="quotesingle" unicode="'" horiz-adv-x="222" 
d="M137 494h-52v226h52v-226z" />
    <glyph glyph-name="parenleft" unicode="(" horiz-adv-x="333" 
d="M124 271q0 -115 39 -233t114 -229h-51q-97 134 -134 238t-37 229t40.5 234.5t130.5 228.5h51q-76 -110 -114.5 -229t-38.5 -239z" />
    <glyph glyph-name="parenright" unicode=")" horiz-adv-x="333" 
d="M209 277q0 115 -39 233t-114 229h51q97 -134 134 -238t37 -229t-40.5 -234.5t-130.5 -228.5h-51q76 110 114.5 229t38.5 239z" />
    <glyph glyph-name="asterisk" unicode="*" horiz-adv-x="389" 
d="M215 603l114 42l15 -44l-114 -37l75 -106l-39 -24l-74 108l-78 -106l-35 27l77 101l-112 40l18 42l111 -43v117h42v-117z" />
    <glyph glyph-name="plus" unicode="+" horiz-adv-x="660" 
d="M580 280v-60h-220v-220h-60v220h-220v60h220v220h60v-220h220z" />
    <glyph glyph-name="comma" unicode="," horiz-adv-x="278" 
d="M102 -137v37q34 21 34 62v38h-34v88h73v-121q0 -37 -19 -65t-54 -39z" />
    <glyph glyph-name="hyphen" unicode="-" horiz-adv-x="333" 
d="M40 229v62h253v-62h-253z" />
    <glyph glyph-name="period" unicode="." horiz-adv-x="278" 
d="M102 0v88h73v-88h-73z" />
    <glyph glyph-name="slash" unicode="/" horiz-adv-x="278" 
d="M53 -90h-56l235 829h56z" />
    <glyph glyph-name="zero" unicode="0" 
d="M278 -14q-122 0 -180.5 87t-58.5 274q0 186 59 272t180 86q120 0 179 -88.5t59 -276.5q0 -182 -58.5 -268t-179.5 -86zM452 347q0 157 -43 230.5t-134 73.5q-85 0 -128.5 -78t-43.5 -234t42.5 -227.5t132.5 -71.5q88 0 131 74t43 233z" />
    <glyph glyph-name="one" unicode="1" 
d="M302 0v524h-182v42q69 4 107.5 17t58 41.5t29.5 80.5h51v-705h-64z" />
    <glyph glyph-name="two" unicode="2" 
d="M283 243q-78 -43 -121 -87.5t-46 -101.5h393v-54h-461v19q0 70 36 125.5t93.5 98.5t149.5 96q60 35 89 74t29 93q0 65 -43 105t-112 40q-42 0 -77 -22.5t-55.5 -61.5t-20.5 -85v-8h-68q1 71 30 123t80.5 80t118.5 28q65 0 114.5 -24.5t76 -69t26.5 -101.5
q0 -63 -27.5 -108t-75 -80t-129.5 -79z" />
    <glyph glyph-name="three" unicode="3" 
d="M387 374q60 -19 92.5 -63.5t32.5 -110.5q0 -62 -29.5 -111t-82 -76t-117.5 -27q-86 0 -138 23t-78 70t-33 125h64q0 -77 46.5 -120.5t128.5 -43.5q48 0 88 21t63.5 56.5t23.5 75.5q0 69 -47 108.5t-143 39.5l-37 -1v52h15q94 0 140.5 33t46.5 102q0 58 -40 91t-110 33
q-67 0 -108.5 -42t-42.5 -109h-64q0 44 19.5 90.5t68.5 80.5t129 34q102 0 157 -46t55 -128q0 -114 -100 -157z" />
    <glyph glyph-name="four" unicode="4" 
d="M422 228h98v-54h-98v-174h-64v174h-322v55l328 469h58v-470zM358 228v374l-259 -374h259z" />
    <glyph glyph-name="five" unicode="5" 
d="M172 644l-44 -237q41 27 74 36.5t81 9.5q65 0 115.5 -28.5t79 -81.5t28.5 -123q0 -68 -29.5 -121.5t-80.5 -83t-114 -29.5q-114 0 -177 50.5t-70 146.5h64q10 -69 55.5 -106t118.5 -37q50 0 88.5 23.5t59.5 64.5t21 92q0 80 -48 129.5t-127 49.5q-97 0 -153 -73l-53 7
l58 365h349v-54h-296z" />
    <glyph glyph-name="six" unicode="6" 
d="M303 651q-57 0 -98 -26.5t-67 -97t-33 -195.5q41 59 84 84.5t101 25.5q105 0 164.5 -60.5t59.5 -166.5q0 -108 -60 -168.5t-166 -60.5q-122 0 -184.5 86t-62.5 251q0 179 66 280.5t190 101.5q86 0 141 -45.5t65 -127.5h-66q-11 58 -46.5 88.5t-87.5 30.5zM450 217
q0 83 -40 127t-122 44q-46 0 -82 -22.5t-56.5 -62.5t-20.5 -90q0 -76 43 -124.5t117 -48.5q76 0 118.5 48.5t42.5 128.5z" />
    <glyph glyph-name="seven" unicode="7" 
d="M222 0h-70q6 93 44.5 206t100 225t134.5 203h-372v64h449v-60q-81 -91 -144 -204t-99.5 -226.5t-42.5 -207.5z" />
    <glyph glyph-name="eight" unicode="8" 
d="M387 375q59 -21 92 -68t33 -107q0 -68 -31 -116.5t-84 -73t-119 -24.5q-71 0 -124 27t-81.5 74.5t-28.5 106.5q0 64 31.5 112.5t91.5 72.5q-54 32 -76 64.5t-22 89.5q0 48 26 87t72 62t103 23q96 0 154.5 -47t58.5 -125q0 -56 -23 -95t-73 -63zM419 538q0 55 -35.5 84
t-108.5 29q-64 0 -103 -34.5t-39 -92.5t41.5 -91.5t108.5 -33.5q66 0 101 36t35 103zM448 198q0 69 -46 108t-124 39q-79 0 -124.5 -39.5t-45.5 -111.5q0 -68 49 -111t126 -43q46 0 84 20t59.5 56t21.5 82z" />
    <glyph glyph-name="nine" unicode="9" 
d="M258 -14q-89 0 -143 44t-62 125h65q23 -115 137 -115q92 0 140.5 75.5t55.5 237.5l-2 2q-67 -110 -190 -110q-66 0 -115 28.5t-76 79.5t-27 119q0 109 60.5 171t166.5 62q247 0 247 -356q0 -111 -31 -193t-89 -126t-137 -44zM426 474q0 82 -44.5 129.5t-114.5 47.5
q-74 0 -118 -46.5t-44 -134.5q0 -81 43.5 -126t119.5 -45q70 0 114 49.5t44 125.5z" />
    <glyph glyph-name="colon" unicode=":" horiz-adv-x="278" 
d="M102 404v88h73v-88h-73zM102 0v88h73v-88h-73z" />
    <glyph glyph-name="semicolon" unicode=";" horiz-adv-x="278" 
d="M102 404v88h73v-88h-73zM102 -137v37q34 21 34 61v39h-34v88h73v-121q0 -37 -19 -64.5t-54 -39.5z" />
    <glyph glyph-name="less" unicode="&#x3c;" horiz-adv-x="660" 
d="M580 58v-64l-500 235v53l500 223v-64l-421 -186z" />
    <glyph glyph-name="equal" unicode="=" horiz-adv-x="660" 
d="M80 318v60h500v-60h-500zM80 124v60h500v-60h-500z" />
    <glyph glyph-name="greater" unicode="&#x3e;" horiz-adv-x="660" 
d="M80 -6v64l421 197l-421 186v64l500 -223v-53z" />
    <glyph glyph-name="question" unicode="?" horiz-adv-x="500" 
d="M387 399q-57 -51 -79.5 -80t-28 -54.5t-5.5 -78.5v-4h-58v13q0 58 8 89q8 32 27.5 60t68.5 72q44 40 66 73t22 67q0 57 -43 93t-112 36t-111.5 -45t-42.5 -119v-5h-61q-1 6 -1 20q1 60 29.5 106t77.5 71.5t110 25.5q100 0 159 -51t59 -137q0 -42 -21 -77.5t-64 -74.5z
M210 0v88h73v-88h-73z" />
    <glyph glyph-name="at" unicode="@" horiz-adv-x="800" 
d="M684 218q-37 -43 -77.5 -65t-79.5 -22q-30 0 -54 14t-32 38q-23 -23 -55 -36.5t-64 -13.5q-61 0 -100 42.5t-39 108.5q0 51 18 104.5t54 100.5q36 48 81.5 72.5t94.5 24.5q38 0 69 -19t43 -47l15 46h67l-101 -302q-12 -35 -12 -52q0 -29 29 -29q39 0 76 37.5t60 94.5
t23 111q0 77 -37.5 137t-102 93t-143.5 33q-89 0 -161.5 -44.5t-114 -121t-41.5 -167.5t43 -165.5t116.5 -117t159.5 -42.5q78 0 149 35.5t116 100.5h59q-46 -85 -135 -135.5t-189 -50.5q-103 0 -190 50t-138 137.5t-51 194.5q0 100 50 186.5t136 138t189 51.5
q96 0 174.5 -41t124.5 -113t46 -162q0 -54 -19.5 -107.5t-56.5 -97.5zM449 284q26 44 39.5 88.5t13.5 81.5q0 31 -20 52t-50 21q-46 0 -86 -38t-63.5 -94t-23.5 -106q0 -40 21.5 -66.5t56.5 -26.5q29 0 57.5 22t54.5 66z" />
    <glyph glyph-name="A" unicode="A" horiz-adv-x="667" 
d="M581 0l-83 226h-328l-85 -226h-70l283 720h77l276 -720h-70zM334 662l-141 -378h282z" />
    <glyph glyph-name="B" unicode="B" horiz-adv-x="667" 
d="M577 539q0 -63 -29.5 -103.5t-85.5 -51.5v-2q71 -11 109.5 -58t38.5 -121q0 -101 -59 -152t-171 -51h-299v720h265q111 0 171 -46t60 -135zM509 539q0 68 -45.5 95.5t-150.5 27.5h-164v-260h177q91 0 137 32t46 105zM542 203q0 76 -47 108.5t-159 32.5h-187v-286h181
q84 0 129.5 14t64 45t18.5 86z" />
    <glyph glyph-name="C" unicode="C" horiz-adv-x="722" 
d="M662 511h-70q-19 86 -73.5 128t-152.5 42q-76 0 -133 -39.5t-87 -111.5t-30 -168q0 -154 65.5 -238.5t189.5 -84.5q85 0 144.5 51t83.5 147h71q-29 -126 -108 -191t-204 -65q-99 0 -168.5 46t-105.5 131t-36 202q0 185 86.5 282t248.5 97q115 0 188.5 -59.5t90.5 -168.5z
" />
    <glyph glyph-name="D" unicode="D" horiz-adv-x="722" 
d="M595 620q74 -101 74 -259q0 -170 -80 -265.5t-246 -95.5h-262v720h266q175 0 248 -100zM601 361q0 146 -62 223.5t-199 77.5h-191v-604h177q145 0 210 76.5t65 226.5z" />
    <glyph glyph-name="E" unicode="E" horiz-adv-x="611" 
d="M149 662v-260h371v-58h-371v-286h421v-58h-489v720h479v-58h-411z" />
    <glyph glyph-name="F" unicode="F" 
d="M142 662v-260h360v-58h-360v-344h-68v720h464v-58h-396z" />
    <glyph glyph-name="G" unicode="G" horiz-adv-x="778" 
d="M687 511h-70q-18 78 -80.5 124t-145.5 46q-131 0 -200.5 -88t-69.5 -255q0 -85 33 -153t92 -107t136 -39q70 0 126 30.5t89 92.5t33 152h-243v58h308v-372h-58v123q-43 -74 -107.5 -108t-160.5 -34q-97 0 -168 45.5t-109.5 131.5t-38.5 205q0 116 40 200.5t115 130
t178 45.5q121 0 200 -59.5t101 -168.5z" />
    <glyph glyph-name="H" unicode="H" horiz-adv-x="722" 
d="M574 411v309h68v-720h-68v353h-426v-353h-68v720h68v-309h426z" />
    <glyph glyph-name="I" unicode="I" horiz-adv-x="278" 
d="M105 0v720h68v-720h-68z" />
    <glyph glyph-name="J" unicode="J" horiz-adv-x="500" 
d="M212 -19q-97 0 -143.5 58t-46.5 184v5h68v-27q0 -85 32 -121.5t98 -36.5q65 0 96 37.5t31 114.5v525h68v-528q0 -100 -50 -155.5t-153 -55.5z" />
    <glyph glyph-name="K" unicode="K" horiz-adv-x="667" 
d="M522 720h77l-284 -287l334 -433h-83l-300 391l-113 -113v-278h-68v720h68v-373z" />
    <glyph glyph-name="L" unicode="L" 
d="M535 58v-58h-454v720h68v-662h386z" />
    <glyph glyph-name="M" unicode="M" horiz-adv-x="833" 
d="M420 85l232 635h103v-720h-68v642h-2l-236 -642h-64l-237 642h-2v-642h-68v720h104l236 -635h2z" />
    <glyph glyph-name="N" unicode="N" horiz-adv-x="722" 
d="M574 91v629h68v-720h-79l-414 628h-2v-628h-68v720h77l416 -629h2z" />
    <glyph glyph-name="O" unicode="O" horiz-adv-x="778" 
d="M724 359q0 -111 -41 -197t-117 -133.5t-178 -47.5t-177.5 47t-116.5 133t-41 200q0 111 41 196.5t116 133.5t174 48q105 0 181.5 -47.5t117.5 -133.5t41 -199zM389 39q84 0 144.5 40t91.5 112.5t31 167.5q0 98 -32.5 171t-93.5 112t-144 39q-81 0 -141 -41t-92 -114
t-32 -167q0 -97 32 -169.5t92.5 -111.5t143.5 -39z" />
    <glyph glyph-name="P" unicode="P" horiz-adv-x="611" 
d="M576 519q0 -98 -71 -149.5t-200 -51.5h-159v-318h-68v720h268q230 0 230 -201zM508 523q0 139 -181 139h-181v-286h162q108 0 154 34t46 113z" />
    <glyph glyph-name="Q" unicode="Q" horiz-adv-x="778" 
d="M719 359q0 -89 -27 -163.5t-81 -127.5l96 -74l-38 -46l-106 82q-75 -49 -180 -49q-102 0 -178 47.5t-116.5 133t-40.5 197.5q0 110 40 196t115 135t177 49q103 0 179.5 -45.5t118 -131.5t41.5 -203zM384 39q70 0 126 32l-82 63l36 47l97 -74q43 42 66.5 107t23.5 145
q0 100 -33 172.5t-93.5 111t-143.5 38.5q-81 0 -141 -41t-92 -114t-32 -167q0 -96 31.5 -168t92 -112t144.5 -40z" />
    <glyph glyph-name="R" unicode="R" horiz-adv-x="667" 
d="M607 531q0 -68 -28 -108.5t-89 -67.5q47 -17 69 -60t23 -134q2 -135 30 -154v-7h-75q-11 19 -17 63t-9 122q-2 58 -18 88.5t-46.5 42t-83.5 11.5h-215v-327h-68v720h288q239 0 239 -189zM539 528q0 66 -43.5 100t-127.5 34h-220v-277h215q82 0 129 37t47 106z" />
    <glyph glyph-name="S" unicode="S" horiz-adv-x="611" 
d="M304 681q-81 0 -129.5 -38.5t-48.5 -99.5q0 -47 27.5 -75t68.5 -42t114 -30l48 -11q98 -26 140.5 -70.5t42.5 -123.5q0 -99 -69 -154.5t-194 -55.5q-121 0 -191 62t-70 172h66q8 -87 60.5 -131.5t146.5 -44.5q87 0 135 40.5t48 108.5q0 57 -38.5 90.5t-133.5 54.5
q-94 21 -147 41.5t-86.5 60t-33.5 110.5q0 56 30.5 100t86 69t127.5 25q74 0 129 -27t84 -75.5t29 -112.5h-65q0 73 -48 115t-129 42z" />
    <glyph glyph-name="T" unicode="T" 
d="M312 662v-662h-68v662h-228v58h524v-58h-228z" />
    <glyph glyph-name="U" unicode="U" horiz-adv-x="722" 
d="M361 39q111 0 161 59t50 187v435h68v-454q0 -136 -70.5 -210.5t-208.5 -74.5q-137 0 -208 74t-71 212v453h68v-435q0 -127 50 -186.5t161 -59.5z" />
    <glyph glyph-name="V" unicode="V" horiz-adv-x="611" 
d="M522 720h71l-250 -720h-75l-250 720h71l217 -640z" />
    <glyph glyph-name="W" unicode="W" horiz-adv-x="889" 
d="M239 96l167 624h76l164 -624h2l157 624h70l-189 -720h-75l-167 636h-2l-167 -636h-75l-186 720h68l155 -624h2z" />
    <glyph glyph-name="X" unicode="X" horiz-adv-x="611" 
d="M502 720h79l-236 -350l247 -370h-78l-210 318l-209 -318h-77l248 370l-238 350h79l197 -303z" />
    <glyph glyph-name="Y" unicode="Y" horiz-adv-x="611" 
d="M519 720h79l-261 -406v-314h-68v309l-257 411h78l212 -347z" />
    <glyph glyph-name="Z" unicode="Z" horiz-adv-x="611" 
d="M115 58h464v-58h-548v57l461 605h-422v58h506v-57z" />
    <glyph glyph-name="bracketleft" unicode="[" horiz-adv-x="333" 
d="M155 689v-830h125v-50h-189v930h191v-50h-127z" />
    <glyph glyph-name="backslash" unicode="\" horiz-adv-x="278" 
d="M281 -90h-56l-235 829h56z" />
    <glyph glyph-name="bracketright" unicode="]" horiz-adv-x="333" 
d="M51 -191v50h127v830h-125v50h189v-930h-191z" />
    <glyph glyph-name="asciicircum" unicode="^" horiz-adv-x="660" 
d="M586 245h-57l-201 392l-197 -392h-58l230 453h52z" />
    <glyph glyph-name="underscore" unicode="_" horiz-adv-x="500" 
d="M0 -125v50h500v-50h-500z" />
    <glyph glyph-name="grave" unicode="`" horiz-adv-x="333" 
d="M183 574l-138 139h78l111 -139h-51z" />
    <glyph glyph-name="a" unicode="a" 
d="M471 375v-290q0 -22 6 -33t20 -11q19 0 37 8v-47q-32 -10 -50 -10q-38 0 -54.5 18.5t-17.5 61.5q-36 -42 -86 -64t-107 -22q-76 0 -124.5 40.5t-48.5 108.5q0 67 46.5 106t154.5 53l56 7q51 7 70.5 12t28.5 18t9 42q0 51 -33 78t-96 27q-72 0 -108 -28.5t-43 -88.5h-61
q6 82 61.5 126.5t151.5 44.5q93 0 140.5 -41.5t47.5 -115.5zM223 40q82 0 135 40.5t53 107.5v84q-25 -11 -56 -17t-100 -12q-73 -6 -109 -33t-36 -77q0 -42 31 -67.5t82 -25.5z" />
    <glyph glyph-name="b" unicode="b" horiz-adv-x="611" 
d="M139 435q29 46 78.5 71.5t107.5 25.5q71 0 123 -35t79.5 -97t27.5 -142q0 -130 -60.5 -201t-173.5 -71q-54 0 -104 28.5t-76 76.5h-2v-91h-60v720h60v-285zM314 40q82 0 130 56t48 159q0 104 -48 163.5t-131 59.5q-49 0 -89 -28.5t-62.5 -78t-22.5 -110.5
q0 -100 48 -160.5t127 -60.5z" />
    <glyph glyph-name="c" unicode="c" 
d="M500 355h-61q-16 59 -55 91t-99 32q-80 0 -127 -61.5t-47 -158.5t46 -157.5t128 -60.5q65 0 106 35.5t53 103.5h64q-17 -93 -74.5 -143t-148.5 -50q-113 0 -175.5 71.5t-62.5 200.5q0 78 30 140.5t84 98t124 35.5q92 0 146.5 -44.5t68.5 -132.5z" />
    <glyph glyph-name="d" unicode="d" horiz-adv-x="611" 
d="M532 0h-60v91h-2q-24 -47 -74.5 -76t-105.5 -29q-113 0 -173.5 70.5t-60.5 200.5q0 80 27.5 142.5t80 97.5t123.5 35q57 0 107.5 -26t77.5 -71v285h60v-720zM296 478q-79 0 -127.5 -58.5t-48.5 -163.5q0 -109 49.5 -162.5t127.5 -53.5q52 0 91.5 27.5t61.5 77.5t22 116
q0 61 -22 110.5t-62.5 78t-91.5 28.5z" />
    <glyph glyph-name="e" unicode="e" 
d="M511 245h-402q0 -94 47.5 -149.5t126.5 -55.5q60 0 102 32t55 87h67q-28 -89 -82.5 -131t-141.5 -42q-114 0 -176 72t-62 198q0 79 30.5 142t84.5 98.5t123 35.5q108 0 168 -74.5t60 -212.5zM282 478q-69 0 -115 -48t-58 -135h338q-1 84 -45.5 133.5t-119.5 49.5z" />
    <glyph glyph-name="f" unicode="f" horiz-adv-x="278" 
d="M257 730v-55q-16 5 -36 5q-33 0 -48.5 -20t-15.5 -68v-74h100v-50h-100v-468h-60v468h-77v50h77v86q0 130 111 130q26 0 49 -4z" />
    <glyph glyph-name="g" unicode="g" horiz-adv-x="611" 
d="M532 518v-474q0 -256 -243 -256q-92 0 -152 41.5t-67 107.5h64q10 -47 47.5 -71t107.5 -24q93 0 138 52.5t45 165.5v23q-29 -46 -78.5 -71.5t-106.5 -25.5q-72 0 -124 34.5t-79.5 96.5t-27.5 143q0 131 61 201.5t173 70.5q55 0 105.5 -29t74.5 -76h2v91h60zM472 257
q0 100 -48 160.5t-128 60.5t-128 -55.5t-48 -160.5t47.5 -163.5t129.5 -58.5q51 0 90.5 28.5t62 78t22.5 110.5z" />
    <glyph glyph-name="h" unicode="h" 
d="M132 446q44 47 82.5 66.5t84.5 19.5q84 0 134 -46t50 -130v-356h-60v342q0 66 -31.5 101t-101.5 35q-69 0 -113.5 -47.5t-44.5 -134.5v-296h-60v720h60v-274z" />
    <glyph glyph-name="i" unicode="i" horiz-adv-x="222" 
d="M78 631v89h66v-89h-66zM141 0h-60v518h60v-518z" />
    <glyph glyph-name="j" unicode="j" horiz-adv-x="222" 
d="M85 631v89h66v-89h-66zM148 -84q0 -49 -11 -75t-33 -35.5t-60 -9.5q-23 0 -39 4v53q16 -2 25 -2q32 0 45 16t13 52v599h60v-602z" />
    <glyph glyph-name="k" unicode="k" horiz-adv-x="500" 
d="M128 272l254 246h82l-194 -187l217 -331h-67l-194 289l-98 -93v-196h-60v720h60v-448z" />
    <glyph glyph-name="l" unicode="l" horiz-adv-x="222" 
d="M141 0h-60v720h60v-720z" />
    <glyph glyph-name="m" unicode="m" horiz-adv-x="833" 
d="M607 532q83 0 122 -47t39 -152v-333h-60v359q0 60 -26 89.5t-82 29.5q-68 0 -111 -47.5t-43 -153.5v-277h-60v362q0 59 -26.5 87.5t-83.5 28.5q-64 0 -108 -46.5t-44 -147.5v-284h-60v518h60v-78h2q24 44 66.5 68t94.5 24q57 0 94 -23.5t57 -76.5q26 50 69 75t100 25z
" />
    <glyph glyph-name="n" unicode="n" 
d="M423 341q0 68 -31.5 102.5t-101.5 34.5q-68 0 -113 -48.5t-45 -133.5v-296h-60v518h60v-72q44 47 82.5 66.5t84.5 19.5q81 0 132.5 -45t51.5 -126v-361h-60v341z" />
    <glyph glyph-name="o" unicode="o" 
d="M518 259q0 -81 -30 -143t-84 -96t-125 -34q-69 0 -123.5 32.5t-86 94t-31.5 146.5q0 81 28.5 142.5t83 96t128.5 34.5q112 0 176 -74t64 -199zM278 40q83 0 129.5 60t46.5 157q0 104 -45 162.5t-132 58.5q-81 0 -128 -59.5t-47 -159.5q0 -102 47 -160.5t129 -58.5z" />
    <glyph glyph-name="p" unicode="p" horiz-adv-x="611" 
d="M555 260q0 -80 -27.5 -142t-79.5 -97t-123 -35q-58 0 -107.5 25.5t-78.5 71.5v-287h-60v722h60v-91h2q26 48 76 76.5t104 28.5q113 0 173.5 -71t60.5 -201zM314 40q83 0 130 60t47 161q0 110 -49.5 163.5t-128.5 53.5q-52 0 -91 -27.5t-61 -77.5t-22 -116
q0 -62 22.5 -111.5t62 -77.5t90.5 -28z" />
    <glyph glyph-name="q" unicode="q" horiz-adv-x="611" 
d="M470 427h2v91h60v-722h-60v287q-29 -46 -78.5 -71.5t-106.5 -25.5q-72 0 -124 34.5t-79.5 96.5t-27.5 143q0 131 61 201.5t173 70.5q55 0 105.5 -29t74.5 -76zM296 478q-79 0 -127.5 -59t-48.5 -163q0 -110 50 -163t127 -53q79 0 127 60.5t48 160.5q0 61 -22 110.5
t-62.5 78t-91.5 28.5z" />
    <glyph glyph-name="r" unicode="r" horiz-adv-x="333" 
d="M135 257v-257h-60v518h60v-97h2q24 59 61.5 85t105.5 26h2v-65h-7q-164 0 -164 -210z" />
    <glyph glyph-name="s" unicode="s" horiz-adv-x="500" 
d="M440 369h-61q-14 109 -140 109q-56 0 -86.5 -24t-30.5 -65q0 -38 31 -59t94 -36q78 -18 121.5 -37t64.5 -47t21 -73q0 -70 -57 -110.5t-153 -40.5q-86 0 -139.5 47.5t-58.5 128.5h61q14 -64 50 -93t105 -29q59 0 93.5 26.5t34.5 70.5q0 23 -10 39t-43.5 31.5t-100.5 29.5
q-100 22 -139 56.5t-39 93.5q0 67 51.5 106t130.5 39q180 0 200 -163z" />
    <glyph glyph-name="t" unicode="t" horiz-adv-x="278" 
d="M153 518h97v-50h-97v-369q0 -27 7 -40t18 -16t30 -3q16 0 46 7v-49q-6 -1 -26 -6.5t-43 -5.5q-48 0 -70 25t-22 75v382h-73v50h73v144h60v-144z" />
    <glyph glyph-name="u" unicode="u" 
d="M132 174q0 -134 133 -134q72 0 115 53.5t43 144.5v280h60v-518h-60v72q-41 -47 -79 -66.5t-89 -19.5q-90 0 -136.5 48t-46.5 141v343h60v-344z" />
    <glyph glyph-name="v" unicode="v" horiz-adv-x="500" 
d="M418 518h65l-201 -518h-67l-198 518h65l168 -444z" />
    <glyph glyph-name="w" unicode="w" horiz-adv-x="722" 
d="M209 77l120 441h67l114 -437l136 437h61l-168 -518h-64l-113 435h-2l-115 -435h-72l-158 518h60z" />
    <glyph glyph-name="x" unicode="x" horiz-adv-x="500" 
d="M398 518h76l-187 -250l194 -268h-72l-157 224l-161 -224h-73l199 268l-183 250h74l143 -206z" />
    <glyph glyph-name="y" unicode="y" horiz-adv-x="500" 
d="M417 518h65l-213 -564q-36 -90 -67 -124t-75 -34q-29 0 -59 7v56q30 -6 50 -6q27 0 44.5 19t34.5 64l22 60l-201 522h67l166 -445z" />
    <glyph glyph-name="z" unicode="z" horiz-adv-x="500" 
d="M110 50h357v-50h-434v53l344 415h-321v50h398v-53z" />
    <glyph glyph-name="braceleft" unicode="{" horiz-adv-x="333" 
d="M191 620v-202q0 -69 -19.5 -100t-62.5 -43v-2q44 -10 63 -41t19 -89v-214q0 -46 20 -75t68 -43v-2h-8q-78 0 -111 32t-33 108v212q0 52 -20.5 78.5t-61.5 33.5v2q33 10 50.5 22.5t24.5 33.5t7 59v193q0 84 28.5 119t98.5 35h18q-81 -28 -81 -117z" />
    <glyph glyph-name="bar" unicode="|" horiz-adv-x="222" 
d="M141 -250h-60v1000h60v-1000z" />
    <glyph glyph-name="braceright" unicode="}" horiz-adv-x="333" 
d="M203 604v-213q0 -53 20 -78.5t62 -33.5v-2q-46 -13 -64 -35.5t-18 -74.5v-197q0 -86 -29 -120.5t-101 -34.5h-15q81 28 81 118v200q0 67 19.5 99.5t62.5 44.5v2q-43 9 -62.5 39t-19.5 91v215q0 46 -20.5 74.5t-67.5 42.5v2h7q78 0 111.5 -32t33.5 -107z" />
    <glyph glyph-name="asciitilde" unicode="~" horiz-adv-x="660" 
d="M440 196q-22 0 -52.5 10t-76.5 31q-36 16 -56 23.5t-34 7.5q-29 0 -54 -21.5t-54 -72.5l-33 47q35 55 68.5 79t72.5 24q21 0 50 -9.5t75 -30.5q36 -16 58 -24t37 -8q53 0 99 87l40 -34q-59 -109 -140 -109z" />
    <glyph glyph-name="uni00A0" unicode="&#xa0;" horiz-adv-x="278" 
 />
    <glyph glyph-name="exclamdown" unicode="&#xa1;" horiz-adv-x="333" 
d="M130 445v87h73v-87h-73zM203 37v-224h-73v224l14 315h45z" />
    <glyph glyph-name="cent" unicode="&#xa2;" 
d="M386 513q95 -42 112 -158h-61q-18 68 -70 101l-135 -409q30 -7 51 -7q65 0 106 35.5t53 103.5h64q-14 -89 -74 -141t-149 -52q-34 0 -68 8l-45 -135h-47l49 150q-61 29 -94 93t-33 156q0 83 29.5 145t83.5 95.5t125 33.5q31 0 59 -5l40 120h48zM282 478
q-80 0 -126.5 -61.5t-46.5 -158.5q0 -64 22 -115.5t60 -74.5l133 405q-15 5 -42 5z" />
    <glyph glyph-name="sterling" unicode="&#xa3;" 
d="M277 651q-70 0 -115 -36.5t-45 -95.5q0 -29 12.5 -57t34.5 -64l20 -33h166v-42h-151q11 -33 11 -68q0 -46 -23 -91.5t-73 -96.5l2 -2q25 13 46 20t44 7q31 0 53.5 -6t51.5 -17q23 -10 39.5 -14.5t37.5 -4.5q27 0 50 12t58 45l34 -51q-44 -41 -80 -55.5t-94 -14.5
q-13 0 -29 4.5t-41 14.5q-32 12 -56.5 18.5t-49.5 6.5q-22 0 -44.5 -7t-61.5 -26l-35 58q50 36 78 83t28 97q0 49 -21 88h-99v42h81l-11 20q-19 34 -30.5 64.5t-11.5 71.5q0 85 59.5 134.5t162.5 49.5q66 0 118 -25.5t81 -74.5t29 -117h-66q-3 78 -45.5 120.5t-114.5 42.5z
" />
    <glyph glyph-name="currency" unicode="&#xa4;" 
d="M481 451q25 -36 36.5 -73t11.5 -83q0 -40 -11.5 -72.5t-36.5 -70.5l43 -42l-52 -53l-44 43q-68 -50 -155 -50q-40 0 -75 12.5t-70 37.5l-44 -43l-52 53l43 42q-25 36 -36.5 71t-11.5 77q0 45 11 80t37 71l-43 43l52 53l44 -43q63 49 154 49q76 0 146 -49l44 43l52 -53z
M276 121q49 0 91 24.5t66.5 66t24.5 91.5q0 46 -23 87t-63.5 66t-90.5 25q-51 0 -92.5 -23t-65.5 -63t-24 -91q0 -54 25 -95.5t66 -64.5t86 -23z" />
    <glyph glyph-name="yen" unicode="&#xa5;" 
d="M244 319h-180v54h146l-206 325h76l198 -325l198 325h76l-206 -325h146v-54h-180l-2 -3v-95h182v-54h-182v-167h-64v167h-182v54h182v95z" />
    <glyph glyph-name="brokenbar" unicode="&#xa6;" horiz-adv-x="222" 
d="M141 325h-60v350h60v-350zM141 -175h-60v350h60v-350z" />
    <glyph glyph-name="section" unicode="&#xa7;" 
d="M278 685q-52 0 -82 -26t-30 -71q0 -37 32 -69t100 -69q74 -40 117 -70t68 -64t25 -76q0 -45 -25 -81.5t-85 -74.5q58 -49 58 -110q0 -71 -49 -113t-127 -42q-82 0 -131.5 47.5t-54.5 134.5h61q0 -63 32 -95.5t93 -32.5q49 0 80.5 26t31.5 68q0 35 -25 66t-86 69l-128 80
q-59 37 -82 72.5t-23 80.5t28.5 84t78.5 60q-29 32 -41 58t-12 57q0 42 22.5 75t63.5 51.5t95 18.5q82 0 127.5 -47t45.5 -132h-54q-2 64 -32 94.5t-92 30.5zM102 343q0 -30 20.5 -56.5t64.5 -54.5l178 -115q89 47 89 113q0 29 -18.5 53t-55.5 48l-190 116q-88 -37 -88 -104
z" />
    <glyph glyph-name="dieresis" unicode="&#xa8;" horiz-adv-x="333" 
d="M60 584v102h65v-102h-65zM219 584v102h65v-102h-65z" />
    <glyph glyph-name="copyright" unicode="&#xa9;" horiz-adv-x="800" 
d="M401 -19q-101 0 -188.5 50t-139.5 137.5t-52 192.5q0 100 50.5 187t137.5 139t192 52q101 0 188 -51t138.5 -138t51.5 -189q0 -100 -50 -187.5t-136.5 -140t-191.5 -52.5zM719 361q0 89 -40.5 164t-113.5 119.5t-165 44.5q-91 0 -163.5 -43.5t-114 -118.5t-41.5 -166
t41 -166.5t114 -119.5t165 -44q90 0 163 43.5t114 119t41 167.5zM416 537q-69 0 -109.5 -47t-40.5 -125q0 -49 19 -89.5t53.5 -63.5t79.5 -23q46 0 80.5 28.5t40.5 74.5h54q-7 -65 -57 -106t-118 -41q-61 0 -108.5 28.5t-74.5 78.5t-27 112q0 63 25.5 112.5t72.5 77
t109 27.5q70 0 119 -38.5t59 -104.5h-54q-10 46 -44 72.5t-79 26.5z" />
    <glyph glyph-name="ordfeminine" unicode="&#xaa;" horiz-adv-x="334" 
d="M301 444q11 0 24 5v-28q-17 -6 -34 -6q-27 0 -36 12.5t-10 35.5q-49 -52 -125 -52q-50 0 -81 24t-31 65q0 81 123 95q46 5 70 8.5t34 9.5q10 7 10 31q-3 65 -84 65q-89 0 -98 -73h-40q3 48 39.5 75.5t99.5 27.5q60 0 91 -25t31 -71v-169q0 -16 3.5 -23t13.5 -7zM245 533
v50q-24 -9 -45 -12t-65 -7q-88 -8 -88 -65q0 -25 21.5 -41.5t54.5 -16.5q53 0 87.5 25.5t34.5 66.5z" />
    <glyph glyph-name="guillemotleft" unicode="&#xab;" 
d="M155 259l104 -80v-62l-146 111v63l146 113v-63zM339 259l104 -80v-62l-146 111v63l146 113v-63z" />
    <glyph glyph-name="logicalnot" unicode="&#xac;" horiz-adv-x="660" 
d="M516 112v206h-436v60h500v-266h-64z" />
    <glyph glyph-name="uni00AD" unicode="&#xad;" horiz-adv-x="333" 
d="M40 229v62h253v-62h-253z" />
    <glyph glyph-name="registered" unicode="&#xae;" horiz-adv-x="800" 
d="M401 -19q-101 0 -188.5 50t-139.5 137t-52 193q0 102 51 189t138.5 138t190.5 51t190 -51.5t137.5 -138t50.5 -188.5q0 -103 -50.5 -190t-137 -138.5t-190.5 -51.5zM719 361q0 91 -41.5 166t-114 118.5t-163.5 43.5q-90 0 -163 -43.5t-114.5 -118.5t-41.5 -166
q0 -93 42 -168.5t115 -118.5t163 -43t162.5 43.5t114 119t41.5 167.5zM595 460q0 -111 -133 -116l128 -195h-62l-121 195h-95v-195h-52v423h189q73 0 109.5 -27t36.5 -85zM539 461q0 39 -25 56.5t-77 17.5h-125v-150h130q97 0 97 76z" />
    <glyph glyph-name="macroon" unicode="&#xaf;" horiz-adv-x="333" 
d="M23 612v45h296v-45h-296z" />
    <glyph glyph-name="degree" unicode="&#xb0;" horiz-adv-x="400" 
d="M200 405q-40 0 -74.5 20t-55 55t-20.5 77q0 40 20.5 74t55 54t74.5 20q39 0 74 -20t55.5 -54.5t20.5 -75.5q0 -40 -20 -74.5t-54.5 -55t-75.5 -20.5zM310 555q0 45 -33 77.5t-79 32.5q-43 0 -75.5 -32t-32.5 -76q0 -47 32.5 -79.5t77.5 -32.5q46 0 78 32.5t32 77.5z" />
    <glyph glyph-name="plusminus" unicode="&#xb1;" horiz-adv-x="660" 
d="M360 330h220v-60h-220v-170h-60v170h-220v60h220v170h60v-170zM80 0v60h500v-60h-500z" />
    <glyph glyph-name="twosuperior" unicode="&#xb2;" horiz-adv-x="333" 
d="M160 458q-47 -24 -73.5 -50.5t-27.5 -59.5h255v-32h-299q0 42 11 67t38 50q39 37 108 73q60 31 80.5 55t20.5 59q0 39 -28.5 63t-72.5 24q-42 0 -71 -30.5t-29 -72.5v-4h-44q0 62 40.5 100.5t108.5 38.5q65 0 103 -32.5t38 -84.5q0 -39 -18.5 -66.5t-50 -48t-89.5 -49.5z
" />
    <glyph glyph-name="threesuperior" unicode="&#xb3;" horiz-adv-x="333" 
d="M241 540q40 -11 60.5 -37.5t20.5 -66.5q0 -57 -42 -92.5t-108 -35.5q-81 0 -117.5 30t-43.5 100h42q0 -46 30.5 -72t83.5 -26q47 0 80 26.5t33 67.5t-32.5 64t-92.5 23l-22 -1v31q69 0 100 19.5t31 61.5q0 35 -26 55t-71 20q-43 0 -70.5 -24.5t-28.5 -66.5h-41
q0 56 38.5 89.5t102.5 33.5q65 0 101.5 -27t36.5 -77q0 -68 -65 -95z" />
    <glyph glyph-name="acute" unicode="&#xb4;" horiz-adv-x="333" 
d="M109 574l111 139h77l-137 -139h-51z" />
    <glyph glyph-name="mu" unicode="&#xb5;" 
d="M132 174q0 -64 32 -99t101 -35q72 0 115 54t43 138v286h60v-518h-60v72q-41 -47 -79 -66.5t-89 -19.5q-39 0 -71 9.5t-52 22.5v-222h-60v722h60v-344z" />
    <glyph glyph-name="paragraph" unicode="&#xb6;" horiz-adv-x="650" 
d="M446 -146v799h-128v-799h-60v482q-54 1 -98 28t-69 70.5t-25 91.5q0 92 59 143t160 51h221v-866h-60z" />
    <glyph glyph-name="periodcentered" unicode="&#xb7;" horiz-adv-x="278" 
d="M139 301q-20 0 -34.5 15t-14.5 34t15 33.5t34 14.5t33.5 -14.5t14.5 -33.5t-14 -34t-34 -15z" />
    <glyph glyph-name="cedilla" unicode="&#xb8;" horiz-adv-x="333" 
d="M142 -59q23 6 36 6q34 0 56.5 -19t22.5 -53q0 -37 -30.5 -59.5t-81.5 -22.5q-37 0 -91 19l15 30q5 -2 25 -8.5t39 -6.5q29 0 47.5 13t18.5 34q0 18 -14.5 28.5t-35.5 10.5q-18 0 -44 -8l-15 13l60 82h39z" />
    <glyph glyph-name="onesuperior" unicode="&#xb9;" horiz-adv-x="333" 
d="M205 316v314h-118v26h4q46 2 70.5 11.5t35.5 26t17 45.5h33v-423h-42z" />
    <glyph glyph-name="ordmasculine" unicode="&#xba;" horiz-adv-x="334" 
d="M168 411q-69 0 -113 44.5t-44 119.5q0 74 42.5 119t113.5 45q73 0 114.5 -45t41.5 -119q0 -73 -42.5 -118.5t-112.5 -45.5zM284 576q0 63 -30.5 98t-86.5 35q-53 0 -85 -37t-32 -97t31.5 -97t85.5 -37q53 0 85 37.5t32 97.5z" />
    <glyph glyph-name="guillemotright" unicode="&#xbb;" 
d="M113 117v63l104 82l-104 80v62l146 -111v-63zM297 117v63l104 82l-104 80v62l146 -111v-63z" />
    <glyph glyph-name="onequarter" unicode="&#xbc;" horiz-adv-x="834" 
d="M158 316v314h-118v26h4q46 2 70.5 11.5t35.5 26.5t17 45h33v-423h-42zM219 -14h-51l444 719h51zM731 137h63v-33h-63v-104h-42v104h-209v33l213 282h38v-282zM689 137v224l-168 -224h168z" />
    <glyph glyph-name="onehalf" unicode="&#xbd;" horiz-adv-x="834" 
d="M159 316v314h-118v26h4q46 2 70.5 11.5t35.5 26t17 45.5h33v-423h-42zM179 -14h-51l444 719h51zM636 143q-47 -24 -73.5 -50.5t-27.5 -59.5h255v-32h-299q0 42 11 67t38 50q39 37 108 73q60 31 80.5 55t20.5 59q0 39 -28.5 63t-72.5 24q-42 0 -71 -30.5t-29 -72.5v-4h-44
q0 62 40.5 100.5t108.5 38.5q65 0 103 -32.5t38 -84.5q0 -39 -18.5 -66.5t-50 -48t-89.5 -49.5z" />
    <glyph glyph-name="threequarters" unicode="&#xbe;" horiz-adv-x="834" 
d="M270 540q40 -11 60.5 -37.5t20.5 -66.5q0 -57 -42 -92.5t-108 -35.5q-81 0 -117.5 30t-43.5 100h42q0 -46 30.5 -72t83.5 -26q47 0 80 26.5t33 67.5t-32.5 64t-92.5 23l-22 -1v31q69 0 100 19.5t31 61.5q0 35 -26 55t-71 20q-43 0 -70.5 -24.5t-28.5 -66.5h-41
q0 56 38.5 89.5t102.5 33.5q65 0 101.5 -27t36.5 -77q0 -68 -65 -95zM259 -14h-51l444 719h51zM731 137h63v-33h-63v-104h-42v104h-209v33l213 282h38v-282zM689 137v224l-168 -224h168z" />
    <glyph glyph-name="questiondown" unicode="&#xbf;" horiz-adv-x="500" 
d="M290 532v-88h-73v88h73zM113 133q57 51 80.5 80.5t28 54.5t4.5 78v4h58v-13q0 -58 -8 -89q-8 -32 -27.5 -60t-68.5 -72q-44 -40 -66 -73t-22 -67q0 -57 43 -93t112 -36t111.5 45t42.5 119v5h61q1 -6 1 -20q-1 -60 -29.5 -106t-77.5 -71.5t-110 -25.5q-100 0 -159 51
t-59 137q0 42 21 77.5t64 74.5z" />
    <glyph glyph-name="Agrave" unicode="&#xc0;" horiz-adv-x="667" 
d="M581 0l-83 226h-328l-85 -226h-70l283 720h77l276 -720h-70zM334 662l-141 -378h282zM350 776l-138 139h78l111 -139h-51z" />
    <glyph glyph-name="Aacute" unicode="&#xc1;" horiz-adv-x="667" 
d="M581 0l-83 226h-328l-85 -226h-70l283 720h77l276 -720h-70zM334 662l-141 -378h282zM276 776l111 139h77l-137 -139h-51z" />
    <glyph glyph-name="Acircumflex" unicode="&#xc2;" horiz-adv-x="667" 
d="M581 0l-83 226h-328l-85 -226h-70l283 720h77l276 -720h-70zM334 662l-141 -378h282zM420 776l-82 102l-82 -102h-65l114 139h67l113 -139h-65z" />
    <glyph glyph-name="Atilde" unicode="&#xc3;" horiz-adv-x="667" 
d="M581 0l-83 226h-328l-85 -226h-70l283 720h77l276 -720h-70zM334 662l-141 -378h282zM414 792q-18 0 -36 6t-44 18q-21 10 -36.5 15.5t-29.5 5.5q-18 0 -29.5 -11.5t-19.5 -37.5h-36q6 47 31 72t59 25q16 0 33.5 -6t42.5 -18q18 -9 35 -15t30 -6q34 0 44 50h38
q-5 -45 -27.5 -71.5t-54.5 -26.5z" />
    <glyph glyph-name="Adieresis" unicode="&#xc4;" horiz-adv-x="667" 
d="M581 0l-83 226h-328l-85 -226h-70l283 720h77l276 -720h-70zM334 662l-141 -378h282zM227 786v102h65v-102h-65zM386 786v102h65v-102h-65z" />
    <glyph glyph-name="Aring" unicode="&#xc5;" horiz-adv-x="667" 
d="M581 0l-83 226h-328l-85 -226h-70l283 720h77l276 -720h-70zM334 662l-141 -378h282zM433 879q0 -40 -29 -69.5t-70 -29.5t-70.5 29.5t-29.5 69.5t30.5 70t69.5 30q40 0 69.5 -30t29.5 -70zM334 813q27 0 46.5 20t19.5 46q0 27 -20 47t-46 20q-27 0 -47 -20t-20 -47
q0 -26 20 -46t47 -20z" />
    <glyph glyph-name="AE" unicode="&#xc6;" horiz-adv-x="1000" 
d="M540 662v-260h371v-58h-371v-286h420v-58h-488v226h-303l-96 -226h-68l313 720h630v-58h-408zM472 284v378h-114l-161 -378h275z" />
    <glyph glyph-name="Ccedilla" unicode="&#xc7;" horiz-adv-x="722" 
d="M662 511h-70q-19 86 -73.5 128t-152.5 42q-78 0 -134.5 -39.5t-86 -111.5t-29.5 -168q0 -154 65.5 -238.5t189.5 -84.5q85 0 144.5 51t83.5 147h71q-29 -126 -106 -189.5t-194 -65.5l-33 -41q26 6 36 6q33 0 56 -18t23 -53q0 -38 -30.5 -60.5t-81.5 -22.5q-37 0 -91 19
l15 30q39 -15 64 -15q29 0 47.5 13t18.5 34q0 18 -14 28.5t-36 10.5q-17 0 -44 -8l-15 13l47 64q-137 10 -210.5 109.5t-73.5 268.5q0 185 86.5 282t248.5 97q115 0 188.5 -59.5t90.5 -168.5z" />
    <glyph glyph-name="Egrave" unicode="&#xc8;" horiz-adv-x="611" 
d="M149 662v-260h371v-58h-371v-286h421v-58h-489v720h479v-58h-411zM322 776l-138 139h78l111 -139h-51z" />
    <glyph glyph-name="Eacute" unicode="&#xc9;" horiz-adv-x="611" 
d="M149 662v-260h371v-58h-371v-286h421v-58h-489v720h479v-58h-411zM248 776l111 139h77l-137 -139h-51z" />
    <glyph glyph-name="Ecircumflex" unicode="&#xca;" horiz-adv-x="611" 
d="M149 662v-260h371v-58h-371v-286h421v-58h-489v720h479v-58h-411zM392 776l-82 102l-82 -102h-65l114 139h67l113 -139h-65z" />
    <glyph glyph-name="Edieresis" unicode="&#xcb;" horiz-adv-x="611" 
d="M149 662v-260h371v-58h-371v-286h421v-58h-489v720h479v-58h-411zM199 786v102h65v-102h-65zM358 786v102h65v-102h-65z" />
    <glyph glyph-name="Igrave" unicode="&#xcc;" horiz-adv-x="278" 
d="M105 0v720h68v-720h-68zM157 776l-138 139h78l111 -139h-51z" />
    <glyph glyph-name="Iacute" unicode="&#xcd;" horiz-adv-x="278" 
d="M105 0v720h68v-720h-68zM62 776l111 139h77l-137 -139h-51z" />
    <glyph glyph-name="Icircumflex" unicode="&#xce;" horiz-adv-x="278" 
d="M105 0v720h68v-720h-68zM206 776l-82 102l-82 -102h-65l114 139h67l113 -139h-65z" />
    <glyph glyph-name="Idieresis" unicode="&#xcf;" horiz-adv-x="278" 
d="M105 0v720h68v-720h-68zM25 786v102h65v-102h-65zM184 786v102h65v-102h-65z" />
    <glyph glyph-name="Eth" unicode="&#xd0;" horiz-adv-x="722" 
d="M81 353h-71v58h71v309h266q175 0 248 -100q74 -101 74 -259q0 -173 -80 -267t-246 -94h-262v353zM601 361q0 146 -62 223.5t-199 77.5h-191v-251h161v-58h-161v-295h177q145 0 210 75.5t65 227.5z" />
    <glyph glyph-name="Ntilde" unicode="&#xd1;" horiz-adv-x="722" 
d="M574 91v629h68v-720h-79l-414 628h-2v-628h-68v720h77l416 -629h2zM442 792q-18 0 -36 6t-44 18q-21 10 -36.5 15.5t-29.5 5.5q-18 0 -29.5 -11.5t-19.5 -37.5h-36q6 47 31 72t59 25q16 0 33.5 -6t42.5 -18q18 -9 35 -15t30 -6q34 0 44 50h38q-5 -45 -27.5 -71.5
t-54.5 -26.5z" />
    <glyph glyph-name="Ograve" unicode="&#xd2;" horiz-adv-x="778" 
d="M724 359q0 -111 -41 -197t-117 -133.5t-178 -47.5t-177.5 47t-116.5 133t-41 200q0 111 41 196.5t116 133.5t174 48q105 0 181.5 -47.5t117.5 -133.5t41 -199zM389 39q84 0 144.5 40t91.5 112.5t31 167.5q0 98 -32.5 171t-93.5 112t-144 39q-81 0 -141 -41t-92 -114
t-32 -167q0 -97 32 -169.5t92.5 -111.5t143.5 -39zM406 776l-138 139h78l111 -139h-51z" />
    <glyph glyph-name="Oacute" unicode="&#xd3;" horiz-adv-x="778" 
d="M724 359q0 -111 -41 -197t-117 -133.5t-178 -47.5t-177.5 47t-116.5 133t-41 200q0 111 41 196.5t116 133.5t174 48q105 0 181.5 -47.5t117.5 -133.5t41 -199zM389 39q84 0 144.5 40t91.5 112.5t31 167.5q0 98 -32.5 171t-93.5 112t-144 39q-81 0 -141 -41t-92 -114
t-32 -167q0 -97 32 -169.5t92.5 -111.5t143.5 -39zM332 776l111 139h77l-137 -139h-51z" />
    <glyph glyph-name="Ocircumflex" unicode="&#xd4;" horiz-adv-x="778" 
d="M724 359q0 -111 -41 -197t-117 -133.5t-178 -47.5t-177.5 47t-116.5 133t-41 200q0 111 41 196.5t116 133.5t174 48q105 0 181.5 -47.5t117.5 -133.5t41 -199zM389 39q84 0 144.5 40t91.5 112.5t31 167.5q0 98 -32.5 171t-93.5 112t-144 39q-81 0 -141 -41t-92 -114
t-32 -167q0 -97 32 -169.5t92.5 -111.5t143.5 -39zM476 776l-82 102l-82 -102h-65l114 139h67l113 -139h-65z" />
    <glyph glyph-name="Otilde" unicode="&#xd5;" horiz-adv-x="778" 
d="M724 359q0 -111 -41 -197t-117 -133.5t-178 -47.5t-177.5 47t-116.5 133t-41 200q0 111 41 196.5t116 133.5t174 48q105 0 181.5 -47.5t117.5 -133.5t41 -199zM389 39q84 0 144.5 40t91.5 112.5t31 167.5q0 98 -32.5 171t-93.5 112t-144 39q-81 0 -141 -41t-92 -114
t-32 -167q0 -97 32 -169.5t92.5 -111.5t143.5 -39zM470 792q-18 0 -36 6t-44 18q-21 10 -36.5 15.5t-29.5 5.5q-18 0 -29.5 -11.5t-19.5 -37.5h-36q6 47 31 72t59 25q16 0 33.5 -6t42.5 -18q18 -9 35 -15t30 -6q34 0 44 50h38q-5 -45 -27.5 -71.5t-54.5 -26.5z" />
    <glyph glyph-name="Odieresis" unicode="&#xd6;" horiz-adv-x="778" 
d="M724 359q0 -111 -41 -197t-117 -133.5t-178 -47.5t-177.5 47t-116.5 133t-41 200q0 111 41 196.5t116 133.5t174 48q105 0 181.5 -47.5t117.5 -133.5t41 -199zM389 39q84 0 144.5 40t91.5 112.5t31 167.5q0 98 -32.5 171t-93.5 112t-144 39q-81 0 -141 -41t-92 -114
t-32 -167q0 -97 32 -169.5t92.5 -111.5t143.5 -39zM283 786v102h65v-102h-65zM442 786v102h65v-102h-65z" />
    <glyph glyph-name="multiply" unicode="&#xd7;" horiz-adv-x="660" 
d="M367 253l210 -211l-37 -36l-210 210l-211 -210l-37 36l211 211l-211 211l37 36l211 -210l210 210l37 -36z" />
    <glyph glyph-name="Oslash" unicode="&#xd8;" horiz-adv-x="778" 
d="M649 612q34 -40 53 -107.5t19 -145.5q0 -111 -41 -197t-117 -133.5t-178 -47.5q-132 0 -219 79l-85 -97l-39 34l89 101q-81 99 -81 261q0 110 41 196t116.5 135t174.5 49q142 0 232 -87l83 95l39 -35zM174 147l398 457q-70 77 -189 77q-80 0 -140 -40.5t-92.5 -113.5
t-32.5 -168q0 -123 56 -212zM386 39q83 0 143.5 40t92 112.5t31.5 167.5q0 116 -49 201l-397 -453q32 -32 77.5 -50t101.5 -18z" />
    <glyph glyph-name="Ugrave" unicode="&#xd9;" horiz-adv-x="722" 
d="M361 39q111 0 161 59t50 187v435h68v-454q0 -136 -70.5 -210.5t-208.5 -74.5q-137 0 -208 74t-71 212v453h68v-435q0 -127 50 -186.5t161 -59.5zM378 776l-138 139h78l111 -139h-51z" />
    <glyph glyph-name="Uacute" unicode="&#xda;" horiz-adv-x="722" 
d="M361 39q111 0 161 59t50 187v435h68v-454q0 -136 -70.5 -210.5t-208.5 -74.5q-137 0 -208 74t-71 212v453h68v-435q0 -127 50 -186.5t161 -59.5zM304 776l111 139h77l-137 -139h-51z" />
    <glyph glyph-name="Ucircumflex" unicode="&#xdb;" horiz-adv-x="722" 
d="M361 39q111 0 161 59t50 187v435h68v-454q0 -136 -70.5 -210.5t-208.5 -74.5q-137 0 -208 74t-71 212v453h68v-435q0 -127 50 -186.5t161 -59.5zM448 776l-82 102l-82 -102h-65l114 139h67l113 -139h-65z" />
    <glyph glyph-name="Udieresis" unicode="&#xdc;" horiz-adv-x="722" 
d="M361 39q111 0 161 59t50 187v435h68v-454q0 -136 -70.5 -210.5t-208.5 -74.5q-137 0 -208 74t-71 212v453h68v-435q0 -127 50 -186.5t161 -59.5zM255 786v102h65v-102h-65zM414 786v102h65v-102h-65z" />
    <glyph glyph-name="Yacute" unicode="&#xdd;" horiz-adv-x="611" 
d="M519 720h79l-261 -406v-314h-68v309l-257 411h78l212 -347zM248 776l111 139h77l-137 -139h-51z" />
    <glyph glyph-name="Thorn" unicode="&#xde;" horiz-adv-x="611" 
d="M346 570q113 0 171.5 -50t58.5 -151q0 -98 -71 -149.5t-200 -51.5h-159v-168h-68v720h68v-150h200zM508 374q0 138 -183 138h-179v-286h162q108 0 154 34.5t46 113.5z" />
    <glyph glyph-name="germandbls" unicode="&#xdf;" horiz-adv-x="500" 
d="M432 548q0 -46 -21.5 -80.5t-62.5 -64.5q52 -18 81.5 -67.5t29.5 -111.5q0 -114 -55 -176t-155 -62q-25 0 -38 5v53q12 -3 37 -3q67 0 107 43t40 116q0 92 -43.5 133.5t-140.5 41.5v50q75 0 116 31t41 93q0 63 -32.5 97t-93.5 34q-46 0 -74 -11.5t-42 -41.5t-14 -84v-543
h-60v548q0 89 46.5 137.5t140.5 48.5q88 0 140.5 -50.5t52.5 -135.5z" />
    <glyph glyph-name="agrave" unicode="&#xe0;" 
d="M471 375v-290q0 -22 6 -33t20 -11q19 0 37 8v-47q-32 -10 -50 -10q-38 0 -54.5 18.5t-17.5 61.5q-36 -42 -86 -64t-107 -22q-76 0 -124.5 40.5t-48.5 108.5q0 67 46.5 106t154.5 53l56 7q51 7 70.5 12t28.5 18t9 42q0 51 -33 78t-96 27q-72 0 -108 -28.5t-43 -88.5h-61
q6 82 61.5 126.5t151.5 44.5q93 0 140.5 -41.5t47.5 -115.5zM223 40q82 0 135 40.5t53 107.5v84q-25 -11 -56 -17t-100 -12q-73 -6 -109 -33t-36 -77q0 -42 31 -67.5t82 -25.5zM295 574l-138 139h78l111 -139h-51z" />
    <glyph glyph-name="aacute" unicode="&#xe1;" 
d="M471 375v-290q0 -22 6 -33t20 -11q19 0 37 8v-47q-32 -10 -50 -10q-38 0 -54.5 18.5t-17.5 61.5q-36 -42 -86 -64t-107 -22q-76 0 -124.5 40.5t-48.5 108.5q0 67 46.5 106t154.5 53l56 7q51 7 70.5 12t28.5 18t9 42q0 51 -33 78t-96 27q-72 0 -108 -28.5t-43 -88.5h-61
q6 82 61.5 126.5t151.5 44.5q93 0 140.5 -41.5t47.5 -115.5zM223 40q82 0 135 40.5t53 107.5v84q-25 -11 -56 -17t-100 -12q-73 -6 -109 -33t-36 -77q0 -42 31 -67.5t82 -25.5zM221 574l111 139h77l-137 -139h-51z" />
    <glyph glyph-name="acircumflex" unicode="&#xe2;" 
d="M471 375v-290q0 -22 6 -33t20 -11q19 0 37 8v-47q-32 -10 -50 -10q-38 0 -54.5 18.5t-17.5 61.5q-36 -42 -86 -64t-107 -22q-76 0 -124.5 40.5t-48.5 108.5q0 67 46.5 106t154.5 53l56 7q51 7 70.5 12t28.5 18t9 42q0 51 -33 78t-96 27q-72 0 -108 -28.5t-43 -88.5h-61
q6 82 61.5 126.5t151.5 44.5q93 0 140.5 -41.5t47.5 -115.5zM223 40q82 0 135 40.5t53 107.5v84q-25 -11 -56 -17t-100 -12q-73 -6 -109 -33t-36 -77q0 -42 31 -67.5t82 -25.5zM365 574l-82 102l-82 -102h-65l114 139h67l113 -139h-65z" />
    <glyph glyph-name="atilde" unicode="&#xe3;" 
d="M471 375v-290q0 -22 6 -33t20 -11q19 0 37 8v-47q-32 -10 -50 -10q-38 0 -54.5 18.5t-17.5 61.5q-36 -42 -86 -64t-107 -22q-76 0 -124.5 40.5t-48.5 108.5q0 67 46.5 106t154.5 53l56 7q51 7 70.5 12t28.5 18t9 42q0 51 -33 78t-96 27q-72 0 -108 -28.5t-43 -88.5h-61
q6 82 61.5 126.5t151.5 44.5q93 0 140.5 -41.5t47.5 -115.5zM223 40q82 0 135 40.5t53 107.5v84q-25 -11 -56 -17t-100 -12q-73 -6 -109 -33t-36 -77q0 -42 31 -67.5t82 -25.5zM359 590q-18 0 -36 6t-44 18q-21 10 -36.5 15.5t-29.5 5.5q-18 0 -29.5 -11.5t-19.5 -37.5h-36
q6 47 31 72t59 25q16 0 33.5 -6t42.5 -18q18 -9 35 -15t30 -6q34 0 44 50h38q-5 -45 -27.5 -71.5t-54.5 -26.5z" />
    <glyph glyph-name="adieresis" unicode="&#xe4;" 
d="M471 375v-290q0 -22 6 -33t20 -11q19 0 37 8v-47q-32 -10 -50 -10q-38 0 -54.5 18.5t-17.5 61.5q-36 -42 -86 -64t-107 -22q-76 0 -124.5 40.5t-48.5 108.5q0 67 46.5 106t154.5 53l56 7q51 7 70.5 12t28.5 18t9 42q0 51 -33 78t-96 27q-72 0 -108 -28.5t-43 -88.5h-61
q6 82 61.5 126.5t151.5 44.5q93 0 140.5 -41.5t47.5 -115.5zM223 40q82 0 135 40.5t53 107.5v84q-25 -11 -56 -17t-100 -12q-73 -6 -109 -33t-36 -77q0 -42 31 -67.5t82 -25.5zM172 584v102h65v-102h-65zM331 584v102h65v-102h-65z" />
    <glyph glyph-name="aring" unicode="&#xe5;" 
d="M471 375v-290q0 -22 6 -33t20 -11q19 0 37 8v-47q-32 -10 -50 -10q-38 0 -54.5 18.5t-17.5 61.5q-36 -42 -86 -64t-107 -22q-76 0 -124.5 40.5t-48.5 108.5q0 67 46.5 106t154.5 53l56 7q51 7 70.5 12t28.5 18t9 42q0 51 -33 78t-96 27q-72 0 -108 -28.5t-43 -88.5h-61
q6 82 61.5 126.5t151.5 44.5q93 0 140.5 -41.5t47.5 -115.5zM223 40q82 0 135 40.5t53 107.5v84q-25 -11 -56 -17t-100 -12q-73 -6 -109 -33t-36 -77q0 -42 31 -67.5t82 -25.5zM378 677q0 -40 -29 -69.5t-70 -29.5t-70.5 29.5t-29.5 69.5q0 39 30 69.5t70 30.5t69.5 -30
t29.5 -70zM279 611q26 0 46 20t20 46q0 27 -20 47t-46 20q-27 0 -47 -20t-20 -47q0 -26 20 -46t47 -20z" />
    <glyph glyph-name="ae" unicode="&#xe6;" horiz-adv-x="889" 
d="M628 532q109 0 164 -69.5t55 -217.5h-390q1 -99 46 -152t126 -53q58 0 97 31.5t54 88.5h63q-20 -85 -76 -129.5t-143 -44.5q-67 0 -116 27.5t-84 86.5q-44 -62 -95.5 -88t-121.5 -26q-78 0 -123 38.5t-45 107.5q0 147 196 165q71 6 102.5 12.5t43.5 18.5t12 38
q0 43 -11.5 67t-38.5 34.5t-75 10.5q-133 0 -145 -114h-62q4 79 58 123.5t146 44.5q71 0 117.5 -22t63.5 -63q29 44 71 64.5t111 20.5zM624 478q-74 0 -119.5 -51t-47.5 -132h326q-1 84 -44 133.5t-115 49.5zM393 204v70q-19 -10 -50 -17t-88 -14q-12 -1 -38 -5
q-58 -9 -86 -31.5t-28 -65.5q0 -49 28.5 -75t79.5 -26q87 0 134.5 44t47.5 120z" />
    <glyph glyph-name="ccedilla" unicode="&#xe7;" 
d="M500 355h-61q-16 59 -55 91t-99 32q-80 0 -127 -61.5t-47 -158.5t46 -157.5t128 -60.5q65 0 106 35.5t53 103.5h64q-18 -93 -74 -142t-144 -51l-36 -45q26 6 36 6q31 0 55 -17.5t24 -51.5q0 -41 -30.5 -63t-81.5 -22q-37 0 -91 19l15 30q38 -15 64 -15q29 0 47.5 13
t18.5 34q0 18 -14 28.5t-36 10.5q-17 0 -44 -8l-15 13l52 71q-98 9 -152.5 80t-54.5 189q0 78 30 140.5t84 98t124 35.5q92 0 147 -44.5t68 -132.5z" />
    <glyph glyph-name="egrave" unicode="&#xe8;" 
d="M511 245h-402q0 -94 47.5 -149.5t126.5 -55.5q60 0 102 32t55 87h67q-28 -89 -82.5 -131t-141.5 -42q-114 0 -176 72t-62 198q0 79 30.5 142t84.5 98.5t123 35.5q108 0 168 -74.5t60 -212.5zM282 478q-69 0 -115 -48t-58 -135h338q-1 84 -45.5 133.5t-119.5 49.5z
M295 574l-138 139h78l111 -139h-51z" />
    <glyph glyph-name="eacute" unicode="&#xe9;" 
d="M511 245h-402q0 -94 47.5 -149.5t126.5 -55.5q60 0 102 32t55 87h67q-28 -89 -82.5 -131t-141.5 -42q-114 0 -176 72t-62 198q0 79 30.5 142t84.5 98.5t123 35.5q108 0 168 -74.5t60 -212.5zM282 478q-69 0 -115 -48t-58 -135h338q-1 84 -45.5 133.5t-119.5 49.5z
M221 574l111 139h77l-137 -139h-51z" />
    <glyph glyph-name="ecircumflex" unicode="&#xea;" 
d="M511 245h-402q0 -94 47.5 -149.5t126.5 -55.5q60 0 102 32t55 87h67q-28 -89 -82.5 -131t-141.5 -42q-114 0 -176 72t-62 198q0 79 30.5 142t84.5 98.5t123 35.5q108 0 168 -74.5t60 -212.5zM282 478q-69 0 -115 -48t-58 -135h338q-1 84 -45.5 133.5t-119.5 49.5z
M365 574l-82 102l-82 -102h-65l114 139h67l113 -139h-65z" />
    <glyph glyph-name="edieresis" unicode="&#xeb;" 
d="M511 245h-402q0 -94 47.5 -149.5t126.5 -55.5q60 0 102 32t55 87h67q-28 -89 -82.5 -131t-141.5 -42q-114 0 -176 72t-62 198q0 79 30.5 142t84.5 98.5t123 35.5q108 0 168 -74.5t60 -212.5zM282 478q-69 0 -115 -48t-58 -135h338q-1 84 -45.5 133.5t-119.5 49.5z
M172 584v102h65v-102h-65zM331 584v102h65v-102h-65z" />
    <glyph glyph-name="igrave" unicode="&#xec;" horiz-adv-x="222" 
d="M138 0h-60v518h60v-518zM129 574l-138 139h78l111 -139h-51z" />
    <glyph glyph-name="iacute" unicode="&#xed;" horiz-adv-x="222" 
d="M138 0h-60v518h60v-518zM34 574l111 139h77l-137 -139h-51z" />
    <glyph glyph-name="icircumflex" unicode="&#xee;" horiz-adv-x="222" 
d="M138 0h-60v518h60v-518zM178 574l-82 102l-82 -102h-65l114 139h67l113 -139h-65z" />
    <glyph glyph-name="idieresis" unicode="&#xef;" horiz-adv-x="222" 
d="M138 0h-60v518h60v-518zM-15 584v102h65v-102h-65zM144 584v102h65v-102h-65z" />
    <glyph glyph-name="eth" unicode="&#xf0;" 
d="M335 694l55 45l37 -25l-59 -48q74 -72 112 -177t38 -229q0 -81 -29.5 -143t-84 -96.5t-125.5 -34.5q-69 0 -123.5 32.5t-86 94t-31.5 145.5q0 80 28 142t82 97t127 35q53 0 82.5 -9.5t62.5 -36.5q-18 51 -39.5 86.5t-51.5 62.5l-61 -49l-38 24l65 52q-33 23 -80 44l41 33
q41 -18 79 -45zM278 40q82 0 129 60.5t47 156.5q0 104 -45.5 162.5t-131.5 58.5q-81 0 -128 -59.5t-47 -159.5q0 -102 47 -160.5t129 -58.5z" />
    <glyph glyph-name="ntilde" unicode="&#xf1;" 
d="M423 341q0 68 -31.5 102.5t-101.5 34.5q-68 0 -113 -48.5t-45 -133.5v-296h-60v518h60v-72q44 47 82.5 66.5t84.5 19.5q81 0 132.5 -45t51.5 -126v-361h-60v341zM359 590q-18 0 -36 6t-44 18q-21 10 -36.5 15.5t-29.5 5.5q-18 0 -29.5 -11.5t-19.5 -37.5h-36q6 47 31 72
t59 25q16 0 33.5 -6t42.5 -18q18 -9 35 -15t30 -6q34 0 44 50h38q-5 -45 -27.5 -71.5t-54.5 -26.5z" />
    <glyph glyph-name="ograve" unicode="&#xf2;" 
d="M518 259q0 -81 -30 -143t-84 -96t-125 -34q-69 0 -123.5 32.5t-86 94t-31.5 146.5q0 81 28.5 142.5t83 96t128.5 34.5q112 0 176 -74t64 -199zM278 40q83 0 129.5 60t46.5 157q0 104 -45 162.5t-132 58.5q-81 0 -128 -59.5t-47 -159.5q0 -102 47 -160.5t129 -58.5z
M295 574l-138 139h78l111 -139h-51z" />
    <glyph glyph-name="oacute" unicode="&#xf3;" 
d="M518 259q0 -81 -30 -143t-84 -96t-125 -34q-69 0 -123.5 32.5t-86 94t-31.5 146.5q0 81 28.5 142.5t83 96t128.5 34.5q112 0 176 -74t64 -199zM278 40q83 0 129.5 60t46.5 157q0 104 -45 162.5t-132 58.5q-81 0 -128 -59.5t-47 -159.5q0 -102 47 -160.5t129 -58.5z
M221 574l111 139h77l-137 -139h-51z" />
    <glyph glyph-name="ocircumflex" unicode="&#xf4;" 
d="M518 259q0 -81 -30 -143t-84 -96t-125 -34q-69 0 -123.5 32.5t-86 94t-31.5 146.5q0 81 28.5 142.5t83 96t128.5 34.5q112 0 176 -74t64 -199zM278 40q83 0 129.5 60t46.5 157q0 104 -45 162.5t-132 58.5q-81 0 -128 -59.5t-47 -159.5q0 -102 47 -160.5t129 -58.5z
M365 574l-82 102l-82 -102h-65l114 139h67l113 -139h-65z" />
    <glyph glyph-name="otilde" unicode="&#xf5;" 
d="M518 259q0 -81 -30 -143t-84 -96t-125 -34q-69 0 -123.5 32.5t-86 94t-31.5 146.5q0 81 28.5 142.5t83 96t128.5 34.5q112 0 176 -74t64 -199zM278 40q83 0 129.5 60t46.5 157q0 104 -45 162.5t-132 58.5q-81 0 -128 -59.5t-47 -159.5q0 -102 47 -160.5t129 -58.5z
M359 590q-18 0 -36 6t-44 18q-21 10 -36.5 15.5t-29.5 5.5q-18 0 -29.5 -11.5t-19.5 -37.5h-36q6 47 31 72t59 25q16 0 33.5 -6t42.5 -18q18 -9 35 -15t30 -6q34 0 44 50h38q-5 -45 -27.5 -71.5t-54.5 -26.5z" />
    <glyph glyph-name="odieresis" unicode="&#xf6;" 
d="M518 259q0 -81 -30 -143t-84 -96t-125 -34q-69 0 -123.5 32.5t-86 94t-31.5 146.5q0 81 28.5 142.5t83 96t128.5 34.5q112 0 176 -74t64 -199zM278 40q83 0 129.5 60t46.5 157q0 104 -45 162.5t-132 58.5q-81 0 -128 -59.5t-47 -159.5q0 -102 47 -160.5t129 -58.5z
M172 584v102h65v-102h-65zM331 584v102h65v-102h-65z" />
    <glyph glyph-name="divide" unicode="&#xf7;" horiz-adv-x="660" 
d="M294 412v88h73v-88h-73zM80 220v60h500v-60h-500zM294 0v88h73v-88h-73z" />
    <glyph glyph-name="oslash" unicode="&#xf8;" 
d="M466 445q27 -36 40.5 -84t13.5 -103q0 -83 -29 -144t-83 -94.5t-128 -33.5q-46 0 -87 14.5t-68 40.5l-54 -64l-36 29l58 68q-53 70 -53 184q0 82 29 144t83 96t128 34q93 0 154 -53l52 62l35 -31zM135 124l260 309q-19 22 -49.5 33.5t-66.5 11.5q-81 0 -128 -60t-47 -161
q0 -82 31 -133zM280 40q82 0 129 59t47 159q0 87 -31 139l-263 -312q20 -22 52 -33.5t66 -11.5z" />
    <glyph glyph-name="ugrave" unicode="&#xf9;" 
d="M132 174q0 -134 133 -134q72 0 115 53.5t43 144.5v280h60v-518h-60v72q-41 -47 -79 -66.5t-89 -19.5q-90 0 -136.5 48t-46.5 141v343h60v-344zM295 574l-138 139h78l111 -139h-51z" />
    <glyph glyph-name="uacute" unicode="&#xfa;" 
d="M132 174q0 -134 133 -134q72 0 115 53.5t43 144.5v280h60v-518h-60v72q-41 -47 -79 -66.5t-89 -19.5q-90 0 -136.5 48t-46.5 141v343h60v-344zM221 574l111 139h77l-137 -139h-51z" />
    <glyph glyph-name="ucircumflex" unicode="&#xfb;" 
d="M132 174q0 -134 133 -134q72 0 115 53.5t43 144.5v280h60v-518h-60v72q-41 -47 -79 -66.5t-89 -19.5q-90 0 -136.5 48t-46.5 141v343h60v-344zM365 574l-82 102l-82 -102h-65l114 139h67l113 -139h-65z" />
    <glyph glyph-name="udieresis" unicode="&#xfc;" 
d="M132 174q0 -134 133 -134q72 0 115 53.5t43 144.5v280h60v-518h-60v72q-41 -47 -79 -66.5t-89 -19.5q-90 0 -136.5 48t-46.5 141v343h60v-344zM172 584v102h65v-102h-65zM331 584v102h65v-102h-65z" />
    <glyph glyph-name="yacute" unicode="&#xfd;" horiz-adv-x="500" 
d="M417 518h65l-213 -564q-36 -90 -67 -124t-75 -34q-29 0 -59 7v56q30 -6 50 -6q27 0 44.5 19t34.5 64l22 60l-201 522h67l166 -445zM193 574l111 139h77l-137 -139h-51z" />
    <glyph glyph-name="thorn" unicode="&#xfe;" horiz-adv-x="611" 
d="M555 260q0 -80 -27.5 -142t-79.5 -97t-123 -35q-58 0 -107.5 25.5t-78.5 71.5v-287h-60v924h60v-293h2q26 48 76 76.5t104 28.5q113 0 173.5 -71t60.5 -201zM314 40q83 0 130 60t47 161q0 110 -49.5 163.5t-128.5 53.5q-52 0 -91 -27.5t-61 -77.5t-22 -116
q0 -62 22.5 -111.5t62 -77.5t90.5 -28z" />
    <glyph glyph-name="ydieresis" unicode="&#xff;" horiz-adv-x="500" 
d="M417 518h65l-213 -564q-36 -90 -67 -124t-75 -34q-29 0 -59 7v56q30 -6 50 -6q27 0 44.5 19t34.5 64l22 60l-201 522h67l166 -445zM144 584v102h65v-102h-65zM303 584v102h65v-102h-65z" />
    <glyph glyph-name="Amacron" unicode="&#x100;" horiz-adv-x="667" 
d="M581 0l-83 226h-328l-85 -226h-70l283 720h77l276 -720h-70zM334 662l-141 -378h282zM185 814v45h296v-45h-296z" />
    <glyph glyph-name="amacron" unicode="&#x101;" 
d="M471 375v-290q0 -22 6 -33t20 -11q19 0 37 8v-47q-32 -10 -50 -10q-38 0 -54.5 18.5t-17.5 61.5q-36 -42 -86 -64t-107 -22q-76 0 -124.5 40.5t-48.5 108.5q0 67 46.5 106t154.5 53l56 7q51 7 70.5 12t28.5 18t9 42q0 51 -33 78t-96 27q-72 0 -108 -28.5t-43 -88.5h-61
q6 82 61.5 126.5t151.5 44.5q93 0 140.5 -41.5t47.5 -115.5zM223 40q82 0 135 40.5t53 107.5v84q-25 -11 -56 -17t-100 -12q-73 -6 -109 -33t-36 -77q0 -42 31 -67.5t82 -25.5zM143 612v45h296v-45h-296z" />
    <glyph glyph-name="Abreve" unicode="&#x102;" horiz-adv-x="667" 
d="M581 0l-83 226h-328l-85 -226h-70l283 720h77l276 -720h-70zM334 662l-141 -378h282zM334 827q87 0 107 81h37q-6 -60 -45 -93t-104 -33q-60 0 -97 33.5t-42 92.5h39q9 -42 36 -61.5t69 -19.5z" />
    <glyph glyph-name="abreve" unicode="&#x103;" 
d="M471 375v-290q0 -22 6 -33t20 -11q19 0 37 8v-47q-32 -10 -50 -10q-38 0 -54.5 18.5t-17.5 61.5q-36 -42 -86 -64t-107 -22q-76 0 -124.5 40.5t-48.5 108.5q0 67 46.5 106t154.5 53l56 7q51 7 70.5 12t28.5 18t9 42q0 51 -33 78t-96 27q-72 0 -108 -28.5t-43 -88.5h-61
q6 82 61.5 126.5t151.5 44.5q93 0 140.5 -41.5t47.5 -115.5zM223 40q82 0 135 40.5t53 107.5v84q-25 -11 -56 -17t-100 -12q-73 -6 -109 -33t-36 -77q0 -42 31 -67.5t82 -25.5zM292 625q88 0 107 81h37q-6 -60 -45 -93t-104 -33q-60 0 -97 33.5t-42 92.5h39q9 -42 36 -61.5
t69 -19.5z" />
    <glyph glyph-name="Aogonek" unicode="&#x104;" horiz-adv-x="667" 
d="M633 0q-80 -41 -80 -87q0 -26 18.5 -41.5t48.5 -15.5q23 0 42 9v-44q-24 -9 -52 -9q-44 0 -73 24t-29 63q0 30 18.5 56.5t53.5 45.5l-82 225h-328l-85 -226h-70l283 720h77l276 -720h-18zM334 662l-141 -378h282z" />
    <glyph glyph-name="aogonek" unicode="&#x105;" 
d="M484 -8q-30 -18 -47 -38t-17 -41q0 -26 18.5 -41.5t48.5 -15.5q25 0 42 9v-44q-22 -9 -52 -9q-43 0 -72.5 24t-29.5 63q0 29 18 55t51 46q-15 6 -23 22.5t-9 49.5q-38 -42 -87 -64t-106 -22q-76 0 -124.5 40.5t-48.5 108.5q0 67 46.5 106t154.5 53l56 7q51 7 70.5 12
t28.5 18t9 42q0 51 -33 78t-96 27q-72 0 -108 -28.5t-43 -88.5h-61q6 82 61.5 126.5t151.5 44.5q93 0 140.5 -41.5t47.5 -115.5v-290q0 -22 6 -33t20 -11q19 0 37 8v-47q-3 -1 -18 -5.5t-32 -4.5zM223 40q82 0 135 40.5t53 107.5v84q-25 -11 -56 -17t-100 -12
q-73 -6 -109 -33t-36 -77q0 -42 31 -67.5t82 -25.5z" />
    <glyph glyph-name="Cacute" unicode="&#x106;" horiz-adv-x="722" 
d="M662 511h-70q-19 86 -73.5 128t-152.5 42q-76 0 -133 -39.5t-87 -111.5t-30 -168q0 -154 65.5 -238.5t189.5 -84.5q85 0 144.5 51t83.5 147h71q-29 -126 -108 -191t-204 -65q-99 0 -168.5 46t-105.5 131t-36 202q0 185 86.5 282t248.5 97q115 0 188.5 -59.5t90.5 -168.5z
M289 776l111 139h77l-137 -139h-51z" />
    <glyph glyph-name="cacute" unicode="&#x107;" 
d="M500 355h-61q-16 59 -55 91t-99 32q-80 0 -127 -61.5t-47 -158.5t46 -157.5t128 -60.5q65 0 106 35.5t53 103.5h64q-17 -93 -74.5 -143t-148.5 -50q-113 0 -175.5 71.5t-62.5 200.5q0 78 30 140.5t84 98t124 35.5q92 0 146.5 -44.5t68.5 -132.5zM223 574l111 139h77
l-137 -139h-51z" />
    <glyph glyph-name="Ccircumflex" unicode="&#x108;" horiz-adv-x="722" 
d="M662 511h-70q-19 86 -73.5 128t-152.5 42q-76 0 -133 -39.5t-87 -111.5t-30 -168q0 -154 65.5 -238.5t189.5 -84.5q85 0 144.5 51t83.5 147h71q-29 -126 -108 -191t-204 -65q-99 0 -168.5 46t-105.5 131t-36 202q0 185 86.5 282t248.5 97q115 0 188.5 -59.5t90.5 -168.5z
M440 776l-82 102l-82 -102h-65l114 139h67l113 -139h-65z" />
    <glyph glyph-name="ccircumflex" unicode="&#x109;" 
d="M500 355h-61q-16 59 -55 91t-99 32q-80 0 -127 -61.5t-47 -158.5t46 -157.5t128 -60.5q65 0 106 35.5t53 103.5h64q-17 -93 -74.5 -143t-148.5 -50q-113 0 -175.5 71.5t-62.5 200.5q0 78 30 140.5t84 98t124 35.5q92 0 146.5 -44.5t68.5 -132.5zM361 574l-82 102
l-82 -102h-65l114 139h67l113 -139h-65z" />
    <glyph glyph-name="Cdotaccent" unicode="&#x10a;" horiz-adv-x="722" 
d="M662 511h-70q-19 86 -73.5 128t-152.5 42q-76 0 -133 -39.5t-87 -111.5t-30 -168q0 -154 65.5 -238.5t189.5 -84.5q85 0 144.5 51t83.5 147h71q-29 -126 -108 -191t-204 -65q-99 0 -168.5 46t-105.5 131t-36 202q0 185 86.5 282t248.5 97q115 0 188.5 -59.5t90.5 -168.5z
M326 786v102h65v-102h-65z" />
    <glyph glyph-name="cdotaccent" unicode="&#x10b;" 
d="M500 355h-61q-16 59 -55 91t-99 32q-80 0 -127 -61.5t-47 -158.5t46 -157.5t128 -60.5q65 0 106 35.5t53 103.5h64q-17 -93 -74.5 -143t-148.5 -50q-113 0 -175.5 71.5t-62.5 200.5q0 78 30 140.5t84 98t124 35.5q92 0 146.5 -44.5t68.5 -132.5zM244 584v102h65v-102h-65
z" />
    <glyph glyph-name="Ccaron" unicode="&#x10c;" horiz-adv-x="722" 
d="M662 511h-70q-19 86 -73.5 128t-152.5 42q-76 0 -133 -39.5t-87 -111.5t-30 -168q0 -154 65.5 -238.5t189.5 -84.5q85 0 144.5 51t83.5 147h71q-29 -126 -108 -191t-204 -65q-99 0 -168.5 46t-105.5 131t-36 202q0 185 86.5 282t248.5 97q115 0 188.5 -59.5t90.5 -168.5z
M440 915h65l-113 -139h-67l-114 139h65l82 -102z" />
    <glyph glyph-name="ccaron" unicode="&#x10d;" 
d="M500 355h-61q-16 59 -55 91t-99 32q-80 0 -127 -61.5t-47 -158.5t46 -157.5t128 -60.5q65 0 106 35.5t53 103.5h64q-17 -93 -74.5 -143t-148.5 -50q-113 0 -175.5 71.5t-62.5 200.5q0 78 30 140.5t84 98t124 35.5q92 0 146.5 -44.5t68.5 -132.5zM361 713h65l-113 -139
h-67l-114 139h65l82 -102z" />
    <glyph glyph-name="Dcaron" unicode="&#x10e;" horiz-adv-x="722" 
d="M595 620q74 -101 74 -259q0 -170 -80 -265.5t-246 -95.5h-262v720h266q175 0 248 -100zM601 361q0 146 -62 223.5t-199 77.5h-191v-604h177q145 0 210 76.5t65 226.5zM393 915h65l-113 -139h-67l-114 139h65l82 -102z" />
    <glyph glyph-name="dcaron" unicode="&#x10f;" horiz-adv-x="611" 
d="M532 0h-60v91h-2q-24 -47 -74.5 -76t-105.5 -29q-113 0 -173.5 70.5t-60.5 200.5q0 80 27.5 142.5t80 97.5t123.5 35q57 0 107.5 -26t77.5 -71v285h60v-720zM296 478q-79 0 -127.5 -58.5t-48.5 -163.5q0 -109 49.5 -162.5t127.5 -53.5q52 0 91.5 27.5t61.5 77.5t22 116
q0 61 -22 110.5t-62.5 78t-91.5 28.5zM583 581v27q36 0 36 54h-36v58h68v-52q0 -43 -18 -65t-50 -22z" />
    <glyph glyph-name="Dcroat" unicode="&#x110;" horiz-adv-x="722" 
d="M81 353h-71v58h71v309h266q175 0 248 -100q74 -101 74 -259q0 -173 -80 -267t-246 -94h-262v353zM601 361q0 146 -62 223.5t-199 77.5h-191v-251h161v-58h-161v-295h177q145 0 210 75.5t65 227.5z" />
    <glyph glyph-name="dcroat" unicode="&#x111;" horiz-adv-x="611" 
d="M297 637h175v83h60v-83h61v-45h-61v-592h-60v91h-2q-24 -47 -74.5 -76t-105.5 -29q-113 0 -173.5 70.5t-60.5 200.5q0 80 27.5 142.5t80 97.5t123.5 35q57 0 107.5 -26t77.5 -71v157h-175v45zM296 478q-79 0 -127.5 -58.5t-48.5 -163.5q0 -109 49.5 -162.5t127.5 -53.5
q52 0 91.5 27.5t61.5 77.5t22 116q0 61 -22 110.5t-62.5 78t-91.5 28.5z" />
    <glyph glyph-name="Emacron" unicode="&#x112;" horiz-adv-x="611" 
d="M149 662v-260h371v-58h-371v-286h421v-58h-489v720h479v-58h-411zM169 814v45h296v-45h-296z" />
    <glyph glyph-name="emacron" unicode="&#x113;" 
d="M511 245h-402q0 -94 47.5 -149.5t126.5 -55.5q60 0 102 32t55 87h67q-28 -89 -82.5 -131t-141.5 -42q-114 0 -176 72t-62 198q0 79 30.5 142t84.5 98.5t123 35.5q108 0 168 -74.5t60 -212.5zM282 478q-69 0 -115 -48t-58 -135h338q-1 84 -45.5 133.5t-119.5 49.5z
M130 612v45h296v-45h-296z" />
    <glyph glyph-name="Ebreve" unicode="&#x114;" horiz-adv-x="611" 
d="M149 662v-260h371v-58h-371v-286h421v-58h-489v720h479v-58h-411zM318 827q87 0 107 81h37q-6 -60 -45 -93t-104 -33q-60 0 -97 33.5t-42 92.5h39q9 -42 36 -61.5t69 -19.5z" />
    <glyph glyph-name="ebreve" unicode="&#x115;" 
d="M511 245h-402q0 -94 47.5 -149.5t126.5 -55.5q60 0 102 32t55 87h67q-28 -89 -82.5 -131t-141.5 -42q-114 0 -176 72t-62 198q0 79 30.5 142t84.5 98.5t123 35.5q108 0 168 -74.5t60 -212.5zM282 478q-69 0 -115 -48t-58 -135h338q-1 84 -45.5 133.5t-119.5 49.5z
M279 625q88 0 107 81h37q-6 -60 -45 -93t-104 -33q-60 0 -97 33.5t-42 92.5h39q9 -42 36 -61.5t69 -19.5z" />
    <glyph glyph-name="Edotaccent" unicode="&#x116;" horiz-adv-x="611" 
d="M149 662v-260h371v-58h-371v-286h421v-58h-489v720h479v-58h-411zM294 786v102h65v-102h-65z" />
    <glyph glyph-name="edotaccent" unicode="&#x117;" 
d="M511 245h-402q0 -94 47.5 -149.5t126.5 -55.5q60 0 102 32t55 87h67q-28 -89 -82.5 -131t-141.5 -42q-114 0 -176 72t-62 198q0 79 30.5 142t84.5 98.5t123 35.5q108 0 168 -74.5t60 -212.5zM282 478q-69 0 -115 -48t-58 -135h338q-1 84 -45.5 133.5t-119.5 49.5z
M241 584v102h65v-102h-65z" />
    <glyph glyph-name="Eogonek" unicode="&#x118;" horiz-adv-x="611" 
d="M149 662v-260h371v-58h-371v-286h421v-58h-56q-35 -16 -57.5 -40t-22.5 -47q0 -26 18.5 -41.5t48.5 -15.5q25 0 42 9v-44q-24 -9 -52 -9q-43 0 -72.5 24t-29.5 63q0 30 18.5 56.5t52.5 44.5h-379v720h479v-58h-411z" />
    <glyph glyph-name="eogonek" unicode="&#x119;" 
d="M511 248v-3h-402q0 -94 47.5 -149.5t126.5 -55.5q60 0 102 32t55 87h67q-24 -79 -70 -120.5t-113 -49.5q-29 -18 -44 -37.5t-15 -38.5q0 -26 18.5 -41.5t48.5 -15.5q25 0 42 9v-44q-24 -9 -52 -9q-43 0 -72.5 24.5t-29.5 62.5q0 50 49 87q-106 4 -165 75t-59 195
q0 79 30 142t84.5 98.5t123.5 35.5q108 0 168 -74.5t60 -209.5zM282 478q-69 0 -115 -48t-58 -135h338q-1 84 -45.5 133.5t-119.5 49.5z" />
    <glyph glyph-name="Ecaron" unicode="&#x11a;" horiz-adv-x="611" 
d="M149 662v-260h371v-58h-371v-286h421v-58h-489v720h479v-58h-411zM399 915h65l-113 -139h-67l-114 139h65l82 -102z" />
    <glyph glyph-name="ecaron" unicode="&#x11b;" 
d="M511 245h-402q0 -94 47.5 -149.5t126.5 -55.5q60 0 102 32t55 87h67q-28 -89 -82.5 -131t-141.5 -42q-114 0 -176 72t-62 198q0 79 30.5 142t84.5 98.5t123 35.5q108 0 168 -74.5t60 -212.5zM282 478q-69 0 -115 -48t-58 -135h338q-1 84 -45.5 133.5t-119.5 49.5z
M360 713h65l-113 -139h-67l-114 139h65l82 -102z" />
    <glyph glyph-name="Gcircumflex" unicode="&#x11c;" horiz-adv-x="778" 
d="M687 511h-70q-18 78 -80.5 124t-145.5 46q-131 0 -200.5 -88t-69.5 -255q0 -85 33 -153t92 -107t136 -39q70 0 126 30.5t89 92.5t33 152h-243v58h308v-372h-58v123q-43 -74 -107.5 -108t-160.5 -34q-97 0 -168 45.5t-109.5 131.5t-38.5 205q0 116 40 200.5t115 130
t178 45.5q121 0 200 -59.5t101 -168.5zM458 776l-82 102l-82 -102h-65l114 139h67l113 -139h-65z" />
    <glyph glyph-name="gcircumflex" unicode="&#x11d;" horiz-adv-x="611" 
d="M532 518v-474q0 -256 -243 -256q-92 0 -152 41.5t-67 107.5h64q10 -47 47.5 -71t107.5 -24q93 0 138 52.5t45 165.5v23q-29 -46 -78.5 -71.5t-106.5 -25.5q-72 0 -124 34.5t-79.5 96.5t-27.5 143q0 131 61 201.5t173 70.5q55 0 105.5 -29t74.5 -76h2v91h60zM472 257
q0 100 -48 160.5t-128 60.5t-128 -55.5t-48 -160.5t47.5 -163.5t129.5 -58.5q51 0 90.5 28.5t62 78t22.5 110.5zM388 574l-82 102l-82 -102h-65l114 139h67l113 -139h-65z" />
    <glyph glyph-name="Gbreve" unicode="&#x11e;" horiz-adv-x="778" 
d="M687 511h-70q-18 78 -80.5 124t-145.5 46q-131 0 -200.5 -88t-69.5 -255q0 -85 33 -153t92 -107t136 -39q70 0 126 30.5t89 92.5t33 152h-243v58h308v-372h-58v123q-43 -74 -107.5 -108t-160.5 -34q-97 0 -168 45.5t-109.5 131.5t-38.5 205q0 116 40 200.5t115 130
t178 45.5q121 0 200 -59.5t101 -168.5zM377 827q87 0 107 81h37q-6 -60 -45 -93t-104 -33q-60 0 -97 33.5t-42 92.5h39q9 -42 36 -61.5t69 -19.5z" />
    <glyph glyph-name="gbreve" unicode="&#x11f;" horiz-adv-x="611" 
d="M532 518v-474q0 -256 -243 -256q-92 0 -152 41.5t-67 107.5h64q10 -47 47.5 -71t107.5 -24q93 0 138 52.5t45 165.5v23q-29 -46 -78.5 -71.5t-106.5 -25.5q-72 0 -124 34.5t-79.5 96.5t-27.5 143q0 131 61 201.5t173 70.5q55 0 105.5 -29t74.5 -76h2v91h60zM472 257
q0 100 -48 160.5t-128 60.5t-128 -55.5t-48 -160.5t47.5 -163.5t129.5 -58.5q51 0 90.5 28.5t62 78t22.5 110.5zM313 625q88 0 107 81h37q-6 -60 -45 -93t-104 -33q-60 0 -97 33.5t-42 92.5h39q9 -42 36 -61.5t69 -19.5z" />
    <glyph glyph-name="Gdotaccent" unicode="&#x120;" horiz-adv-x="778" 
d="M687 511h-70q-18 78 -80.5 124t-145.5 46q-131 0 -200.5 -88t-69.5 -255q0 -85 33 -153t92 -107t136 -39q70 0 126 30.5t89 92.5t33 152h-243v58h308v-372h-58v123q-43 -74 -107.5 -108t-160.5 -34q-97 0 -168 45.5t-109.5 131.5t-38.5 205q0 116 40 200.5t115 130
t178 45.5q121 0 200 -59.5t101 -168.5zM338 786v102h65v-102h-65z" />
    <glyph glyph-name="gdotaccent" unicode="&#x121;" horiz-adv-x="611" 
d="M532 518v-474q0 -256 -243 -256q-92 0 -152 41.5t-67 107.5h64q10 -47 47.5 -71t107.5 -24q93 0 138 52.5t45 165.5v23q-29 -46 -78.5 -71.5t-106.5 -25.5q-72 0 -124 34.5t-79.5 96.5t-27.5 143q0 131 61 201.5t173 70.5q55 0 105.5 -29t74.5 -76h2v91h60zM472 257
q0 100 -48 160.5t-128 60.5t-128 -55.5t-48 -160.5t47.5 -163.5t129.5 -58.5q51 0 90.5 28.5t62 78t22.5 110.5zM276 584v102h65v-102h-65z" />
    <glyph glyph-name="Gcommaaccent" unicode="&#x122;" horiz-adv-x="778" 
d="M687 511h-70q-18 78 -80.5 124t-145.5 46q-131 0 -200.5 -88t-69.5 -255q0 -85 33 -153t92 -107t136 -39q70 0 126 30.5t89 92.5t33 152h-243v58h308v-372h-58v123q-43 -74 -107.5 -108t-160.5 -34q-97 0 -168 45.5t-109.5 131.5t-38.5 205q0 116 40 200.5t115 130
t178 45.5q121 0 200 -59.5t101 -168.5zM339 -179v27q36 0 36 54h-36v58h68v-52q0 -43 -18 -65t-50 -22z" />
    <glyph glyph-name="gcommaaccent" unicode="&#x123;" horiz-adv-x="611" 
d="M532 518v-474q0 -256 -243 -256q-92 0 -152 41.5t-67 107.5h64q10 -47 47.5 -71t107.5 -24q93 0 138 52.5t45 165.5v23q-29 -46 -78.5 -71.5t-106.5 -25.5q-72 0 -124 34.5t-79.5 96.5t-27.5 143q0 131 61 201.5t173 70.5q55 0 105.5 -29t74.5 -76h2v91h60zM472 257
q0 100 -48 160.5t-128 60.5t-128 -55.5t-48 -160.5t47.5 -163.5t129.5 -58.5q51 0 90.5 28.5t62 78t22.5 110.5zM298 632h36v-58h-68v53q0 42 18 64t50 22v-27q-36 1 -36 -54z" />
    <glyph glyph-name="Hcircumflex" unicode="&#x124;" horiz-adv-x="722" 
d="M574 411v309h68v-720h-68v353h-426v-353h-68v720h68v-309h426zM442 776l-82 102l-82 -102h-65l114 139h67l113 -139h-65z" />
    <glyph glyph-name="hcircumflex" unicode="&#x125;" 
d="M132 446q44 47 82.5 66.5t84.5 19.5q84 0 134 -46t50 -130v-356h-60v342q0 66 -31.5 101t-101.5 35q-69 0 -113.5 -47.5t-44.5 -134.5v-296h-60v720h60v-274zM360 759l-82 102l-82 -102h-65l114 139h67l113 -139h-65z" />
    <glyph glyph-name="Hbar" unicode="&#x126;" horiz-adv-x="722" 
d="M574 603v117h68v-720h-68v353h-426v-353h-68v720h68v-117h426zM148 545v-134h426v134h-426z" />
    <glyph glyph-name="hbar" unicode="&#x127;" 
d="M299 532q82 0 133 -45t51 -128v-359h-60v342q0 66 -31.5 101t-101.5 35q-68 0 -113 -48t-45 -135v-295h-60v593h-60v45h60v82h60v-82h157v-45h-157v-147q44 47 82.5 66.5t84.5 19.5z" />
    <glyph glyph-name="Itilde" unicode="&#x128;" horiz-adv-x="278" 
d="M105 0v720h68v-720h-68zM215 792q-18 0 -36 6t-44 18q-21 10 -36.5 15.5t-29.5 5.5q-18 0 -29.5 -11.5t-19.5 -37.5h-36q6 47 31 72t59 25q16 0 33.5 -6t42.5 -18q18 -9 35 -15t30 -6q34 0 44 50h38q-5 -45 -27.5 -71.5t-54.5 -26.5z" />
    <glyph glyph-name="itilde" unicode="&#x129;" horiz-adv-x="222" 
d="M138 0h-60v518h60v-518zM185 590q-18 0 -36 6t-44 18q-21 10 -36.5 15.5t-29.5 5.5q-18 0 -29.5 -11.5t-19.5 -37.5h-36q6 47 31 72t59 25q16 0 33.5 -6t42.5 -18q18 -9 35 -15t30 -6q34 0 44 50h38q-5 -45 -27.5 -71.5t-54.5 -26.5z" />
    <glyph glyph-name="Imacron" unicode="&#x12a;" horiz-adv-x="278" 
d="M105 0v720h68v-720h-68zM-9 814v45h296v-45h-296z" />
    <glyph glyph-name="imacron" unicode="&#x12b;" horiz-adv-x="222" 
d="M138 0h-60v518h60v-518zM-39 612v45h296v-45h-296z" />
    <glyph glyph-name="Ibreve" unicode="&#x12c;" horiz-adv-x="278" 
d="M105 0v720h68v-720h-68zM146 827q87 0 107 81h37q-6 -60 -45 -93t-104 -33q-60 0 -97 33.5t-42 92.5h39q9 -42 36 -61.5t69 -19.5z" />
    <glyph glyph-name="ibreve" unicode="&#x12d;" horiz-adv-x="222" 
d="M138 0h-60v518h60v-518zM110 625q88 0 107 81h37q-6 -60 -45 -93t-104 -33q-60 0 -97 33.5t-42 92.5h39q9 -42 36 -61.5t69 -19.5z" />
    <glyph glyph-name="Iogonek" unicode="&#x12e;" horiz-adv-x="278" 
d="M158 0q-35 -16 -57.5 -40t-22.5 -47q0 -26 18.5 -41.5t48.5 -15.5q25 0 42 9v-44q-24 -9 -52 -9q-43 0 -72.5 24.5t-29.5 62.5q0 30 18.5 56t53.5 45v720h68v-720h-15z" />
    <glyph glyph-name="iogonek" unicode="&#x12f;" horiz-adv-x="222" 
d="M78 631v89h66v-89h-66zM141 0h-6q-80 -41 -80 -87q0 -26 18.5 -41.5t48.5 -15.5q25 0 42 9v-44q-24 -9 -52 -9q-44 0 -73 24t-29 63q0 29 18.5 56t52.5 45v518h60v-518z" />
    <glyph glyph-name="Idotaccent" unicode="&#x130;" horiz-adv-x="278" 
d="M105 0v720h68v-720h-68zM107 786v102h65v-102h-65z" />
    <glyph glyph-name="dotlessi" unicode="&#x131;" horiz-adv-x="222" 
d="M138 0h-60v518h60v-518z" />
    <glyph glyph-name="Jcircumflex" unicode="&#x134;" horiz-adv-x="500" 
d="M212 -19q-97 0 -143.5 58t-46.5 184v5h68v-27q0 -85 32 -121.5t98 -36.5q65 0 96 37.5t31 114.5v525h68v-528q0 -100 -50 -155.5t-153 -55.5zM457 776l-82 102l-82 -102h-65l114 139h67l113 -139h-65z" />
    <glyph glyph-name="jcircumflex" unicode="&#x135;" horiz-adv-x="222" 
d="M148 -84q0 -50 -11 -75.5t-33.5 -35t-61.5 -9.5q-21 0 -37 4v53q16 -2 25 -2q32 0 45 16t13 52v599h60v-602zM201 574l-82 102l-82 -102h-65l114 139h67l113 -139h-65z" />
    <glyph glyph-name="Kcommaaccent" unicode="&#x136;" horiz-adv-x="667" 
d="M522 720h77l-284 -287l334 -433h-83l-300 391l-113 -113v-278h-68v720h68v-373zM284 -179v27q36 0 36 54h-36v58h68v-52q0 -43 -18 -65t-50 -22z" />
    <glyph glyph-name="kcommaaccent" unicode="&#x137;" horiz-adv-x="500" 
d="M128 272l254 246h82l-194 -187l217 -331h-67l-194 289l-98 -93v-196h-60v720h60v-448zM221 -179v27q36 0 36 54h-36v58h68v-52q0 -43 -18 -65t-50 -22z" />
    <glyph glyph-name="kgreenlandic" unicode="&#x138;" horiz-adv-x="500" 
d="M128 272l254 246h82l-194 -187l217 -331h-67l-194 289l-98 -93v-196h-60v518h60v-246z" />
    <glyph glyph-name="Lacute" unicode="&#x139;" 
d="M535 58v-58h-454v720h68v-662h386zM69 776l111 139h77l-137 -139h-51z" />
    <glyph glyph-name="lacute" unicode="&#x13a;" horiz-adv-x="222" 
d="M141 0h-60v720h60v-720zM50 736l111 139h77l-137 -139h-51z" />
    <glyph glyph-name="Lcommaaccent" unicode="&#x13b;" 
d="M535 58v-58h-454v720h68v-662h386zM264 -179v27q36 0 36 54h-36v58h68v-52q0 -43 -18 -65t-50 -22z" />
    <glyph glyph-name="lcommaaccent" unicode="&#x13c;" horiz-adv-x="222" 
d="M141 0h-60v720h60v-720zM77 -179v27q36 0 36 54h-36v58h68v-52q0 -43 -18 -65t-50 -22z" />
    <glyph glyph-name="Lcaron" unicode="&#x13d;" 
d="M535 58v-58h-454v720h68v-662h386zM301 581v27q36 0 36 54h-36v58h68v-52q0 -43 -18 -65t-50 -22z" />
    <glyph glyph-name="lcaron" unicode="&#x13e;" horiz-adv-x="222" 
d="M141 0h-60v720h60v-720zM185 581v27q36 -1 36 54h-36v58h68v-53q0 -41 -18 -63.5t-50 -22.5z" />
    <glyph glyph-name="Ldot" unicode="&#x13f;" 
d="M535 58v-58h-454v720h68v-662h386zM355 326v102h65v-102h-65z" />
    <glyph glyph-name="ldot" unicode="&#x140;" horiz-adv-x="311" 
d="M141 0h-60v720h60v-720zM224 326v102h65v-102h-65z" />
    <glyph glyph-name="Lslash" unicode="&#x141;" 
d="M230 510v-60l-81 -40v-352h386v-58h-454v360l-81 -40v60l81 40v300h68v-250z" />
    <glyph glyph-name="lslash" unicode="&#x142;" horiz-adv-x="222" 
d="M141 450l71 40v-60l-71 -40v-390h-60v340l-71 -40v60l71 40v320h60v-270z" />
    <glyph glyph-name="Nacute" unicode="&#x143;" horiz-adv-x="722" 
d="M574 91v629h68v-720h-79l-414 628h-2v-628h-68v720h77l416 -629h2zM303 776l111 139h77l-137 -139h-51z" />
    <glyph glyph-name="nacute" unicode="&#x144;" 
d="M423 341q0 68 -31.5 102.5t-101.5 34.5q-68 0 -113 -48.5t-45 -133.5v-296h-60v518h60v-72q44 47 82.5 66.5t84.5 19.5q81 0 132.5 -45t51.5 -126v-361h-60v341zM220 574l111 139h77l-137 -139h-51z" />
    <glyph glyph-name="Ncommaaccent" unicode="&#x145;" horiz-adv-x="722" 
d="M574 91v629h68v-720h-79l-414 628h-2v-628h-68v720h77l416 -629h2zM327 -179v27q36 0 36 54h-36v58h68v-52q0 -43 -18 -65t-50 -22z" />
    <glyph glyph-name="ncommaaccent" unicode="&#x146;" 
d="M423 341q0 68 -31.5 102.5t-101.5 34.5q-68 0 -113 -48.5t-45 -133.5v-296h-60v518h60v-72q44 47 82.5 66.5t84.5 19.5q81 0 132.5 -45t51.5 -126v-361h-60v341zM239 -179v27q36 0 36 54h-36v58h68v-52q0 -43 -18 -65t-50 -22z" />
    <glyph glyph-name="Ncaron" unicode="&#x147;" horiz-adv-x="722" 
d="M574 91v629h68v-720h-79l-414 628h-2v-628h-68v720h77l416 -629h2zM442 915h65l-113 -139h-67l-114 139h65l82 -102z" />
    <glyph glyph-name="ncaron" unicode="&#x148;" 
d="M423 341q0 68 -31.5 102.5t-101.5 34.5q-68 0 -113 -48.5t-45 -133.5v-296h-60v518h60v-72q44 47 82.5 66.5t84.5 19.5q81 0 132.5 -45t51.5 -126v-361h-60v341zM361 713h65l-113 -139h-67l-114 139h65l82 -102z" />
    <glyph glyph-name="Eng" unicode="&#x14a;" horiz-adv-x="722" 
d="M574 91v629h67v-793q0 -70 -28.5 -100.5t-93.5 -30.5q-23 0 -39 4v53q16 -2 25 -2q31 0 44.5 15t13.5 53v81l-414 628h-2v-628h-68v720h77l416 -629h2z" />
    <glyph glyph-name="eng" unicode="&#x14b;" 
d="M377 -204q-17 0 -37 4v53q16 -2 25 -2q31 0 44.5 15t13.5 53v423q0 67 -31.5 101.5t-101.5 34.5q-68 0 -113 -48.5t-45 -133.5v-296h-60v518h60v-72q44 47 82.5 66.5t84.5 19.5q81 0 132.5 -44t51.5 -127v-446q0 -48 -10.5 -73.5t-33.5 -35.5t-62 -10z" />
    <glyph glyph-name="Omacron" unicode="&#x14c;" horiz-adv-x="778" 
d="M724 359q0 -111 -41 -197t-117 -133.5t-178 -47.5t-177.5 47t-116.5 133t-41 200q0 111 41 196.5t116 133.5t174 48q105 0 181.5 -47.5t117.5 -133.5t41 -199zM389 39q84 0 144.5 40t91.5 112.5t31 167.5q0 98 -32.5 171t-93.5 112t-144 39q-81 0 -141 -41t-92 -114
t-32 -167q0 -97 32 -169.5t92.5 -111.5t143.5 -39zM241 814v45h296v-45h-296z" />
    <glyph glyph-name="omacron" unicode="&#x14d;" 
d="M518 259q0 -81 -30 -143t-84 -96t-125 -34q-69 0 -123.5 32.5t-86 94t-31.5 146.5q0 81 28.5 142.5t83 96t128.5 34.5q112 0 176 -74t64 -199zM278 40q83 0 129.5 60t46.5 157q0 104 -45 162.5t-132 58.5q-81 0 -128 -59.5t-47 -159.5q0 -102 47 -160.5t129 -58.5z
M131 612v45h296v-45h-296z" />
    <glyph glyph-name="Obreve" unicode="&#x14e;" horiz-adv-x="778" 
d="M724 359q0 -111 -41 -197t-117 -133.5t-178 -47.5t-177.5 47t-116.5 133t-41 200q0 111 41 196.5t116 133.5t174 48q105 0 181.5 -47.5t117.5 -133.5t41 -199zM389 39q84 0 144.5 40t91.5 112.5t31 167.5q0 98 -32.5 171t-93.5 112t-144 39q-81 0 -141 -41t-92 -114
t-32 -167q0 -97 32 -169.5t92.5 -111.5t143.5 -39zM387 827q87 0 107 81h37q-6 -60 -45 -93t-104 -33q-60 0 -97 33.5t-42 92.5h39q9 -42 36 -61.5t69 -19.5z" />
    <glyph glyph-name="obreve" unicode="&#x14f;" 
d="M518 259q0 -81 -30 -143t-84 -96t-125 -34q-69 0 -123.5 32.5t-86 94t-31.5 146.5q0 81 28.5 142.5t83 96t128.5 34.5q112 0 176 -74t64 -199zM278 40q83 0 129.5 60t46.5 157q0 104 -45 162.5t-132 58.5q-81 0 -128 -59.5t-47 -159.5q0 -102 47 -160.5t129 -58.5z
M279 625q88 0 107 81h37q-6 -60 -45 -93t-104 -33q-60 0 -97 33.5t-42 92.5h39q9 -42 36 -61.5t69 -19.5z" />
    <glyph glyph-name="Ohungarumlaut" unicode="&#x150;" horiz-adv-x="778" 
d="M724 359q0 -111 -41 -197t-117 -133.5t-178 -47.5t-177.5 47t-116.5 133t-41 200q0 111 41 196.5t116 133.5t174 48q105 0 181.5 -47.5t117.5 -133.5t41 -199zM389 39q84 0 144.5 40t91.5 112.5t31 167.5q0 98 -32.5 171t-93.5 112t-144 39q-81 0 -141 -41t-92 -114
t-32 -167q0 -97 32 -169.5t92.5 -111.5t143.5 -39zM273 776l111 139h77l-137 -139h-51zM435 776l111 139h77l-137 -139h-51z" />
    <glyph glyph-name="ohungarumlaut" unicode="&#x151;" 
d="M518 259q0 -81 -30 -143t-84 -96t-125 -34q-69 0 -123.5 32.5t-86 94t-31.5 146.5q0 81 28.5 142.5t83 96t128.5 34.5q112 0 176 -74t64 -199zM278 40q83 0 129.5 60t46.5 157q0 104 -45 162.5t-132 58.5q-81 0 -128 -59.5t-47 -159.5q0 -102 47 -160.5t129 -58.5z
M168 574l111 139h77l-137 -139h-51zM330 574l111 139h77l-137 -139h-51z" />
    <glyph glyph-name="OE" unicode="&#x152;" horiz-adv-x="1000" 
d="M550 644v76h407v-58h-342v-260h320v-58h-320v-286h352v-58h-417v72q-47 -48 -95 -69.5t-106 -21.5q-97 0 -166.5 47t-105.5 132.5t-36 198.5q0 116 35.5 201.5t104 132t165.5 46.5q77 0 125.5 -23t78.5 -72zM354 39q41 0 86 18t76 55t31 91v299q0 83 -53 131t-149 48
q-114 0 -175 -82t-61 -238q0 -154 63 -238t182 -84z" />
    <glyph glyph-name="oe" unicode="&#x153;" horiz-adv-x="944" 
d="M684 532q111 0 165.5 -69.5t54.5 -217.5h-394v-12q0 -54 22 -98t62 -69.5t92 -25.5q57 0 97.5 33t52.5 87h61q-17 -82 -73 -128t-140 -46q-67 0 -120 32t-85 94q-29 -60 -84.5 -93t-127.5 -33q-68 0 -120.5 33.5t-81.5 95t-29 143.5q0 127 61.5 200.5t173.5 73.5
q74 0 125 -30t83 -95q33 63 83 94t122 31zM447 269q0 97 -48 153t-133 56q-78 0 -122 -58t-44 -163q0 -107 47 -162t125 -55q82 0 128.5 61.5t46.5 167.5zM681 478q-68 0 -116 -49.5t-54 -133.5h329q0 88 -41.5 135.5t-117.5 47.5z" />
    <glyph glyph-name="Racute" unicode="&#x154;" horiz-adv-x="667" 
d="M607 531q0 -68 -28 -108.5t-89 -67.5q47 -17 69 -60t23 -134q2 -135 30 -154v-7h-75q-11 19 -17 63t-9 122q-2 58 -18 88.5t-46.5 42t-83.5 11.5h-215v-327h-68v720h288q239 0 239 -189zM539 528q0 66 -43.5 100t-127.5 34h-220v-277h215q82 0 129 37t47 106zM247 776
l111 139h77l-137 -139h-51z" />
    <glyph glyph-name="racute" unicode="&#x155;" horiz-adv-x="333" 
d="M135 257v-257h-60v518h60v-97h2q24 59 61.5 85t105.5 26h2v-65h-7q-164 0 -164 -210zM110 574l111 139h77l-137 -139h-51z" />
    <glyph glyph-name="Rcommaaccent" unicode="&#x156;" horiz-adv-x="667" 
d="M607 531q0 -68 -28 -108.5t-89 -67.5q47 -17 69 -60t23 -134q2 -135 30 -154v-7h-75q-11 19 -17 63t-9 122q-2 58 -18 88.5t-46.5 42t-83.5 11.5h-215v-327h-68v720h288q239 0 239 -189zM539 528q0 66 -43.5 100t-127.5 34h-220v-277h215q82 0 129 37t47 106zM290 -179
v27q36 0 36 54h-36v58h68v-52q0 -43 -18 -65t-50 -22z" />
    <glyph glyph-name="rcommaaccent" unicode="&#x157;" horiz-adv-x="333" 
d="M135 257v-257h-60v518h60v-97h2q24 59 61.5 85t105.5 26h2v-65h-7q-164 0 -164 -210zM74 -179v27q36 0 36 54h-36v58h68v-52q0 -43 -18 -65t-50 -22z" />
    <glyph glyph-name="Rcaron" unicode="&#x158;" horiz-adv-x="667" 
d="M607 531q0 -68 -28 -108.5t-89 -67.5q47 -17 69 -60t23 -134q2 -135 30 -154v-7h-75q-11 19 -17 63t-9 122q-2 58 -18 88.5t-46.5 42t-83.5 11.5h-215v-327h-68v720h288q239 0 239 -189zM539 528q0 66 -43.5 100t-127.5 34h-220v-277h215q82 0 129 37t47 106zM401 915h65
l-113 -139h-67l-114 139h65l82 -102z" />
    <glyph glyph-name="rcaron" unicode="&#x159;" horiz-adv-x="333" 
d="M135 257v-257h-60v518h60v-97h2q24 59 61.5 85t105.5 26h2v-65h-7q-164 0 -164 -210zM246 713h65l-113 -139h-67l-114 139h65l82 -102z" />
    <glyph glyph-name="Sacute" unicode="&#x15a;" horiz-adv-x="611" 
d="M304 681q-81 0 -129.5 -38.5t-48.5 -99.5q0 -47 27.5 -75t68.5 -42t114 -30l48 -11q98 -26 140.5 -70.5t42.5 -123.5q0 -99 -69 -154.5t-194 -55.5q-121 0 -191 62t-70 172h66q8 -87 60.5 -131.5t146.5 -44.5q87 0 135 40.5t48 108.5q0 57 -38.5 90.5t-133.5 54.5
q-94 21 -147 41.5t-86.5 60t-33.5 110.5q0 56 30.5 100t86 69t127.5 25q74 0 129 -27t84 -75.5t29 -112.5h-65q0 73 -48 115t-129 42zM236 776l111 139h77l-137 -139h-51z" />
    <glyph glyph-name="sacute" unicode="&#x15b;" horiz-adv-x="500" 
d="M440 369h-61q-14 109 -140 109q-56 0 -86.5 -24t-30.5 -65q0 -38 31 -59t94 -36q78 -18 121.5 -37t64.5 -47t21 -73q0 -70 -57 -110.5t-153 -40.5q-86 0 -139.5 47.5t-58.5 128.5h61q14 -64 50 -93t105 -29q59 0 93.5 26.5t34.5 70.5q0 23 -10 39t-43.5 31.5t-100.5 29.5
q-100 22 -139 56.5t-39 93.5q0 67 51.5 106t130.5 39q180 0 200 -163zM182 574l111 139h77l-137 -139h-51z" />
    <glyph glyph-name="Scircumflex" unicode="&#x15c;" horiz-adv-x="611" 
d="M304 681q-81 0 -129.5 -38.5t-48.5 -99.5q0 -47 27.5 -75t68.5 -42t114 -30l48 -11q98 -26 140.5 -70.5t42.5 -123.5q0 -99 -69 -154.5t-194 -55.5q-121 0 -191 62t-70 172h66q8 -87 60.5 -131.5t146.5 -44.5q87 0 135 40.5t48 108.5q0 57 -38.5 90.5t-133.5 54.5
q-94 21 -147 41.5t-86.5 60t-33.5 110.5q0 56 30.5 100t86 69t127.5 25q74 0 129 -27t84 -75.5t29 -112.5h-65q0 73 -48 115t-129 42zM387 776l-82 102l-82 -102h-65l114 139h67l113 -139h-65z" />
    <glyph glyph-name="scircumflex" unicode="&#x15d;" horiz-adv-x="500" 
d="M440 369h-61q-14 109 -140 109q-56 0 -86.5 -24t-30.5 -65q0 -38 31 -59t94 -36q78 -18 121.5 -37t64.5 -47t21 -73q0 -70 -57 -110.5t-153 -40.5q-86 0 -139.5 47.5t-58.5 128.5h61q14 -64 50 -93t105 -29q59 0 93.5 26.5t34.5 70.5q0 23 -10 39t-43.5 31.5t-100.5 29.5
q-100 22 -139 56.5t-39 93.5q0 67 51.5 106t130.5 39q180 0 200 -163zM324 574l-82 102l-82 -102h-65l114 139h67l113 -139h-65z" />
    <glyph glyph-name="Scedilla" unicode="&#x15e;" horiz-adv-x="611" 
d="M331 -18l-32 -41q23 6 36 6q34 0 56.5 -19t22.5 -53q0 -37 -30.5 -59.5t-81.5 -22.5q-37 0 -91 19l15 30q16 -6 32.5 -10.5t31.5 -4.5q29 0 47.5 13t18.5 34q0 18 -14 28.5t-36 10.5q-18 0 -44 -8l-15 13l46 63q-118 4 -184 66t-66 168h66q8 -87 60.5 -131.5t146.5 -44.5
q87 0 135 40.5t48 108.5q0 57 -38.5 90t-133.5 55q-94 22 -146 41t-86.5 59.5t-34.5 111.5q0 56 30.5 100t86 69t127.5 25q74 0 129 -27t84 -75.5t29 -112.5h-65q0 73 -48 115t-129 42t-129.5 -38.5t-48.5 -99.5q0 -47 27 -75t68.5 -42t114.5 -30l48 -11
q102 -26 142.5 -72.5t40.5 -121.5q0 -93 -61 -147.5t-175 -61.5z" />
    <glyph glyph-name="scedilla" unicode="&#x15f;" horiz-adv-x="500" 
d="M275 -12l-37 -47q23 6 36 6q33 0 56 -18.5t23 -52.5q0 -38 -30.5 -60.5t-81.5 -22.5q-37 0 -91 19l15 30q39 -15 64 -15q29 0 47.5 13t18.5 34q0 18 -14 28.5t-36 10.5q-18 0 -44 -8l-15 13l50 68q-83 2 -133.5 49.5t-56.5 126.5h61q14 -64 50 -93t105 -29
q59 0 93.5 26.5t34.5 70.5q0 23 -10 39t-44.5 31.5t-99.5 29.5q-100 22 -139 56.5t-39 93.5q0 41 22 74t62.5 52t94.5 19q184 0 203 -163h-61q-14 109 -140 109q-56 0 -86.5 -24t-30.5 -65q0 -38 31 -59t94 -36q78 -19 121.5 -37.5t64.5 -46.5t21 -73q0 -64 -47.5 -103
t-131.5 -46z" />
    <glyph glyph-name="Scaron" unicode="&#x160;" horiz-adv-x="611" 
d="M304 681q-81 0 -129.5 -38.5t-48.5 -99.5q0 -47 27.5 -75t68.5 -42t114 -30l48 -11q98 -26 140.5 -70.5t42.5 -123.5q0 -99 -69 -154.5t-194 -55.5q-121 0 -191 62t-70 172h66q8 -87 60.5 -131.5t146.5 -44.5q87 0 135 40.5t48 108.5q0 57 -38.5 90.5t-133.5 54.5
q-94 21 -147 41.5t-86.5 60t-33.5 110.5q0 56 30.5 100t86 69t127.5 25q74 0 129 -27t84 -75.5t29 -112.5h-65q0 73 -48 115t-129 42zM392 915h65l-113 -139h-67l-114 139h65l82 -102z" />
    <glyph glyph-name="scaron" unicode="&#x161;" horiz-adv-x="500" 
d="M440 369h-61q-14 109 -140 109q-56 0 -86.5 -24t-30.5 -65q0 -38 31 -59t94 -36q78 -18 121.5 -37t64.5 -47t21 -73q0 -70 -57 -110.5t-153 -40.5q-86 0 -139.5 47.5t-58.5 128.5h61q14 -64 50 -93t105 -29q59 0 93.5 26.5t34.5 70.5q0 23 -10 39t-43.5 31.5t-100.5 29.5
q-100 22 -139 56.5t-39 93.5q0 67 51.5 106t130.5 39q180 0 200 -163zM337 713h65l-113 -139h-67l-114 139h65l82 -102z" />
    <glyph glyph-name="Tcommaaccent" unicode="&#x162;" 
d="M312 662v-662h-68v662h-228v58h524v-58h-228zM243 -179v27q36 0 36 54h-36v58h68v-52q0 -43 -18 -65t-50 -22z" />
    <glyph glyph-name="tcommaaccent" unicode="&#x163;" horiz-adv-x="278" 
d="M153 518h97v-50h-97v-369q0 -27 7 -40t18 -16t30 -3q16 0 46 7v-49q-6 -1 -26 -6.5t-43 -5.5q-48 0 -70 25t-22 75v382h-73v50h73v144h60v-144zM118 -179v27q36 0 36 54h-36v58h68v-52q0 -43 -18 -65t-50 -22z" />
    <glyph glyph-name="Tcaron" unicode="&#x164;" 
d="M312 662v-662h-68v662h-228v58h524v-58h-228zM360 915h65l-113 -139h-67l-114 139h65l82 -102z" />
    <glyph glyph-name="tcaron" unicode="&#x165;" horiz-adv-x="278" 
d="M153 518h97v-50h-97v-369q0 -27 7 -40t18 -16t30 -3q16 0 46 7v-49q-6 -1 -26 -6.5t-43 -5.5q-48 0 -70 25t-22 75v382h-73v50h73v144h60v-144zM214 581v27q36 0 36 54h-36v58h68v-52q0 -43 -18 -65t-50 -22z" />
    <glyph glyph-name="Tbar" unicode="&#x166;" 
d="M312 662v-182h117v-58h-117v-422h-68v422h-111v58h111v182h-228v58h524v-58h-228z" />
    <glyph glyph-name="tbar" unicode="&#x167;" horiz-adv-x="278" 
d="M24 377h69v91h-73v50h73v144h60v-144h97v-50h-97v-91h92v-45h-92v-233q0 -27 7 -40t18 -16t30 -3q16 0 46 7v-49q-6 -1 -26 -6.5t-43 -5.5q-48 0 -70 25t-22 75v246h-69v45z" />
    <glyph glyph-name="Utilde" unicode="&#x168;" horiz-adv-x="722" 
d="M361 39q111 0 161 59t50 187v435h68v-454q0 -136 -70.5 -210.5t-208.5 -74.5q-137 0 -208 74t-71 212v453h68v-435q0 -127 50 -186.5t161 -59.5zM435 792q-18 0 -36 6t-44 18q-21 10 -36.5 15.5t-29.5 5.5q-18 0 -29.5 -11.5t-19.5 -37.5h-36q6 47 31 72t59 25
q16 0 33.5 -6t42.5 -18q18 -9 35 -15t30 -6q34 0 44 50h38q-5 -45 -27.5 -71.5t-54.5 -26.5z" />
    <glyph glyph-name="utilde" unicode="&#x169;" 
d="M132 174q0 -134 133 -134q72 0 115 53.5t43 144.5v280h60v-518h-60v72q-41 -47 -79 -66.5t-89 -19.5q-90 0 -136.5 48t-46.5 141v343h60v-344zM354 590q-18 0 -36 6t-44 18q-21 10 -36.5 15.5t-29.5 5.5q-18 0 -29.5 -11.5t-19.5 -37.5h-36q6 47 31 72t59 25
q16 0 33.5 -6t42.5 -18q18 -9 35 -15t30 -6q34 0 44 50h38q-5 -45 -27.5 -71.5t-54.5 -26.5z" />
    <glyph glyph-name="Umacron" unicode="&#x16a;" horiz-adv-x="722" 
d="M361 39q111 0 161 59t50 187v435h68v-454q0 -136 -70.5 -210.5t-208.5 -74.5q-137 0 -208 74t-71 212v453h68v-435q0 -127 50 -186.5t161 -59.5zM211 814v45h296v-45h-296z" />
    <glyph glyph-name="umacron" unicode="&#x16b;" 
d="M132 174q0 -134 133 -134q72 0 115 53.5t43 144.5v280h60v-518h-60v72q-41 -47 -79 -66.5t-89 -19.5q-90 0 -136.5 48t-46.5 141v343h60v-344zM130 612v45h296v-45h-296z" />
    <glyph glyph-name="Ubreve" unicode="&#x16c;" horiz-adv-x="722" 
d="M361 39q111 0 161 59t50 187v435h68v-454q0 -136 -70.5 -210.5t-208.5 -74.5q-137 0 -208 74t-71 212v453h68v-435q0 -127 50 -186.5t161 -59.5zM360 827q87 0 107 81h37q-6 -60 -45 -93t-104 -33q-60 0 -97 33.5t-42 92.5h39q9 -42 36 -61.5t69 -19.5z" />
    <glyph glyph-name="ubreve" unicode="&#x16d;" 
d="M132 174q0 -134 133 -134q72 0 115 53.5t43 144.5v280h60v-518h-60v72q-41 -47 -79 -66.5t-89 -19.5q-90 0 -136.5 48t-46.5 141v343h60v-344zM278 625q88 0 107 81h37q-6 -60 -45 -93t-104 -33q-60 0 -97 33.5t-42 92.5h39q9 -42 36 -61.5t69 -19.5z" />
    <glyph glyph-name="Uring" unicode="&#x16e;" horiz-adv-x="722" 
d="M361 39q111 0 161 59t50 187v435h68v-454q0 -136 -70.5 -210.5t-208.5 -74.5q-137 0 -208 74t-71 212v453h68v-435q0 -127 50 -186.5t161 -59.5zM460 879q0 -40 -29 -69.5t-70 -29.5t-70.5 29.5t-29.5 69.5t30.5 70t69.5 30q40 0 69.5 -30t29.5 -70zM361 813
q27 0 46.5 20t19.5 46q0 27 -20 47t-46 20q-27 0 -47 -20t-20 -47q0 -26 20 -46t47 -20z" />
    <glyph glyph-name="uring" unicode="&#x16f;" 
d="M132 174q0 -134 133 -134q72 0 115 53.5t43 144.5v280h60v-518h-60v72q-41 -47 -79 -66.5t-89 -19.5q-90 0 -136.5 48t-46.5 141v343h60v-344zM376 677q0 -40 -29 -69.5t-70 -29.5t-70.5 29.5t-29.5 69.5q0 39 30 69.5t70 30.5t69.5 -30t29.5 -70zM277 611q26 0 46 20
t20 46q0 27 -20 47t-46 20q-27 0 -47 -20t-20 -47q0 -26 20 -46t47 -20z" />
    <glyph glyph-name="Uhungarumlaut" unicode="&#x170;" horiz-adv-x="722" 
d="M361 39q111 0 161 59t50 187v435h68v-454q0 -136 -70.5 -210.5t-208.5 -74.5q-137 0 -208 74t-71 212v453h68v-435q0 -127 50 -186.5t161 -59.5zM228 776l111 139h77l-137 -139h-51zM390 776l111 139h77l-137 -139h-51z" />
    <glyph glyph-name="uhungarumlaut" unicode="&#x171;" 
d="M132 174q0 -134 133 -134q72 0 115 53.5t43 144.5v280h60v-518h-60v72q-41 -47 -79 -66.5t-89 -19.5q-90 0 -136.5 48t-46.5 141v343h60v-344zM144 574l111 139h77l-137 -139h-51zM306 574l111 139h77l-137 -139h-51z" />
    <glyph glyph-name="Uogonek" unicode="&#x172;" horiz-adv-x="722" 
d="M361 39q111 0 161 59t50 187v435h68v-445q0 -151 -69.5 -219t-181.5 -74q-17 -11 -32.5 -29.5t-15.5 -39.5q0 -26 18.5 -41.5t48.5 -15.5q25 0 42 9v-44q-22 -9 -52 -9q-44 0 -73 24t-29 63q0 47 43 83q-126 5 -191.5 79.5t-65.5 204.5v454h68v-435q0 -126 50 -186
t161 -60z" />
    <glyph glyph-name="uogonek" unicode="&#x173;" 
d="M132 174q0 -134 133 -134q72 0 115 53.5t43 140.5v284h60v-518h-7q-35 -17 -57.5 -40t-22.5 -47q0 -26 18.5 -41.5t48.5 -15.5q21 0 42 9v-44q-24 -9 -52 -9q-43 0 -72.5 24t-29.5 63q0 30 18.5 56t53.5 45v72q-41 -47 -79 -66.5t-89 -19.5q-90 0 -136.5 48t-46.5 142
v342h60v-344z" />
    <glyph glyph-name="Wcircumflex" unicode="&#x174;" horiz-adv-x="889" 
d="M239 96l167 624h76l164 -624h2l157 624h70l-189 -720h-75l-167 636h-2l-167 -636h-75l-186 720h68l155 -624h2zM525 776l-82 102l-82 -102h-65l114 139h67l113 -139h-65z" />
    <glyph glyph-name="wcircumflex" unicode="&#x175;" horiz-adv-x="722" 
d="M209 77l120 441h67l114 -437l136 437h61l-168 -518h-64l-113 435h-2l-115 -435h-72l-158 518h60zM443 574l-82 102l-82 -102h-65l114 139h67l113 -139h-65z" />
    <glyph glyph-name="Ycircumflex" unicode="&#x176;" horiz-adv-x="611" 
d="M519 720h79l-261 -406v-314h-68v309l-257 411h78l212 -347zM386 776l-82 102l-82 -102h-65l114 139h67l113 -139h-65z" />
    <glyph glyph-name="ycircumflex" unicode="&#x177;" horiz-adv-x="500" 
d="M417 518h65l-213 -564q-36 -90 -67 -124t-75 -34q-29 0 -59 7v56q30 -6 50 -6q27 0 44.5 19t34.5 64l22 60l-201 522h67l166 -445zM330 574l-82 102l-82 -102h-65l114 139h67l113 -139h-65z" />
    <glyph glyph-name="Ydieresis" unicode="&#x178;" horiz-adv-x="611" 
d="M519 720h79l-261 -406v-314h-68v309l-257 411h78l212 -347zM199 786v102h65v-102h-65zM358 786v102h65v-102h-65z" />
    <glyph glyph-name="Zacute" unicode="&#x179;" horiz-adv-x="611" 
d="M115 58h464v-58h-548v57l461 605h-422v58h506v-57zM242 776l111 139h77l-137 -139h-51z" />
    <glyph glyph-name="zacute" unicode="&#x17a;" horiz-adv-x="500" 
d="M110 50h357v-50h-434v53l344 415h-321v50h398v-53zM195 574l111 139h77l-137 -139h-51z" />
    <glyph glyph-name="Zdotaccent" unicode="&#x17b;" horiz-adv-x="611" 
d="M115 58h464v-58h-548v57l461 605h-422v58h506v-57zM279 786v102h65v-102h-65z" />
    <glyph glyph-name="zdotaccent" unicode="&#x17c;" horiz-adv-x="500" 
d="M110 50h357v-50h-434v53l344 415h-321v50h398v-53zM227 584v102h65v-102h-65z" />
    <glyph glyph-name="Zcaron" unicode="&#x17d;" horiz-adv-x="611" 
d="M115 58h464v-58h-548v57l461 605h-422v58h506v-57zM392 915h65l-113 -139h-67l-114 139h65l82 -102z" />
    <glyph glyph-name="zcaron" unicode="&#x17e;" horiz-adv-x="500" 
d="M110 50h357v-50h-434v53l344 415h-321v50h398v-53zM337 713h65l-113 -139h-67l-114 139h65l82 -102z" />
    <glyph glyph-name="florin" unicode="&#x192;" 
d="M466 680q-43 0 -68 -30.5t-41 -113.5q-12 -62 -19 -88h115v-48h-123l-64 -335q-27 -140 -73.5 -200.5t-124.5 -60.5q-25 0 -55 11l19 57q14 -8 23 -10.5t25 -2.5q43 0 67 42q26 44 42 106.5t44 215.5l32 177h-113v48h121l17 75q23 110 66.5 160.5t112.5 50.5q35 0 70 -20
l-20 -49q-19 9 -29.5 12t-23.5 3z" />
    <glyph glyph-name="Aringacute" unicode="&#x1fa;" horiz-adv-x="667" 
d="M289 893l74 86h77l-100 -86h-51zM433 770q0 -26 -12 -47t-34 -36l264 -687h-70l-83 226h-328l-85 -226h-70l269 684q-24 14 -37 36.5t-13 49.5q0 40 30 70t70 30t69.5 -30t29.5 -70zM334 704q26 0 46 20t20 46q0 27 -20 47t-47 20q-26 0 -46 -20.5t-20 -46.5t20 -46
t47 -20zM334 662l-141 -378h282zM223 720z" />
    <glyph glyph-name="aringacute" unicode="&#x1fb;" 
d="M234 799l74 86h77l-100 -86h-51zM378 676q0 -40 -29.5 -69.5t-69.5 -29.5t-70 29.5t-30 69.5q0 39 30 69.5t70 30.5t69.5 -30t29.5 -70zM279 610q26 0 46 20t20 46q0 27 -20 47t-47 20q-26 0 -46 -20t-20 -47q0 -26 20 -46t47 -20zM471 375v-290q0 -22 6 -33t20 -11
q19 0 37 8v-47q-32 -10 -50 -10q-38 0 -54.5 18.5t-17.5 61.5q-38 -42 -87 -64t-106 -22q-76 0 -124.5 40.5t-48.5 108.5q0 67 46.5 106t154.5 53l56 7q51 7 70.5 12t28.5 18t9 42q0 51 -33 78t-96 27q-72 0 -108 -28.5t-43 -88.5h-61q6 82 61.5 126.5t151.5 44.5
q93 0 140.5 -41.5t47.5 -115.5zM223 40q82 0 135 40.5t53 107.5v84q-25 -11 -56 -17t-100 -12q-73 -6 -109 -33t-36 -77q0 -42 31 -67.5t82 -25.5z" />
    <glyph glyph-name="AEacute" unicode="&#x1fc;" horiz-adv-x="1000" 
d="M540 662v-260h371v-58h-371v-286h420v-58h-488v226h-303l-96 -226h-68l313 720h630v-58h-408zM472 284v378h-114l-161 -378h275zM499 776l111 139h77l-137 -139h-51z" />
    <glyph glyph-name="aeacute" unicode="&#x1fd;" horiz-adv-x="889" 
d="M628 532q109 0 164 -69.5t55 -217.5h-390q1 -99 46 -152t126 -53q58 0 97 31.5t54 88.5h63q-20 -85 -76 -129.5t-143 -44.5q-67 0 -116 27.5t-84 86.5q-44 -62 -95.5 -88t-121.5 -26q-78 0 -123 38.5t-45 107.5q0 147 196 165q71 6 102.5 12.5t43.5 18.5t12 38
q0 43 -11.5 67t-38.5 34.5t-75 10.5q-133 0 -145 -114h-62q4 79 58 123.5t146 44.5q71 0 117.5 -22t63.5 -63q29 44 71 64.5t111 20.5zM624 478q-74 0 -119.5 -51t-47.5 -132h326q-1 84 -44 133.5t-115 49.5zM393 204v70q-19 -10 -50 -17t-88 -14q-12 -1 -38 -5
q-58 -9 -86 -31.5t-28 -65.5q0 -49 28.5 -75t79.5 -26q87 0 134.5 44t47.5 120zM399 574l111 139h77l-137 -139h-51z" />
    <glyph glyph-name="Oslashacute" unicode="&#x1fe;" horiz-adv-x="778" 
d="M649 612q34 -40 53 -107.5t19 -145.5q0 -111 -41 -197t-117 -133.5t-178 -47.5q-132 0 -219 79l-85 -97l-39 34l89 101q-81 99 -81 261q0 110 41 196t116.5 135t174.5 49q142 0 232 -87l83 95l39 -35zM174 147l398 457q-70 77 -189 77q-80 0 -140 -40.5t-92.5 -113.5
t-32.5 -168q0 -123 56 -212zM386 39q83 0 143.5 40t92 112.5t31.5 167.5q0 116 -49 201l-397 -453q32 -32 77.5 -50t101.5 -18zM319 776l111 139h77l-137 -139h-51z" />
    <glyph glyph-name="oslashacute" unicode="&#x1ff;" 
d="M466 445q27 -36 40.5 -84t13.5 -103q0 -83 -29 -144t-83 -94.5t-128 -33.5q-46 0 -87 14.5t-68 40.5l-54 -64l-36 29l58 68q-53 70 -53 184q0 82 29 144t83 96t128 34q93 0 154 -53l52 62l35 -31zM135 124l260 309q-19 22 -49.5 33.5t-66.5 11.5q-81 0 -128 -60t-47 -161
q0 -82 31 -133zM280 40q82 0 129 59t47 159q0 87 -31 139l-263 -312q20 -22 52 -33.5t66 -11.5zM239 574l111 139h77l-137 -139h-51z" />
    <glyph glyph-name="Scommaaccent" unicode="&#x218;" horiz-adv-x="611" 
d="M304 681q-81 0 -129.5 -38.5t-48.5 -99.5q0 -47 27.5 -75t68.5 -42t114 -30l48 -11q98 -26 140.5 -70.5t42.5 -123.5q0 -99 -69 -154.5t-194 -55.5q-121 0 -191 62t-70 172h66q8 -87 60.5 -131.5t146.5 -44.5q87 0 135 40.5t48 108.5q0 57 -38.5 90.5t-133.5 54.5
q-94 21 -147 41.5t-86.5 60t-33.5 110.5q0 56 30.5 100t86 69t127.5 25q74 0 129 -27t84 -75.5t29 -112.5h-65q0 73 -48 115t-129 42zM274 -179v27q36 0 36 54h-36v58h68v-52q0 -43 -18 -65t-50 -22z" />
    <glyph glyph-name="scommaaccent" unicode="&#x219;" horiz-adv-x="500" 
d="M440 369h-61q-14 109 -140 109q-56 0 -86.5 -24t-30.5 -65q0 -38 31 -59t94 -36q78 -18 121.5 -37t64.5 -47t21 -73q0 -70 -57 -110.5t-153 -40.5q-86 0 -139.5 47.5t-58.5 128.5h61q14 -64 50 -93t105 -29q59 0 93.5 26.5t34.5 70.5q0 23 -10 39t-43.5 31.5t-100.5 29.5
q-100 22 -139 56.5t-39 93.5q0 67 51.5 106t130.5 39q180 0 200 -163zM222 -179v27q36 0 36 54h-36v58h68v-52q0 -43 -18 -65t-50 -22z" />
    <glyph glyph-name="uni021A" unicode="&#x21a;" 
d="M312 662v-662h-68v662h-228v58h524v-58h-228zM243 -179v27q36 0 36 54h-36v58h68v-52q0 -43 -18 -65t-50 -22z" />
    <glyph glyph-name="uni021B" unicode="&#x21b;" horiz-adv-x="278" 
d="M153 518h97v-50h-97v-369q0 -27 7 -40t18 -16t30 -3q16 0 46 7v-49q-6 -1 -26 -6.5t-43 -5.5q-48 0 -70 25t-22 75v382h-73v50h73v144h60v-144zM118 -179v27q36 0 36 54h-36v58h68v-52q0 -43 -18 -65t-50 -22z" />
    <glyph glyph-name="dotlessj" unicode="&#x237;" horiz-adv-x="222" 
d="M148 -84q0 -50 -11 -75.5t-33.5 -35t-61.5 -9.5q-21 0 -37 4v53q16 -2 25 -2q32 0 45 16t13 52v599h60v-602z" />
    <glyph glyph-name="circumflex" unicode="&#x2c6;" horiz-adv-x="333" 
d="M253 574l-82 102l-82 -102h-65l114 139h67l113 -139h-65z" />
    <glyph glyph-name="caron" unicode="&#x2c7;" horiz-adv-x="333" 
d="M253 713h65l-113 -139h-67l-114 139h65l82 -102z" />
    <glyph glyph-name="uni02C9" unicode="&#x2c9;" horiz-adv-x="333" 
d="M23 612v45h296v-45h-296z" />
    <glyph glyph-name="breve" unicode="&#x2d8;" horiz-adv-x="333" 
d="M172 625q88 0 107 81h37q-6 -60 -45 -93t-104 -33q-60 0 -97 33.5t-42 92.5h39q9 -42 36 -61.5t69 -19.5z" />
    <glyph glyph-name="dotaccent" unicode="&#x2d9;" horiz-adv-x="333" 
d="M134 584v102h65v-102h-65z" />
    <glyph glyph-name="ring" unicode="&#x2da;" horiz-adv-x="333" 
d="M266 677q0 -40 -29 -69.5t-70 -29.5t-70.5 29.5t-29.5 69.5q0 39 30 69.5t70 30.5t69.5 -30t29.5 -70zM167 611q26 0 46 20t20 46q0 27 -20 47t-46 20q-27 0 -47 -20t-20 -47q0 -26 20 -46t47 -20z" />
    <glyph glyph-name="ogonek" unicode="&#x2db;" horiz-adv-x="333" 
d="M119 -87q0 -25 18.5 -41t48.5 -16q22 0 42 9v-44q-24 -9 -52 -9q-44 0 -73 24.5t-29 62.5q0 31 20 57.5t55 45.5h50v-2q-36 -18 -58 -40.5t-22 -46.5z" />
    <glyph glyph-name="tilde" unicode="&#x2dc;" horiz-adv-x="333" 
d="M247 590q-18 0 -36 6t-44 18q-21 10 -36.5 15.5t-29.5 5.5q-18 0 -29.5 -11.5t-19.5 -37.5h-36q6 47 31 72t59 25q16 0 33.5 -6t42.5 -18q18 -9 35 -15t30 -6q34 0 44 50h38q-5 -45 -27.5 -71.5t-54.5 -26.5z" />
    <glyph glyph-name="hungarumlaut" unicode="&#x2dd;" horiz-adv-x="333" 
d="M109 574l111 139h77l-137 -139h-51zM271 574l111 139h77l-137 -139h-51z" />
    <glyph glyph-name="uni0394" unicode="&#x394;" horiz-adv-x="592" 
d="M566 0h-539v46l225 634h89l225 -634v-46zM221 398l-120 -337h387l-87 242q-102 285 -105 306h-4q-1 -9 -16.5 -55t-54.5 -156z" />
    <glyph glyph-name="uni03A9" unicode="&#x3a9;" horiz-adv-x="618" 
d="M454 68v-4h130v-64h-225v52q61 51 96.5 133t35.5 171q0 72 -22.5 134t-63.5 99.5t-95 37.5t-96 -37t-65 -99t-23 -134q0 -84 38 -172.5t94 -132.5v-52h-225v64h129v4q-57 56 -88 134.5t-31 162.5q0 96 35 170.5t97 116t139 41.5q76 0 135.5 -41.5t92 -114.5t32.5 -166
q0 -88 -31.5 -168t-88.5 -135z" />
    <glyph glyph-name="uni03BC" unicode="&#x3bc;" 
d="M132 174q0 -64 32 -99t101 -35q72 0 115 54t43 138v286h60v-518h-60v72q-41 -47 -79 -66.5t-89 -19.5q-39 0 -71 9.5t-52 22.5v-222h-60v722h60v-344z" />
    <glyph glyph-name="pi" unicode="&#x3c0;" horiz-adv-x="530" 
d="M418 443v-331q0 -31 8.5 -44t29.5 -13q20 0 42 12v-54q-36 -19 -70 -19q-45 0 -65.5 31.5t-20.5 99.5v318h-164v-443h-76v443h-70v62h462v-62h-76z" />
    <glyph glyph-name="Wgrave" unicode="&#x1e80;" horiz-adv-x="889" 
d="M239 96l167 624h76l164 -624h2l157 624h70l-189 -720h-75l-167 636h-2l-167 -636h-75l-186 720h68l155 -624h2zM453 776l-138 139h78l111 -139h-51z" />
    <glyph glyph-name="wgrave" unicode="&#x1e81;" horiz-adv-x="722" 
d="M209 77l120 441h67l114 -437l136 437h61l-168 -518h-64l-113 435h-2l-115 -435h-72l-158 518h60zM363 574l-138 139h78l111 -139h-51z" />
    <glyph glyph-name="Wacute" unicode="&#x1e82;" horiz-adv-x="889" 
d="M239 96l167 624h76l164 -624h2l157 624h70l-189 -720h-75l-167 636h-2l-167 -636h-75l-186 720h68l155 -624h2zM389 776l111 139h77l-137 -139h-51z" />
    <glyph glyph-name="wacute" unicode="&#x1e83;" horiz-adv-x="722" 
d="M209 77l120 441h67l114 -437l136 437h61l-168 -518h-64l-113 435h-2l-115 -435h-72l-158 518h60zM309 574l111 139h77l-137 -139h-51z" />
    <glyph glyph-name="Wdieresis" unicode="&#x1e84;" horiz-adv-x="889" 
d="M239 96l167 624h76l164 -624h2l157 624h70l-189 -720h-75l-167 636h-2l-167 -636h-75l-186 720h68l155 -624h2zM329 786v102h65v-102h-65zM488 786v102h65v-102h-65z" />
    <glyph glyph-name="wdieresis" unicode="&#x1e85;" horiz-adv-x="722" 
d="M209 77l120 441h67l114 -437l136 437h61l-168 -518h-64l-113 435h-2l-115 -435h-72l-158 518h60zM250 584v102h65v-102h-65zM409 584v102h65v-102h-65z" />
    <glyph glyph-name="uni1E9E" unicode="&#x1e9e;" horiz-adv-x="703" 
d="M358 526q0 -34 16.5 -57t42 -38t74.5 -37q63 -29 99.5 -55.5t55.5 -64t19 -93.5q0 -61 -27.5 -106t-76.5 -69.5t-111 -24.5q-102 0 -159 49t-57 147h65q0 -66 41 -102t110 -36q67 0 107 36.5t40 101.5q0 44 -15.5 72.5t-44.5 48t-81 42.5q-83 37 -123.5 77.5t-40.5 108.5
q0 61 42.5 100t111.5 53q-39 5 -107 5q-95 0 -140.5 -35t-45.5 -123v-526h-68v528q0 116 63.5 163.5t191.5 47.5q112 0 215 -20v-57q-79 -5 -138 -41t-59 -95z" />
    <glyph glyph-name="Ygrave" unicode="&#x1ef2;" horiz-adv-x="611" 
d="M519 720h79l-261 -406v-314h-68v309l-257 411h78l212 -347zM323 776l-138 139h78l111 -139h-51z" />
    <glyph glyph-name="ygrave" unicode="&#x1ef3;" horiz-adv-x="500" 
d="M417 518h65l-213 -564q-36 -90 -67 -124t-75 -34q-29 0 -59 7v56q30 -6 50 -6q27 0 44.5 19t34.5 64l22 60l-201 522h67l166 -445zM273 574l-138 139h78l111 -139h-51z" />
    <glyph glyph-name="endash" unicode="&#x2013;" horiz-adv-x="500" 
d="M0 238v44h500v-44h-500z" />
    <glyph glyph-name="emdash" unicode="&#x2014;" horiz-adv-x="1000" 
d="M0 238v44h1000v-44h-1000z" />
    <glyph glyph-name="quoteleft" unicode="&#x2018;" horiz-adv-x="222" 
d="M108 620v-37h34v-88h-73v121q0 37 18.5 64.5t54.5 39.5v-37q-34 -23 -34 -63z" />
    <glyph glyph-name="quoteright" unicode="&#x2019;" horiz-adv-x="222" 
d="M80 495v37q34 21 34 63v37h-34v88h73v-120q0 -37 -18.5 -65t-54.5 -40z" />
    <glyph glyph-name="quotesinglbase" unicode="&#x201a;" horiz-adv-x="222" 
d="M80 -137v37q34 22 34 63v37h-34v88h73v-121q0 -37 -19 -64.5t-54 -39.5z" />
    <glyph glyph-name="quotedblleft" unicode="&#x201c;" horiz-adv-x="389" 
d="M125 620v-37h34v-88h-73v121q0 36 19 64t54 40v-37q-34 -23 -34 -63zM276 620v-37h34v-88h-73v121q0 37 18.5 64.5t54.5 39.5v-37q-34 -23 -34 -63z" />
    <glyph glyph-name="quotedblright" unicode="&#x201d;" horiz-adv-x="389" 
d="M79 495v37q34 21 34 63v37h-34v88h73v-121q0 -37 -18.5 -64.5t-54.5 -39.5zM230 495v37q34 21 34 61v39h-34v88h73v-121q0 -36 -18.5 -64.5t-54.5 -39.5z" />
    <glyph glyph-name="quotedblbase" unicode="&#x201e;" horiz-adv-x="389" 
d="M79 -137v37q19 12 26.5 27t7.5 38v35h-34v88h73v-121q0 -37 -19 -64.5t-54 -39.5zM230 -137v37q34 21 34 64v36h-34v88h73v-121q0 -37 -18.5 -64.5t-54.5 -39.5z" />
    <glyph glyph-name="dagger" unicode="&#x2020;" 
d="M308 490h211v-54h-211v-602h-60v602h-211v54h211v230h60v-230z" />
    <glyph glyph-name="daggerdbl" unicode="&#x2021;" 
d="M308 497h211v-54h-211v-334h211v-54h-211v-221h-60v221h-211v54h211v334h-211v54h211v223h60v-223z" />
    <glyph glyph-name="bullet" unicode="&#x2022;" horiz-adv-x="500" 
d="M249 180q-48 0 -89 24.5t-65.5 65.5t-24.5 89q0 49 24.5 90.5t65.5 66t89 24.5t90 -24.5t66.5 -66t24.5 -90.5q0 -48 -24.5 -89t-66 -65.5t-90.5 -24.5z" />
    <glyph glyph-name="ellipsis" unicode="&#x2026;" horiz-adv-x="1000" 
d="M131 0v88h73v-88h-73zM464 0v88h73v-88h-73zM797 0v88h73v-88h-73z" />
    <glyph glyph-name="perthousand" unicode="&#x2030;" horiz-adv-x="1000" 
d="M139 -14h-53l408 719h52zM163 399q-40 0 -74.5 20.5t-54.5 55.5t-20 74t20.5 73.5t54.5 55t74 20.5t74.5 -20.5t55 -54.5t20.5 -74q0 -41 -20.5 -75.5t-55 -54.5t-74.5 -20zM256 550q0 37 -28.5 64t-64.5 27q-37 0 -64.5 -27.5t-27.5 -64.5t28 -65t64 -28t64.5 28
t28.5 66zM473 0q-40 0 -74.5 20.5t-54.5 55.5t-20 74t20.5 73.5t54.5 55t74 20.5t74.5 -20.5t55 -54.5t20.5 -74q0 -41 -20.5 -75.5t-55 -54.5t-74.5 -20zM835 0q-40 0 -74.5 20.5t-54.5 55.5t-20 74t20.5 73.5t54.5 55t74 20.5t74.5 -20.5t55 -54.5t20.5 -74
q0 -41 -20.5 -75.5t-55 -54.5t-74.5 -20zM566 151q0 37 -28.5 64t-64.5 27q-37 0 -64.5 -27.5t-27.5 -64.5t28 -65t64 -28t64.5 28t28.5 66zM928 151q0 37 -28.5 64t-64.5 27q-37 0 -64.5 -27.5t-27.5 -64.5t28 -65t64 -28t64.5 28t28.5 66z" />
    <glyph glyph-name="guilsinglleft" unicode="&#x2039;" horiz-adv-x="389" 
d="M163 259l104 -80v-62l-146 111v63l146 113v-63z" />
    <glyph glyph-name="guilsinglright" unicode="&#x203a;" horiz-adv-x="389" 
d="M122 117v63l104 82l-104 80v62l146 -111v-63z" />
    <glyph glyph-name="fraction" unicode="&#x2044;" horiz-adv-x="167" 
d="M-113 -14h-51l444 719h51z" />
    <glyph glyph-name="Euro" unicode="&#x20ac;" horiz-adv-x="552" 
d="M480 180h64q-10 -87 -66.5 -140.5t-142.5 -53.5q-105 0 -160 67.5t-72 187.5h-91l20 54h66q-2 32 -2 52q0 30 1 46h-83l19 54h69q15 122 70 190t162 68q89 0 140.5 -50.5t65.5 -143.5h-64q-10 66 -46 103t-96 37q-56 0 -90 -25.5t-51 -69t-27 -109.5h312l-20 -54h-297
q-1 -16 -1 -46q0 -22 2 -52h260l-20 -54h-233q16 -102 54.5 -151.5t112.5 -49.5q60 0 97.5 37.5t46.5 102.5z" />
    <glyph glyph-name="uni20B9" unicode="&#x20b9;" 
d="M221 316h-87l325 -316h-89l-314 313v57h169q71 0 114 29.5t43 92.5h-326v54h323q-14 53 -52.5 75.5t-98.5 22.5h-172v54h495v-54h-170q25 -16 40.5 -42t20.5 -56h109v-54h-106q0 -90 -61 -133t-163 -43z" />
    <glyph glyph-name="uni20BA" unicode="&#x20ba;" 
d="M460 340h64q-8 -155 -89 -247.5t-236 -92.5h-80v272l-92 -43v58l92 43v108l-92 -44v58l92 44v202h62v-174l223 108v-58l-223 -108v-107l223 108v-58l-223 -108v-247h18q89 0 146 41.5t85 106.5t30 138z" />
    <glyph glyph-name="uni20BC" unicode="&#x20bc;" horiz-adv-x="693" 
d="M315 521q-80 -8 -132.5 -82t-76 -179.5t-23.5 -204.5v-55h-62v66q0 118 30.5 232t96.5 191.5t167 85.5v123h62v-123q102 -9 167.5 -85.5t96 -191t30.5 -232.5v-66h-62v55q0 99 -23 204t-75 179t-134 83v-451h-62v451z" />
    <glyph glyph-name="uni20BD" unicode="&#x20bd;" 
d="M105 691h216q104 0 160.5 -46t56.5 -142q0 -95 -63 -142t-168 -47h-140v-74h191v-54h-191v-186h-62v186h-86v54h86v74h-86v54h86v323zM474 503q0 72 -42 103t-123 31h-142v-269h131q87 0 131.5 30.5t44.5 104.5z" />
    <glyph glyph-name="afii61289" unicode="&#x2113;" horiz-adv-x="474" 
d="M187 219v-17q0 -75 19 -107.5t59 -32.5q34 0 60.5 12t55.5 46l41 -40q-27 -43 -68 -66t-94 -23q-74 0 -110 39t-42 135l-51 -38l-26 47l76 60v227q0 129 35.5 193t114.5 64q54 0 88 -41t34 -109q0 -87 -45.5 -170t-146.5 -179zM309 567q0 43 -14.5 66.5t-42.5 23.5
q-29 0 -47 -38t-18 -104v-214q122 135 122 266z" />
    <glyph glyph-name="trademark" unicode="&#x2122;" horiz-adv-x="940" 
d="M215 680v-381h-52v381h-134v40h320v-40h-134zM645 409l118 311h96v-421h-52v377h-2l-145 -377h-34l-145 377h-2v-377h-52v421h96l120 -311h2z" />
    <glyph glyph-name="Omega" unicode="&#x2126;" horiz-adv-x="618" 
d="M454 68v-4h130v-64h-225v52q61 51 96.5 133t35.5 171q0 72 -22.5 134t-63.5 99.5t-95 37.5t-96 -37t-65 -99t-23 -134q0 -84 38 -172.5t94 -132.5v-52h-225v64h129v4q-57 56 -88 134.5t-31 162.5q0 96 35 170.5t97 116t139 41.5q76 0 135.5 -41.5t92 -114.5t32.5 -166
q0 -88 -31.5 -168t-88.5 -135z" />
    <glyph glyph-name="estimated" unicode="&#x212e;" horiz-adv-x="742" 
d="M370 35q80 0 139 37t105 115l44 -26q-57 -91 -123.5 -131t-164.5 -40q-95 0 -169.5 45.5t-115.5 125.5t-41 179q0 101 41.5 180.5t116 124.5t168.5 45q96 0 170.5 -44.5t115.5 -124.5t42 -181h-511v-230q75 -75 183 -75zM555 569q-79 76 -187 76q-106 0 -181 -76v-183
h368v183z" />
    <glyph glyph-name="onethird" unicode="&#x2153;" horiz-adv-x="841" 
d="M158 316v314h-118v26h4q45 2 70 12t36 26.5t17 44.5h33v-423h-42zM179 -14h-51l444 719h51zM720 224q40 -11 60.5 -37.5t20.5 -66.5q0 -57 -42 -92.5t-108 -35.5q-81 0 -117.5 30t-43.5 100h42q0 -46 30.5 -72t83.5 -26q47 0 80 26.5t33 67.5t-32.5 64t-92.5 23l-22 -1
v31q69 0 100 19.5t31 61.5q0 35 -26 55t-71 20q-43 0 -70.5 -24.5t-28.5 -66.5h-41q0 56 38.5 89.5t102.5 33.5q65 0 101.5 -27t36.5 -77q0 -68 -65 -95z" />
    <glyph glyph-name="twothirds" unicode="&#x2154;" horiz-adv-x="866" 
d="M185 458q-47 -24 -73.5 -50.5t-27.5 -59.5h255v-32h-299q0 42 11 67t38 50q39 36 108 73q59 31 80 55.5t21 58.5q0 39 -28.5 63t-72.5 24q-42 0 -71 -30.5t-29 -72.5v-4h-44q0 63 40.5 101t108.5 38q65 0 103 -32.5t38 -84.5q0 -39 -18.5 -66.5t-50 -48t-89.5 -49.5z
M234 -14h-51l444 719h51zM745 224q40 -11 60.5 -37.5t20.5 -66.5q0 -57 -42 -92.5t-108 -35.5q-81 0 -117.5 30t-43.5 100h42q0 -46 30.5 -72t83.5 -26q47 0 80 26.5t33 67.5t-32.5 64t-92.5 23l-22 -1v31q69 0 100 19.5t31 61.5q0 35 -26 55t-71 20q-43 0 -70.5 -24.5
t-28.5 -66.5h-41q0 56 38.5 89.5t102.5 33.5q65 0 101.5 -27t36.5 -77q0 -68 -65 -95z" />
    <glyph glyph-name="oneeighth" unicode="&#x215b;" horiz-adv-x="837" 
d="M158 316v314h-118v26h4q45 2 70 12t36 26.5t17 44.5h33v-423h-42zM179 -14h-51l444 719h51zM720 223q36 -14 56.5 -42.5t20.5 -66.5q0 -63 -41.5 -98t-103.5 -35q-64 0 -104.5 36t-40.5 93q0 40 20 70.5t57 44.5q-33 19 -47 39.5t-14 53.5q0 47 34.5 78t92.5 31
q57 0 93 -29t36 -78q0 -68 -59 -97zM740 324q0 34 -22.5 52t-67.5 18q-39 0 -63.5 -22t-24.5 -57q0 -36 25.5 -57t67.5 -21q40 0 62.5 22.5t22.5 64.5zM758 113q0 42 -28.5 66.5t-77.5 24.5t-77 -25t-28 -69q0 -42 30 -68.5t78 -26.5q45 0 74 27t29 71z" />
    <glyph glyph-name="threeeighths" unicode="&#x215c;" horiz-adv-x="837" 
d="M270 540q40 -11 60.5 -37.5t20.5 -66.5q0 -57 -42 -92.5t-108 -35.5q-81 0 -117.5 30t-43.5 100h42q0 -46 30.5 -72t83.5 -26q47 0 80 26.5t33 67.5t-32.5 64t-92.5 23l-22 -1v31q69 0 100 19.5t31 61.5q0 35 -26 55t-71 20q-43 0 -70.5 -24.5t-28.5 -66.5h-41
q0 56 38.5 89.5t102.5 33.5q65 0 101.5 -27t36.5 -77q0 -68 -65 -95zM239 -14h-51l444 719h51zM720 223q36 -14 56.5 -42.5t20.5 -66.5q0 -63 -41.5 -98t-103.5 -35q-64 0 -104.5 36t-40.5 93q0 40 20 70.5t57 44.5q-33 19 -47 39.5t-14 53.5q0 47 34.5 78t92.5 31
q57 0 93 -29t36 -78q0 -68 -59 -97zM740 324q0 34 -22.5 52t-67.5 18q-39 0 -63.5 -22t-24.5 -57q0 -36 25.5 -57t67.5 -21q40 0 62.5 22.5t22.5 64.5zM758 113q0 42 -28.5 66.5t-77.5 24.5t-77 -25t-28 -69q0 -42 30 -68.5t78 -26.5q45 0 74 27t29 71z" />
    <glyph glyph-name="fiveeighths" unicode="&#x215d;" horiz-adv-x="825" 
d="M125 705l-28 -147q21 14 42.5 21.5t52.5 7.5q63 0 101.5 -39.5t38.5 -105.5q0 -42 -18.5 -75t-50.5 -51.5t-71 -18.5q-71 0 -109.5 31.5t-42.5 90.5h39q6 -42 34.5 -65t73.5 -23q47 0 76 31.5t29 79.5q0 50 -29.5 80.5t-78.5 30.5q-61 0 -95 -45l-33 4l35 227h217v-34
h-183zM227 -14h-51l444 719h51zM708 223q36 -14 56.5 -42.5t20.5 -66.5q0 -63 -41.5 -98t-103.5 -35q-64 0 -104.5 36t-40.5 93q0 40 20 70.5t57 44.5q-33 19 -47 39.5t-14 53.5q0 47 34.5 78t92.5 31q57 0 93 -29t36 -78q0 -68 -59 -97zM728 324q0 34 -22.5 52t-67.5 18
q-39 0 -63.5 -22t-24.5 -57q0 -36 25.5 -57t67.5 -21q40 0 62.5 22.5t22.5 64.5zM746 113q0 42 -28.5 66.5t-77.5 24.5t-77 -25t-28 -69q0 -42 30 -68.5t78 -26.5q45 0 74 27t29 71z" />
    <glyph glyph-name="seveneighths" unicode="&#x215e;" horiz-adv-x="740" 
d="M141 306h-44q6 86 55.5 197.5t117.5 195.5h-230v40h278v-37q-70 -79 -120 -189t-57 -207zM142 -14h-51l444 719h51zM623 223q36 -14 56.5 -42.5t20.5 -66.5q0 -63 -41.5 -98t-103.5 -35q-64 0 -104.5 36t-40.5 93q0 40 20 70.5t57 44.5q-33 19 -47 39.5t-14 53.5
q0 47 34.5 78t92.5 31q57 0 93 -29t36 -78q0 -68 -59 -97zM643 324q0 34 -22.5 52t-67.5 18q-39 0 -63.5 -22t-24.5 -57q0 -36 25.5 -57t67.5 -21q40 0 62.5 22.5t22.5 64.5zM661 113q0 42 -28.5 66.5t-77.5 24.5t-77 -25t-28 -69q0 -42 30 -68.5t78 -26.5q45 0 74 27t29 71
z" />
    <glyph glyph-name="partialdiff" unicode="&#x2202;" horiz-adv-x="485" 
d="M210 -10q-82 0 -129 55.5t-47 151.5q0 67 27 123t73.5 88.5t101.5 32.5q46 0 82.5 -20t59.5 -57h1v22q0 92 -23.5 162.5t-63.5 108t-86 37.5q-71 0 -124 -37l-23 49q15 14 58 31.5t92 17.5q67 0 122 -47t86.5 -133.5t31.5 -198.5q0 -121 -32 -208.5t-86.5 -132.5
t-120.5 -45zM371 292q-16 41 -49 65.5t-75 24.5q-38 0 -70.5 -24.5t-51 -66.5t-18.5 -92q0 -71 28.5 -110t79.5 -39q38 0 71.5 30t56 84.5t28.5 127.5z" />
    <glyph glyph-name="Delta" unicode="&#x2206;" horiz-adv-x="592" 
d="M566 0h-539v46l225 634h89l225 -634v-46zM221 398l-120 -337h387l-87 242q-102 285 -105 306h-4q-1 -9 -16.5 -55t-54.5 -156z" />
    <glyph glyph-name="product" unicode="&#x220f;" horiz-adv-x="628" 
d="M502 -130v815h-376v-815h-72v878h520v-878h-72z" />
    <glyph glyph-name="summation" unicode="&#x2211;" horiz-adv-x="564" 
d="M117 686v-3l205 -374l-218 -373v-4h463v-62h-558v46l231 389l-217 392v51h514v-62h-420z" />
    <glyph glyph-name="minus" unicode="&#x2212;" horiz-adv-x="660" 
d="M80 220v60h500v-60h-500z" />
    <glyph glyph-name="uni2215" unicode="&#x2215;" horiz-adv-x="167" 
d="M-113 -14h-51l444 719h51z" />
    <glyph glyph-name="uni2219" unicode="&#x2219;" horiz-adv-x="278" 
d="M139 301q-20 0 -34.5 15t-14.5 34t15 33.5t34 14.5t33.5 -14.5t14.5 -33.5t-14 -34t-34 -15z" />
    <glyph glyph-name="radical" unicode="&#x221a;" horiz-adv-x="512" 
d="M242 -90l-147 407l-71 -27l-16 45l130 51q103 -288 114.5 -325t14.5 -65h1l4 28q6 37 177 776h62l-210 -890h-59z" />
    <glyph glyph-name="infinity" unicode="&#x221e;" horiz-adv-x="733" 
d="M552 410q62 0 102 -41t40 -105q0 -40 -20.5 -73.5t-55 -53t-75.5 -19.5t-80 23.5t-97 82.5q-58 -60 -98 -83t-87 -23q-62 0 -101.5 41t-39.5 105q0 39 20 72.5t54 53.5t75 20t80.5 -22.5t97.5 -82.5q60 60 102 82.5t83 22.5zM329 264l-22 21q-33 34 -60 51.5t-59 17.5
q-36 0 -62.5 -26.5t-26.5 -63.5t25.5 -63t62.5 -26q31 0 63.5 20t78.5 69zM545 175q37 0 63 26.5t26 62.5q0 39 -24.5 64.5t-62.5 25.5q-32 0 -65 -21t-78 -68l40 -39q51 -51 101 -51z" />
    <glyph glyph-name="integral" unicode="&#x222b;" horiz-adv-x="317" 
d="M264 701q-27 0 -43 -17t-24 -59t-8 -120q0 -86 4.5 -214.5t4.5 -169.5q0 -108 -16 -163q-16 -53 -45.5 -78t-73.5 -25q-30 0 -50 9l11 54q18 -5 34 -5q40 0 57.5 44t17.5 150q0 26 -5 174.5t-5 204.5q0 115 16 169q31 102 122 102q24 0 43 -7l-12 -54q-11 5 -28 5z" />
    <glyph glyph-name="approxequal" unicode="&#x2248;" horiz-adv-x="660" 
d="M447 291q-18 0 -38.5 5t-84.5 24q-53 16 -73.5 20.5t-37.5 4.5q-58 0 -97 -59l-43 27q61 79 144 79q21 0 40 -4.5t91 -24.5q48 -14 67 -18.5t31 -4.5q29 0 57 14.5t46 39.5l37 -24q-21 -36 -59 -57.5t-80 -21.5zM447 140q-18 0 -39 5t-84 24q-53 16 -74 20.5t-37 4.5
q-58 0 -97 -59l-43 27q61 79 144 79q21 0 40 -4.5t91 -24.5q52 -15 69 -19t29 -4q29 0 57 14.5t46 39.5l37 -24q-21 -36 -59 -57.5t-80 -21.5z" />
    <glyph glyph-name="notequal" unicode="&#x2260;" horiz-adv-x="660" 
d="M427 385h165v-55h-195l-78 -139h273v-55h-303l-90 -161l-49 28l74 133h-157v55h188l77 139h-265v55h296l91 164l49 -28z" />
    <glyph glyph-name="lessequal" unicode="&#x2264;" horiz-adv-x="660" 
d="M145 378l433 -199v-62l-497 230v62l497 230v-62zM81 0v55h497v-55h-497z" />
    <glyph glyph-name="greaterequal" unicode="&#x2265;" horiz-adv-x="549" 
d="M523 347l-497 -230v62l433 199l-433 199v62l497 -230v-62zM26 0v55h497v-55h-497z" />
    <glyph glyph-name="lozenge" unicode="&#x25ca;" horiz-adv-x="494" 
d="M466 377l-194 -377h-60l-194 377l194 368h60zM242 54l164 323l-164 314l-164 -314z" />
    <glyph glyph-name="grave.cap" unicode="&#xe000;" horiz-adv-x="333" 
d="M183 776l-138 139h78l111 -139h-51z" />
    <glyph glyph-name="acute.cap" unicode="&#xe002;" horiz-adv-x="333" 
d="M109 776l111 139h77l-137 -139h-51z" />
    <glyph glyph-name="circumflex.cap" unicode="&#xe004;" horiz-adv-x="333" 
d="M253 776l-82 102l-82 -102h-65l114 139h67l113 -139h-65z" />
    <glyph glyph-name="caron.cap" unicode="&#xe006;" horiz-adv-x="333" 
d="M253 915h65l-113 -139h-67l-114 139h65l82 -102z" />
    <glyph glyph-name="caron.alt" unicode="&#xe008;" horiz-adv-x="222" 
d="M77 581v27q36 -1 36 54h-36v58h68v-53q0 -41 -18 -63.5t-50 -22.5z" />
    <glyph glyph-name="tilde.cap" unicode="&#xe009;" horiz-adv-x="333" 
d="M247 792q-18 0 -36 6t-44 18q-21 10 -36.5 15.5t-29.5 5.5q-18 0 -29.5 -11.5t-19.5 -37.5h-36q6 47 31 72t59 25q16 0 33.5 -6t42.5 -18q18 -9 35 -15t30 -6q34 0 44 50h38q-5 -45 -27.5 -71.5t-54.5 -26.5z" />
    <glyph glyph-name="dieresis.cap" unicode="&#xe00b;" horiz-adv-x="333" 
d="M60 786v102h65v-102h-65zM219 786v102h65v-102h-65z" />
    <glyph glyph-name="macron.cap" unicode="&#xe00d;" horiz-adv-x="333" 
d="M23 814v45h296v-45h-296z" />
    <glyph glyph-name="breve.cap" unicode="&#xe00f;" horiz-adv-x="333" 
d="M172 827q87 0 107 81h37q-6 -60 -45 -93t-104 -33q-60 0 -97 33.5t-42 92.5h39q9 -42 36 -61.5t69 -19.5z" />
    <glyph glyph-name="ring.cap" unicode="&#xe011;" horiz-adv-x="333" 
d="M266 879q0 -40 -29 -69.5t-70 -29.5t-70.5 29.5t-29.5 69.5t30.5 70t69.5 30q40 0 69.5 -30t29.5 -70zM167 813q27 0 46.5 20t19.5 46q0 27 -20 47t-46 20q-27 0 -47 -20t-20 -47q0 -26 20 -46t47 -20z" />
    <glyph glyph-name="hungarumlaut.cap" unicode="&#xe013;" horiz-adv-x="333" 
d="M109 776l111 139h77l-137 -139h-51zM271 776l111 139h77l-137 -139h-51z" />
    <glyph glyph-name="dotaccent.cap" unicode="&#xe015;" horiz-adv-x="333" 
d="M134 786v102h65v-102h-65z" />
    <glyph glyph-name="commaaccent" unicode="&#xe017;" horiz-adv-x="222" 
d="M77 -179v27q36 0 36 54h-36v58h68v-52q0 -43 -18 -65t-50 -22z" />
    <glyph glyph-name="commaaccent.alt" unicode="&#xe01a;" horiz-adv-x="222" 
d="M109 632h36v-58h-68v53q0 42 18 64t50 22v-27q-36 1 -36 -54z" />
    <glyph glyph-name="uniF8FF" unicode="&#xf8ff;" horiz-adv-x="485" 
d="M0 0v680h485v-680h-485zM47 632v-585h391v585h-391zM302 339q-22 -21 -30.5 -32t-11.5 -24t-3 -39v-22h-46v23q0 42 10 64.5t36 48.5q32 31 44.5 49t12.5 42q0 33 -21 56.5t-51 23.5q-33 0 -53 -24t-24 -66l-48 8q7 64 40 97t88 33q52 0 85 -34t33 -90q0 -33 -13.5 -58
t-47.5 -56zM263 111h-53v63h53v-63z" />
    <glyph glyph-name="NULL" horiz-adv-x="0" 
 />
    </font>
</defs>
</svg>
